SplineFontDB: 3.0
FontName: ElaineSans-SemiBoldItalic
FullName: Elaine Sans SemiBold Italic
FamilyName: Elaine Sans SemiBold
Weight: Semi-Bold
Copyright: Copyright (c) 2015 by Wei Huang. All rights reserved.
Version: 1.030;PS 001.030;hotconv 1.0.70;makeotf.lib2.5.58329
ItalicAngle: -13
UnderlinePosition: -250
UnderlineWidth: 50
Ascent: 760
Descent: 240
InvalidEm: 0
sfntRevision: 0x000107ae
LayerCount: 2
Layer: 0 1 "Back" 1
Layer: 1 1 "Fore" 0
XUID: [1021 288 1899785369 2201]
StyleMap: 0x0001
FSType: 4
OS2Version: 3
OS2_WeightWidthSlopeOnly: 0
OS2_UseTypoMetrics: 0
CreationTime: 1436215488
ModificationTime: 1543785452
PfmFamily: 81
TTFWeight: 600
TTFWidth: 5
LineGap: 0
VLineGap: 0
Panose: 0 0 7 0 0 0 0 0 0 0
OS2TypoAscent: 760
OS2TypoAOffset: 0
OS2TypoDescent: -240
OS2TypoDOffset: 0
OS2TypoLinegap: 173
OS2WinAscent: 930
OS2WinAOffset: 0
OS2WinDescent: 243
OS2WinDOffset: 0
HheadAscent: 930
HheadAOffset: 0
HheadDescent: -243
HheadDOffset: 0
OS2SubXSize: 650
OS2SubYSize: 600
OS2SubXOff: 0
OS2SubYOff: 75
OS2SupXSize: 650
OS2SupYSize: 600
OS2SupXOff: 0
OS2SupYOff: 350
OS2StrikeYSize: 50
OS2StrikeYPos: 300
OS2CapHeight: 660
OS2XHeight: 500
OS2Vendor: 'UKWN'
OS2CodePages: 20000093.00000000
OS2UnicodeRanges: 00000007.00000001.00000000.00000000
Lookup: 1 0 0 "'aalt' Access All Alternates lookup 0" { "'aalt' Access All Alternates lookup 0 subtable"  } ['aalt' ('DFLT' <'dflt' > 'grek' <'dflt' > 'latn' <'CAT ' 'MOL ' 'NLD ' 'ROM ' 'TRK ' 'dflt' > ) ]
Lookup: 3 0 0 "'aalt' Access All Alternates lookup 1" { "'aalt' Access All Alternates lookup 1 subtable"  } ['aalt' ('DFLT' <'dflt' > 'grek' <'dflt' > 'latn' <'CAT ' 'MOL ' 'NLD ' 'ROM ' 'TRK ' 'dflt' > ) ]
Lookup: 1 0 0 "'locl' Localized Forms in Latin lookup 2" { "'locl' Localized Forms in Latin lookup 2 subtable"  } ['locl' ('latn' <'TRK ' > ) ]
Lookup: 1 0 0 "'locl' Localized Forms in Latin lookup 3" { "'locl' Localized Forms in Latin lookup 3 subtable"  } ['locl' ('latn' <'TAT ' > ) ]

StartChar: .notdef
Encoding: 65536 -1 0
Width: 500
Flags: W
LayerCount: 2
Fore
SplineSet
-14 0 m 1,0,-1
 138.373046875 660 l 1,1,-1
 538.373046875 660 l 1,2,-1
 386 0 l 1,3,-1
 -14 0 l 1,0,-1
84.4697265625 80 m 1,4,-1
 324.469726562 80 l 1,5,-1
 439.903320312 580 l 1,6,-1
 199.903320312 580 l 1,7,-1
 84.4697265625 80 l 1,4,-1
EndSplineSet
EndChar

StartChar: exclam
Encoding: 33 33 4
Width: 291
GlyphClass: 2
Flags: W
LayerCount: 2
Fore
SplineSet
305.373046875 660 m 1,0,-1
 249.96484375 420 l 1,1,-1
 185.174804688 213 l 1,2,-1
 75.1748046875 213 l 1,3,-1
 105.96484375 420 l 1,4,-1
 161.373046875 660 l 1,5,-1
 305.373046875 660 l 1,0,-1
114.475585938 145 m 128,-1,7
 153.475585938 145 153.475585938 145 171.627929688 124 c 128,-1,8
 189.779296875 103 189.779296875 103 181.69921875 68 c 128,-1,9
 173.618164062 33 173.618164062 33 145.770507812 12 c 128,-1,10
 117.921875 -9 117.921875 -9 78.921875 -9 c 128,-1,11
 39.921875 -9 39.921875 -9 21.7705078125 12 c 128,-1,12
 3.6181640625 33 3.6181640625 33 11.69921875 68 c 128,-1,13
 19.779296875 103 19.779296875 103 47.6279296875 124 c 128,-1,6
 75.4755859375 145 75.4755859375 145 114.475585938 145 c 128,-1,7
EndSplineSet
Substitution2: "'smcp' Lowercase to Small Capitals lookup 12 subtable" exclam.sc
Substitution2: "'c2sc' Capitals to Small Capitals lookup 11 subtable" exclam.sc
Substitution2: "'aalt' Access All Alternates lookup 0 subtable" exclam.sc
EndChar

StartChar: quotedbl
Encoding: 34 34 5
Width: 431
GlyphClass: 2
Flags: W
LayerCount: 2
Fore
SplineSet
285.452148438 682 m 1,0,-1
 196.041015625 416 l 1,1,-1
 102.041015625 416 l 1,2,-1
 163.452148438 682 l 1,3,-1
 285.452148438 682 l 1,0,-1
473.452148438 682 m 1,4,-1
 383.041015625 416 l 1,5,-1
 289.041015625 416 l 1,6,-1
 350.452148438 682 l 1,7,-1
 473.452148438 682 l 1,4,-1
EndSplineSet
Substitution2: "'smcp' Lowercase to Small Capitals lookup 12 subtable" quotedbl.sc
Substitution2: "'c2sc' Capitals to Small Capitals lookup 11 subtable" quotedbl.sc
Substitution2: "'aalt' Access All Alternates lookup 0 subtable" quotedbl.sc
EndChar

StartChar: numbersign
Encoding: 35 35 6
Width: 604
GlyphClass: 2
Flags: W
LayerCount: 2
Fore
SplineSet
617.732421875 406 m 1,0,-1
 506.732421875 406 l 1,1,-1
 449.333007812 257 l 1,2,-1
 543.333007812 257 l 1,3,-1
 523.248046875 170 l 1,4,-1
 415.248046875 170 l 1,5,-1
 351 0 l 1,6,-1
 262 0 l 1,7,-1
 327.248046875 170 l 1,8,-1
 186.248046875 170 l 1,9,-1
 121 0 l 1,10,-1
 33 0 l 1,11,-1
 98.248046875 170 l 1,12,-1
 -8.751953125 170 l 1,13,-1
 11.3330078125 257 l 1,14,-1
 131.333007812 257 l 1,15,-1
 188.732421875 406 l 1,16,-1
 84.732421875 406 l 1,17,-1
 104.818359375 493 l 1,18,-1
 221.818359375 493 l 1,19,-1
 286.373046875 660 l 1,20,-1
 374.373046875 660 l 1,21,-1
 310.818359375 493 l 1,22,-1
 451.818359375 493 l 1,23,-1
 515.373046875 660 l 1,24,-1
 603.373046875 660 l 1,25,-1
 539.818359375 493 l 1,26,-1
 637.818359375 493 l 1,27,-1
 617.732421875 406 l 1,0,-1
361.333007812 257 m 1,28,-1
 417.732421875 406 l 1,29,-1
 276.732421875 406 l 1,30,-1
 219.333007812 257 l 1,31,-1
 361.333007812 257 l 1,28,-1
EndSplineSet
Substitution2: "'tnum' Tabular Numbers lookup 26 subtable" numbersign.tf
Substitution2: "'aalt' Access All Alternates lookup 0 subtable" numbersign.tf
EndChar

StartChar: dollar
Encoding: 36 36 7
Width: 604
GlyphClass: 2
Flags: W
LayerCount: 2
Fore
SplineSet
378.114257812 373 m 1,0,1
 421.57421875 362 421.57421875 362 449.650390625 351.5 c 128,-1,2
 477.725585938 341 477.725585938 341 506.608398438 321 c 128,-1,3
 535.491210938 301 535.491210938 301 544.756835938 267.5 c 128,-1,4
 554.0234375 234 554.0234375 234 543.403320312 188 c 0,5,6
 525.395507812 110 525.395507812 110 456.967773438 60.5 c 128,-1,7
 388.5390625 11 388.5390625 11 292.461914062 2 c 1,8,-1
 270.759765625 -92 l 1,9,-1
 183.759765625 -92 l 1,10,-1
 205.461914062 2 l 1,11,12
 42.462890625 15 42.462890625 15 3.013671875 143 c 1,13,-1
 105.560546875 219 l 1,14,15
 108.940429688 173 108.940429688 173 143.283203125 142 c 128,-1,16
 177.625976562 111 177.625976562 111 228.317382812 101 c 1,17,-1
 270.104492188 282 l 1,18,19
 225.413085938 292 225.413085938 292 197.72265625 302 c 128,-1,20
 170.03125 312 170.03125 312 141.1484375 332 c 128,-1,21
 112.265625 352 112.265625 352 102.768554688 384.5 c 128,-1,22
 93.2724609375 417 93.2724609375 417 103.661132812 462 c 0,23,24
 121.668945312 540 121.668945312 540 189.635742188 594 c 128,-1,25
 257.602539062 648 257.602539062 648 356.911132812 658 c 1,26,-1
 378.61328125 752 l 1,27,-1
 465.61328125 752 l 1,28,-1
 443.911132812 658 l 1,29,30
 516.526367188 652 516.526367188 652 556.984375 621.5 c 128,-1,31
 597.443359375 591 597.443359375 591 627.822265625 532 c 1,32,-1
 530.352539062 452 l 1,33,34
 508.053710938 546 508.053710938 546 421.055664062 559 c 1,35,-1
 378.114257812 373 l 1,0,1
224.739257812 471 m 0,36,37
 212.272460938 417 212.272460938 417 295.731445312 393 c 1,38,-1
 333.82421875 558 l 1,39,40
 241.361328125 543 241.361328125 543 224.739257812 471 c 0,36,37
315.086914062 100 m 1,41,42
 407.857421875 112 407.857421875 112 423.787109375 181 c 0,43,44
 431.174804688 213 431.174804688 213 412.330078125 231 c 128,-1,45
 393.486328125 249 393.486328125 249 352.487304688 262 c 1,46,-1
 315.086914062 100 l 1,41,42
EndSplineSet
Substitution2: "'tnum' Tabular Numbers lookup 26 subtable" dollar.tf
Substitution2: "'aalt' Access All Alternates lookup 0 subtable" dollar.tf
EndChar

StartChar: percent
Encoding: 37 37 8
Width: 908
GlyphClass: 2
Flags: W
LayerCount: 2
Fore
SplineSet
300.681640625 670 m 0,0,1
 380.681640625 670 380.681640625 670 416.907226562 619 c 128,-1,2
 453.1328125 568 453.1328125 568 433.740234375 484 c 128,-1,3
 414.34765625 400 414.34765625 400 354.573242188 349 c 128,-1,4
 294.798828125 298 294.798828125 298 214.798828125 298 c 0,5,6
 135.798828125 298 135.798828125 298 99.0732421875 349 c 128,-1,7
 62.34765625 400 62.34765625 400 81.740234375 484 c 128,-1,8
 101.1328125 568 101.1328125 568 161.407226562 619 c 128,-1,9
 221.681640625 670 221.681640625 670 300.681640625 670 c 0,0,1
113 0 m 1,10,-1
 710.373046875 660 l 1,11,-1
 820.373046875 660 l 1,12,-1
 223 0 l 1,13,-1
 113 0 l 1,10,-1
278.749023438 575 m 128,-1,15
 244.749023438 575 244.749023438 575 221.208007812 551 c 128,-1,16
 197.66796875 527 197.66796875 527 187.740234375 484 c 128,-1,17
 177.8125 441 177.8125 441 190.387695312 417.5 c 128,-1,18
 202.961914062 394 202.961914062 394 236.961914062 394 c 128,-1,19
 270.961914062 394 270.961914062 394 294.387695312 417.5 c 128,-1,20
 317.8125 441 317.8125 441 327.740234375 484 c 128,-1,21
 337.66796875 527 337.66796875 527 325.208007812 551 c 128,-1,14
 312.749023438 575 312.749023438 575 278.749023438 575 c 128,-1,15
717.57421875 362 m 0,22,23
 796.57421875 362 796.57421875 362 833.299804688 311 c 128,-1,24
 870.025390625 260 870.025390625 260 850.6328125 176 c 128,-1,25
 831.240234375 92 831.240234375 92 770.965820312 41 c 128,-1,26
 710.69140625 -10 710.69140625 -10 631.69140625 -10 c 0,27,28
 551.69140625 -10 551.69140625 -10 515.465820312 41 c 128,-1,29
 479.240234375 92 479.240234375 92 498.6328125 176 c 128,-1,30
 518.025390625 260 518.025390625 260 577.799804688 311 c 128,-1,31
 637.57421875 362 637.57421875 362 717.57421875 362 c 0,22,23
695.411132812 266 m 0,32,33
 625.411132812 266 625.411132812 266 604.6328125 176 c 0,34,35
 594.705078125 133 594.705078125 133 607.165039062 109 c 128,-1,36
 619.624023438 85 619.624023438 85 653.624023438 85 c 128,-1,37
 687.624023438 85 687.624023438 85 711.165039062 109 c 128,-1,38
 734.705078125 133 734.705078125 133 744.6328125 176 c 128,-1,39
 754.560546875 219 754.560546875 219 741.985351562 242.5 c 128,-1,40
 729.411132812 266 729.411132812 266 695.411132812 266 c 0,32,33
EndSplineSet
EndChar

StartChar: ampersand
Encoding: 38 38 9
Width: 638
GlyphClass: 2
Flags: W
LayerCount: 2
Fore
SplineSet
593.31640625 88 m 1,0,-1
 553.69140625 -10 l 1,1,2
 502.69140625 -10 502.69140625 -10 469.692382812 3 c 128,-1,3
 436.694335938 16 436.694335938 16 400.159179688 57 c 1,4,5
 309.69140625 -10 309.69140625 -10 191.69140625 -10 c 0,6,7
 91.69140625 -10 91.69140625 -10 40.6572265625 37.5 c 128,-1,8
 -10.3759765625 85 -10.3759765625 85 8.32421875 166 c 0,9,10
 35.64453125 293 35.64453125 293 195.49609375 353 c 1,11,12
 165.040039062 403 165.040039062 403 157.889648438 437 c 128,-1,13
 150.739257812 471 150.739257812 471 159.743164062 510 c 0,14,15
 174.749023438 575 174.749023438 575 234.215820312 622.5 c 128,-1,16
 293.681640625 670 293.681640625 670 380.681640625 670 c 0,17,18
 464.681640625 670 464.681640625 670 504.447265625 630 c 128,-1,19
 544.211914062 590 544.211914062 590 528.282226562 521 c 0,20,21
 514.891601562 463 514.891601562 463 472.618164062 418.5 c 128,-1,22
 430.344726562 374 430.344726562 374 346.264648438 339 c 1,23,24
 376.64453125 293 376.64453125 293 387.48828125 275 c 0,25,26
 436.173828125 200 436.173828125 200 440.557617188 193 c 1,27,28
 488.564453125 258 488.564453125 258 504.649414062 345 c 1,29,-1
 598.495117188 340 l 1,30,31
 573.098632812 217 573.098632812 217 486.474609375 132 c 1,32,33
 511.779296875 103 511.779296875 103 534.701171875 94 c 128,-1,34
 557.624023438 85 557.624023438 85 593.31640625 88 c 1,0,-1
360.518554688 574 m 0,35,36
 329.518554688 574 329.518554688 574 307.747070312 555.5 c 128,-1,37
 285.9765625 537 285.9765625 537 279.049804688 507 c 0,38,39
 273.740234375 484 273.740234375 484 279.661132812 462 c 128,-1,40
 285.58203125 440 285.58203125 440 310.885742188 398 c 1,41,42
 364.811523438 428 364.811523438 428 385.9296875 454.5 c 128,-1,43
 407.047851562 481 407.047851562 481 414.897460938 515 c 0,44,45
 428.518554688 574 428.518554688 574 360.518554688 574 c 0,35,36
129.6328125 176 m 0,46,47
 120.3984375 136 120.3984375 136 147.010742188 110.5 c 128,-1,48
 173.624023438 85 173.624023438 85 222.624023438 85 c 0,49,50
 289.624023438 85 289.624023438 85 352.01171875 117 c 1,51,52
 324.015625 156 324.015625 156 297.481445312 197 c 0,53,54
 246.565429688 271 246.565429688 271 235.720703125 289 c 1,55,56
 181.333007812 257 181.333007812 257 159.176757812 232.5 c 128,-1,57
 137.020507812 208 137.020507812 208 129.6328125 176 c 0,46,47
EndSplineSet
Substitution2: "'smcp' Lowercase to Small Capitals lookup 12 subtable" ampersand.sc
Substitution2: "'c2sc' Capitals to Small Capitals lookup 11 subtable" ampersand.sc
Substitution2: "'aalt' Access All Alternates lookup 0 subtable" ampersand.sc
EndChar

StartChar: quotesingle
Encoding: 39 39 10
Width: 244
GlyphClass: 2
Flags: W
LayerCount: 2
Fore
SplineSet
285.452148438 682 m 1,0,-1
 196.041015625 416 l 1,1,-1
 102.041015625 416 l 1,2,-1
 163.452148438 682 l 1,3,-1
 285.452148438 682 l 1,0,-1
EndSplineSet
Substitution2: "'smcp' Lowercase to Small Capitals lookup 12 subtable" quotesingle.sc
Substitution2: "'c2sc' Capitals to Small Capitals lookup 11 subtable" quotesingle.sc
Substitution2: "'aalt' Access All Alternates lookup 0 subtable" quotesingle.sc
EndChar

StartChar: parenleft
Encoding: 40 40 11
Width: 376
GlyphClass: 2
Flags: W
LayerCount: 2
Fore
SplineSet
398.303710938 742 m 1,0,-1
 450.8359375 675 l 1,1,2
 341.905273438 593 341.905273438 593 282.165039062 501 c 128,-1,3
 222.424804688 409 222.424804688 409 191.719726562 276 c 0,4,5
 160.783203125 142 160.783203125 142 178.04296875 50 c 128,-1,6
 195.303710938 -42 195.303710938 -42 266.372070312 -124 c 1,7,-1
 182.904296875 -191 l 1,8,9
 -4.3095703125 -23 -4.3095703125 -23 64.7197265625 276 c 0,10,11
 133.518554688 574 133.518554688 574 398.303710938 742 c 1,0,-1
EndSplineSet
Substitution2: "'case' Case-Sensitive Forms lookup 29 subtable" parenleft.case
Substitution2: "'sups' Superscript lookup 15 subtable" uni207D
Substitution2: "'subs' Subscript lookup 14 subtable" uni208D
Substitution2: "'sinf' Scientific Inferiors lookup 13 subtable" uni208D
AlternateSubs2: "'aalt' Access All Alternates lookup 1 subtable" uni208D uni207D parenleft.case
EndChar

StartChar: parenright
Encoding: 41 41 12
Width: 376
GlyphClass: 2
Flags: W
LayerCount: 2
Fore
SplineSet
192.303710938 742 m 1,0,1
 379.518554688 574 379.518554688 574 310.719726562 276 c 0,2,3
 241.690429688 -23 241.690429688 -23 -23.095703125 -191 c 1,4,-1
 -75.6279296875 -124 l 1,5,6
 33.3037109375 -42 33.3037109375 -42 93.04296875 50 c 128,-1,7
 152.783203125 142 152.783203125 142 183.719726562 276 c 0,8,9
 214.424804688 409 214.424804688 409 197.165039062 501 c 128,-1,10
 179.905273438 593 179.905273438 593 108.8359375 675 c 1,11,-1
 192.303710938 742 l 1,0,1
EndSplineSet
Substitution2: "'case' Case-Sensitive Forms lookup 29 subtable" parenright.case
Substitution2: "'sups' Superscript lookup 15 subtable" uni207E
Substitution2: "'subs' Subscript lookup 14 subtable" uni208E
Substitution2: "'sinf' Scientific Inferiors lookup 13 subtable" uni208E
AlternateSubs2: "'aalt' Access All Alternates lookup 1 subtable" uni208E uni207E parenright.case
EndChar

StartChar: asterisk
Encoding: 42 42 13
Width: 582
GlyphClass: 2
Flags: W
LayerCount: 2
Fore
SplineSet
396.584960938 466 m 1,0,-1
 430.657226562 423 l 1,1,-1
 484.416015625 318 l 1,2,-1
 389.794921875 259 l 1,3,-1
 338.498046875 366 l 1,4,-1
 324.1953125 421 l 1,5,-1
 284.498046875 366 l 1,6,-1
 183.794921875 259 l 1,7,-1
 116.416015625 318 l 1,8,-1
 219.657226562 423 l 1,9,-1
 272.584960938 466 l 1,10,-1
 214.662109375 475 l 1,11,-1
 98.666015625 514 l 1,12,-1
 150.598632812 609 l 1,13,-1
 265.90234375 567 l 1,14,-1
 313.20703125 538 l 1,15,-1
 317.290039062 599 l 1,16,-1
 344.534179688 730 l 1,17,-1
 445.534179688 730 l 1,18,-1
 413.290039062 599 l 1,19,-1
 389.20703125 538 l 1,20,-1
 449.90234375 567 l 1,21,-1
 584.598632812 609 l 1,22,-1
 592.666015625 514 l 1,23,-1
 458.662109375 475 l 1,24,-1
 396.584960938 466 l 1,0,-1
EndSplineSet
EndChar

StartChar: plus
Encoding: 43 43 14
Width: 604
GlyphClass: 2
Flags: W
LayerCount: 2
Fore
SplineSet
572.344726562 374 m 1,0,-1
 548.333984375 270 l 1,1,-1
 357.333984375 270 l 1,2,-1
 309.544921875 63 l 1,3,-1
 196.544921875 63 l 1,4,-1
 244.333984375 270 l 1,5,-1
 52.333984375 270 l 1,6,-1
 76.3447265625 374 l 1,7,-1
 268.344726562 374 l 1,8,-1
 315.903320312 580 l 1,9,-1
 428.903320312 580 l 1,10,-1
 381.344726562 374 l 1,11,-1
 572.344726562 374 l 1,0,-1
EndSplineSet
Substitution2: "'sups' Superscript lookup 15 subtable" uni207A
Substitution2: "'subs' Subscript lookup 14 subtable" uni208A
Substitution2: "'sinf' Scientific Inferiors lookup 13 subtable" uni208A
AlternateSubs2: "'aalt' Access All Alternates lookup 1 subtable" uni208A uni207A
EndChar

StartChar: comma
Encoding: 44 44 15
Width: 304
GlyphClass: 2
Flags: W
LayerCount: 2
Fore
SplineSet
123.323242188 153 m 0,0,1
 169.323242188 153 169.323242188 153 186.819335938 120.5 c 128,-1,2
 204.31640625 88 204.31640625 88 192.311523438 36 c 0,3,4
 178.228515625 -25 178.228515625 -25 134.069335938 -75.5 c 128,-1,5
 89.91015625 -126 89.91015625 -126 20.4462890625 -154 c 1,6,-1
 -31.4716796875 -106 l 1,7,8
 69.6083984375 -71 69.6083984375 -71 106.76953125 -1 c 1,9,-1
 103.461914062 2 l 1,10,11
 89.1533203125 -8 89.1533203125 -8 71.1533203125 -8 c 0,12,13
 43.1533203125 -8 43.1533203125 -8 25.7705078125 12 c 128,-1,14
 8.3876953125 32 8.3876953125 32 16.9296875 69 c 0,15,16
 25.93359375 108 25.93359375 108 55.1279296875 130.5 c 128,-1,17
 84.3232421875 153 84.3232421875 153 123.323242188 153 c 0,0,1
EndSplineSet
Substitution2: "'tnum' Tabular Numbers lookup 26 subtable" comma.tf
Substitution2: "'sups' Superscript lookup 15 subtable" commasuperior
Substitution2: "'subs' Subscript lookup 14 subtable" commainferior
Substitution2: "'sinf' Scientific Inferiors lookup 13 subtable" commainferior
AlternateSubs2: "'aalt' Access All Alternates lookup 1 subtable" commainferior commasuperior comma.tf
EndChar

StartChar: hyphen
Encoding: 45 45 16
Width: 521
GlyphClass: 2
Flags: W
LayerCount: 2
Fore
SplineSet
447.801757812 324 m 1,0,-1
 420.55859375 206 l 1,1,-1
 67.55859375 206 l 1,2,-1
 94.8017578125 324 l 1,3,-1
 447.801757812 324 l 1,0,-1
EndSplineSet
Substitution2: "'case' Case-Sensitive Forms lookup 29 subtable" hyphen.case
Substitution2: "'sups' Superscript lookup 15 subtable" hyphensuperior
Substitution2: "'subs' Subscript lookup 14 subtable" hypheninferior
Substitution2: "'sinf' Scientific Inferiors lookup 13 subtable" hypheninferior
AlternateSubs2: "'aalt' Access All Alternates lookup 1 subtable" hypheninferior hyphensuperior hyphen.case
EndChar

StartChar: period
Encoding: 46 46 17
Width: 302
GlyphClass: 2
Flags: W
LayerCount: 2
Fore
SplineSet
122.323242188 153 m 128,-1,1
 162.323242188 153 162.323242188 153 180.859375 131.5 c 128,-1,2
 199.395507812 110 199.395507812 110 190.622070312 72 c 128,-1,3
 181.849609375 34 181.849609375 34 153.385742188 12.5 c 128,-1,4
 124.921875 -9 124.921875 -9 84.921875 -9 c 128,-1,5
 44.921875 -9 44.921875 -9 26.3857421875 12.5 c 128,-1,6
 7.849609375 34 7.849609375 34 16.6220703125 72 c 128,-1,7
 25.3955078125 110 25.3955078125 110 53.859375 131.5 c 128,-1,0
 82.3232421875 153 82.3232421875 153 122.323242188 153 c 128,-1,1
EndSplineSet
Substitution2: "'tnum' Tabular Numbers lookup 26 subtable" period.tf
Substitution2: "'sups' Superscript lookup 15 subtable" periodsuperior
Substitution2: "'subs' Subscript lookup 14 subtable" periodinferior
Substitution2: "'sinf' Scientific Inferiors lookup 13 subtable" periodinferior
AlternateSubs2: "'aalt' Access All Alternates lookup 1 subtable" periodinferior periodsuperior period.tf
EndChar

StartChar: slash
Encoding: 47 47 18
Width: 457
GlyphClass: 2
Flags: W
LayerCount: 2
Fore
SplineSet
538.994140625 719 m 1,0,-1
 66.8388671875 -70 l 1,1,-1
 -60.1611328125 -70 l 1,2,-1
 410.994140625 719 l 1,3,-1
 538.994140625 719 l 1,0,-1
EndSplineSet
Substitution2: "'frac' Diagonal Fractions lookup 18 subtable" fraction
Substitution2: "'aalt' Access All Alternates lookup 0 subtable" fraction
EndChar

StartChar: zero
Encoding: 48 48 19
Width: 604
GlyphClass: 2
Flags: W
LayerCount: 2
Fore
SplineSet
235.69140625 -10 m 128,-1,1
 108.69140625 -10 108.69140625 -10 63.1611328125 76.5 c 128,-1,2
 17.6318359375 163 17.6318359375 163 56.1865234375 330 c 128,-1,3
 94.7412109375 497 94.7412109375 497 180.211914062 583.5 c 128,-1,4
 265.681640625 670 265.681640625 670 392.681640625 670 c 128,-1,5
 519.681640625 670 519.681640625 670 565.211914062 583.5 c 128,-1,6
 610.741210938 497 610.741210938 497 572.186523438 330 c 128,-1,7
 533.631835938 163 533.631835938 163 448.161132812 76.5 c 128,-1,0
 362.69140625 -10 362.69140625 -10 235.69140625 -10 c 128,-1,1
261.317382812 101 m 128,-1,9
 323.317382812 101 323.317382812 101 366.130859375 156.5 c 128,-1,10
 408.944335938 212 408.944335938 212 436.186523438 330 c 128,-1,11
 463.428710938 448 463.428710938 448 446.2421875 503.5 c 128,-1,12
 429.055664062 559 429.055664062 559 367.055664062 559 c 128,-1,13
 305.055664062 559 305.055664062 559 262.2421875 503.5 c 128,-1,14
 219.428710938 448 219.428710938 448 192.186523438 330 c 128,-1,15
 164.944335938 212 164.944335938 212 182.130859375 156.5 c 128,-1,8
 199.317382812 101 199.317382812 101 261.317382812 101 c 128,-1,9
EndSplineSet
Substitution2: "'zero' Slashed Zero lookup 28 subtable" zero.zero
Substitution2: "'onum' Oldstyle Figures lookup 27 subtable" zero.osf
Substitution2: "'tnum' Tabular Numbers lookup 26 subtable" zero.tf
Substitution2: "'frac' Diagonal Fractions lookup 19 subtable" zero.numr
Substitution2: "'dnom' Denominators lookup 17 subtable" zero.dnom
Substitution2: "'numr' Numerators lookup 16 subtable" zero.numr
Substitution2: "'sups' Superscript lookup 15 subtable" uni2070
Substitution2: "'subs' Subscript lookup 14 subtable" uni2080
Substitution2: "'sinf' Scientific Inferiors lookup 13 subtable" uni2080
Substitution2: "'smcp' Lowercase to Small Capitals lookup 12 subtable" zero.sc
Substitution2: "'c2sc' Capitals to Small Capitals lookup 11 subtable" zero.sc
AlternateSubs2: "'aalt' Access All Alternates lookup 1 subtable" zero.sc uni2080 uni2070 zero.numr zero.dnom zero.tf zero.osf zero.zero
EndChar

StartChar: one
Encoding: 49 49 20
Width: 604
GlyphClass: 2
Flags: W
LayerCount: 2
Fore
SplineSet
365.165039062 109 m 1,0,-1
 530.165039062 109 l 1,1,-1
 505 0 l 1,2,-1
 25 0 l 1,3,-1
 50.1650390625 109 l 1,4,-1
 236.165039062 109 l 1,5,-1
 324.125 490 l 2,6,7
 329.435546875 513 329.435546875 513 333.436523438 526 c 1,8,9
 230.890625 450 230.890625 450 135.427734375 435 c 1,10,-1
 143.053710938 546 l 1,11,12
 191.208007812 551 191.208007812 551 269.134765625 587.5 c 128,-1,13
 347.061523438 624 347.061523438 624 380.373046875 660 c 1,14,-1
 492.373046875 660 l 1,15,-1
 365.165039062 109 l 1,0,-1
EndSplineSet
Substitution2: "'onum' Oldstyle Figures lookup 27 subtable" one.osf
Substitution2: "'tnum' Tabular Numbers lookup 26 subtable" one.tf
Substitution2: "'nalt' Alternate Annotation Forms lookup 23 subtable" uni2780
Substitution2: "'frac' Diagonal Fractions lookup 19 subtable" one.numr
Substitution2: "'dnom' Denominators lookup 17 subtable" one.dnom
Substitution2: "'numr' Numerators lookup 16 subtable" one.numr
Substitution2: "'sups' Superscript lookup 15 subtable" uni00B9
Substitution2: "'subs' Subscript lookup 14 subtable" uni2081
Substitution2: "'sinf' Scientific Inferiors lookup 13 subtable" uni2081
Substitution2: "'smcp' Lowercase to Small Capitals lookup 12 subtable" one.sc
Substitution2: "'c2sc' Capitals to Small Capitals lookup 11 subtable" one.sc
AlternateSubs2: "'aalt' Access All Alternates lookup 1 subtable" one.sc uni2081 uni00B9 one.numr one.dnom uni2780 one.tf one.osf
EndChar

StartChar: two
Encoding: 50 50 21
Width: 604
GlyphClass: 2
Flags: W
LayerCount: 2
Fore
SplineSet
3 0 m 1,0,-1
 24.701171875 94 l 1,1,2
 231.174804688 213 231.174804688 213 323.990234375 294.5 c 128,-1,3
 416.806640625 376 416.806640625 376 434.352539062 452 c 0,4,5
 445.203125 499 445.203125 499 423.3984375 528 c 128,-1,6
 401.59375 557 401.59375 557 350.59375 557 c 0,7,8
 295.59375 557 295.59375 557 255.3203125 519 c 128,-1,9
 215.047851562 481 215.047851562 481 195.88671875 411 c 1,10,-1
 87.2763671875 456 l 1,11,12
 116.362304688 556 116.362304688 556 196.522460938 613 c 128,-1,13
 276.681640625 670 276.681640625 670 384.681640625 670 c 0,14,15
 498.681640625 670 498.681640625 670 547.098632812 609 c 128,-1,16
 595.515625 548 595.515625 548 575.19921875 460 c 0,17,18
 553.728515625 367 553.728515625 367 464.681640625 284.5 c 128,-1,19
 375.635742188 202 375.635742188 202 200.93359375 108 c 1,20,-1
 200.703125 107 l 1,21,22
 259.625976562 111 259.625976562 111 322.625976562 111 c 2,23,-1
 504.625976562 111 l 1,24,-1
 479 0 l 1,25,-1
 3 0 l 1,0,-1
EndSplineSet
Substitution2: "'onum' Oldstyle Figures lookup 27 subtable" two.osf
Substitution2: "'tnum' Tabular Numbers lookup 26 subtable" two.tf
Substitution2: "'nalt' Alternate Annotation Forms lookup 23 subtable" uni2781
Substitution2: "'frac' Diagonal Fractions lookup 19 subtable" two.numr
Substitution2: "'dnom' Denominators lookup 17 subtable" two.dnom
Substitution2: "'numr' Numerators lookup 16 subtable" two.numr
Substitution2: "'sups' Superscript lookup 15 subtable" uni00B2
Substitution2: "'subs' Subscript lookup 14 subtable" uni2082
Substitution2: "'sinf' Scientific Inferiors lookup 13 subtable" uni2082
Substitution2: "'smcp' Lowercase to Small Capitals lookup 12 subtable" two.sc
Substitution2: "'c2sc' Capitals to Small Capitals lookup 11 subtable" two.sc
AlternateSubs2: "'aalt' Access All Alternates lookup 1 subtable" two.sc uni2082 uni00B2 two.numr two.dnom uni2781 two.tf two.osf
EndChar

StartChar: three
Encoding: 51 51 22
Width: 604
GlyphClass: 2
Flags: W
LayerCount: 2
Fore
SplineSet
398.681640625 670 m 0,0,1
 503.681640625 670 503.681640625 670 550.638671875 620 c 128,-1,2
 597.594726562 570 597.594726562 570 579.125 490 c 0,3,4
 562.502929688 418 562.502929688 418 512.306640625 376 c 128,-1,5
 462.110351562 334 462.110351562 334 419.110351562 334 c 1,6,-1
 418.416992188 331 l 1,7,8
 471.416992188 331 471.416992188 331 504.797851562 291.5 c 128,-1,9
 538.178710938 252 538.178710938 252 521.325195312 179 c 0,10,11
 501.932617188 95 501.932617188 95 421.311523438 42.5 c 128,-1,12
 340.69140625 -10 340.69140625 -10 232.69140625 -10 c 0,13,14
 39.69140625 -10 39.69140625 -10 22.091796875 152 c 1,15,-1
 161.482421875 210 l 1,16,17
 157.323242188 153 157.323242188 153 180.3203125 127 c 128,-1,18
 203.317382812 101 203.317382812 101 258.317382812 101 c 0,19,20
 309.317382812 101 309.317382812 101 345.55078125 128 c 128,-1,21
 381.784179688 155 381.784179688 155 390.711914062 198 c 0,22,23
 400.100585938 243 400.100585938 243 376.102539062 262.5 c 128,-1,24
 352.104492188 282 352.104492188 282 293.104492188 282 c 2,25,-1
 260.104492188 282 l 1,26,-1
 282.268554688 378 l 1,27,-1
 311.268554688 378 l 2,28,29
 417.268554688 378 417.268554688 378 437.584960938 466 c 0,30,31
 448.973632812 511 448.973632812 511 430.014648438 535 c 128,-1,32
 411.055664062 559 411.055664062 559 366.055664062 559 c 0,33,34
 269.055664062 559 269.055664062 559 234.353515625 465 c 1,35,-1
 122.743164062 510 l 1,36,37
 159.981445312 589 159.981445312 589 233.331054688 629.5 c 128,-1,38
 306.681640625 670 306.681640625 670 398.681640625 670 c 0,0,1
EndSplineSet
Substitution2: "'onum' Oldstyle Figures lookup 27 subtable" three.osf
Substitution2: "'tnum' Tabular Numbers lookup 26 subtable" three.tf
Substitution2: "'nalt' Alternate Annotation Forms lookup 23 subtable" uni2782
Substitution2: "'frac' Diagonal Fractions lookup 19 subtable" three.numr
Substitution2: "'dnom' Denominators lookup 17 subtable" three.dnom
Substitution2: "'numr' Numerators lookup 16 subtable" three.numr
Substitution2: "'sups' Superscript lookup 15 subtable" uni00B3
Substitution2: "'subs' Subscript lookup 14 subtable" uni2083
Substitution2: "'sinf' Scientific Inferiors lookup 13 subtable" uni2083
Substitution2: "'smcp' Lowercase to Small Capitals lookup 12 subtable" three.sc
Substitution2: "'c2sc' Capitals to Small Capitals lookup 11 subtable" three.sc
AlternateSubs2: "'aalt' Access All Alternates lookup 1 subtable" three.sc uni2083 uni00B3 three.numr three.dnom uni2782 three.tf three.osf
EndChar

StartChar: four
Encoding: 52 52 23
Width: 604
GlyphClass: 2
Flags: W
LayerCount: 2
Fore
SplineSet
271 0 m 1,0,-1
 305.629882812 150 l 1,1,-1
 -0.3701171875 150 l 1,2,-1
 17.6376953125 228 l 1,3,-1
 379.373046875 660 l 1,4,-1
 548.373046875 660 l 1,5,-1
 454.87109375 255 l 1,6,-1
 573.87109375 255 l 1,7,-1
 549.629882812 150 l 1,8,-1
 430.629882812 150 l 1,9,-1
 396 0 l 1,10,-1
 271 0 l 1,0,-1
147.87109375 255 m 1,11,-1
 332.87109375 255 l 1,12,-1
 369.118164062 412 l 2,13,14
 380.430664062 461 380.430664062 461 405.516601562 561 c 1,15,-1
 403.516601562 561 l 1,16,17
 367.28125 508 367.28125 508 334.5078125 470 c 2,18,-1
 147.87109375 255 l 1,11,-1
EndSplineSet
Substitution2: "'onum' Oldstyle Figures lookup 27 subtable" four.osf
Substitution2: "'tnum' Tabular Numbers lookup 26 subtable" four.tf
Substitution2: "'nalt' Alternate Annotation Forms lookup 23 subtable" uni2783
Substitution2: "'frac' Diagonal Fractions lookup 19 subtable" four.numr
Substitution2: "'dnom' Denominators lookup 17 subtable" four.dnom
Substitution2: "'numr' Numerators lookup 16 subtable" four.numr
Substitution2: "'sups' Superscript lookup 15 subtable" uni2074
Substitution2: "'subs' Subscript lookup 14 subtable" uni2084
Substitution2: "'sinf' Scientific Inferiors lookup 13 subtable" uni2084
Substitution2: "'smcp' Lowercase to Small Capitals lookup 12 subtable" four.sc
Substitution2: "'c2sc' Capitals to Small Capitals lookup 11 subtable" four.sc
AlternateSubs2: "'aalt' Access All Alternates lookup 1 subtable" four.sc uni2084 uni2074 four.numr four.dnom uni2783 four.tf four.osf
EndChar

StartChar: five
Encoding: 53 53 24
Width: 604
GlyphClass: 2
Flags: W
LayerCount: 2
Fore
SplineSet
374.119140625 425 m 0,0,1
 470.119140625 425 470.119140625 425 512.575195312 368.5 c 128,-1,2
 555.03125 312 555.03125 312 533.791015625 220 c 0,3,4
 508.165039062 109 508.165039062 109 426.427734375 49.5 c 128,-1,5
 344.69140625 -10 344.69140625 -10 235.69140625 -10 c 0,6,7
 146.69140625 -10 146.69140625 -10 93.92578125 23.5 c 128,-1,8
 41.1591796875 57 41.1591796875 57 19.7822265625 129 c 1,9,-1
 159.711914062 198 l 1,10,11
 161.399414062 149 161.399414062 149 182.743164062 124.5 c 128,-1,12
 204.086914062 100 204.086914062 100 260.086914062 100 c 0,13,14
 315.086914062 100 315.086914062 100 353.282226562 129 c 128,-1,15
 391.477539062 158 391.477539062 158 403.712890625 211 c 0,16,17
 427.33984375 322 427.33984375 322 314.33984375 322 c 0,18,19
 231.33984375 322 231.33984375 322 182.2578125 274 c 1,20,-1
 77.0283203125 286 l 1,21,-1
 204.373046875 660 l 1,22,-1
 601.373046875 660 l 1,23,-1
 575.747070312 549 l 1,24,-1
 282.747070312 549 l 1,25,-1
 227.961914062 394 l 2,26,27
 222.729492188 380 222.729492188 380 219.575195312 375 c 1,28,-1
 220.575195312 375 l 1,29,30
 279.119140625 425 279.119140625 425 374.119140625 425 c 0,0,1
EndSplineSet
Substitution2: "'onum' Oldstyle Figures lookup 27 subtable" five.osf
Substitution2: "'tnum' Tabular Numbers lookup 26 subtable" five.tf
Substitution2: "'nalt' Alternate Annotation Forms lookup 23 subtable" uni2784
Substitution2: "'frac' Diagonal Fractions lookup 19 subtable" five.numr
Substitution2: "'dnom' Denominators lookup 17 subtable" five.dnom
Substitution2: "'numr' Numerators lookup 16 subtable" five.numr
Substitution2: "'sups' Superscript lookup 15 subtable" uni2075
Substitution2: "'subs' Subscript lookup 14 subtable" uni2085
Substitution2: "'sinf' Scientific Inferiors lookup 13 subtable" uni2085
Substitution2: "'smcp' Lowercase to Small Capitals lookup 12 subtable" five.sc
Substitution2: "'c2sc' Capitals to Small Capitals lookup 11 subtable" five.sc
AlternateSubs2: "'aalt' Access All Alternates lookup 1 subtable" five.sc uni2085 uni2075 five.numr five.dnom uni2784 five.tf five.osf
EndChar

StartChar: six
Encoding: 54 54 25
Width: 604
GlyphClass: 2
Flags: W
LayerCount: 2
Fore
SplineSet
421.681640625 670 m 0,0,1
 589.681640625 670 589.681640625 670 611.436523438 526 c 1,2,-1
 482.969726562 472 l 1,3,4
 478.362304688 556 478.362304688 556 387.362304688 556 c 0,5,6
 325.362304688 556 325.362304688 556 272.048828125 494 c 128,-1,7
 218.735351562 432 218.735351562 432 195.6484375 332 c 2,8,-1
 191.4921875 314 l 1,9,-1
 194.4921875 314 l 1,10,11
 220.57421875 362 220.57421875 362 273.4609375 387.5 c 128,-1,12
 326.348632812 413 326.348632812 413 385.348632812 413 c 0,13,14
 480.348632812 413 480.348632812 413 525.3046875 356.5 c 128,-1,15
 570.260742188 300 570.260742188 300 548.328125 205 c 0,16,17
 525.471679688 106 525.471679688 106 448.58203125 48 c 128,-1,18
 371.69140625 -10 371.69140625 -10 261.69140625 -10 c 0,19,20
 131.69140625 -10 131.69140625 -10 82.5849609375 80.5 c 128,-1,21
 33.478515625 171 33.478515625 171 70.1865234375 330 c 0,22,23
 108.279296875 495 108.279296875 495 203.98046875 582.5 c 128,-1,24
 299.681640625 670 299.681640625 670 421.681640625 670 c 0,0,1
333.03125 312 m 0,25,26
 283.03125 312 283.03125 312 245.8359375 283 c 128,-1,27
 208.640625 254 208.640625 254 197.790039062 207 c 0,28,29
 186.477539062 158 186.477539062 158 209.782226562 129 c 128,-1,30
 233.086914062 100 233.086914062 100 284.086914062 100 c 0,31,32
 337.086914062 100 337.086914062 100 372.55078125 128 c 128,-1,33
 408.015625 156 408.015625 156 419.790039062 207 c 0,34,35
 431.102539062 256 431.102539062 256 408.06640625 284 c 128,-1,36
 385.03125 312 385.03125 312 333.03125 312 c 0,25,26
EndSplineSet
Substitution2: "'onum' Oldstyle Figures lookup 27 subtable" six.osf
Substitution2: "'tnum' Tabular Numbers lookup 26 subtable" six.tf
Substitution2: "'nalt' Alternate Annotation Forms lookup 23 subtable" uni2785
Substitution2: "'frac' Diagonal Fractions lookup 19 subtable" six.numr
Substitution2: "'dnom' Denominators lookup 17 subtable" six.dnom
Substitution2: "'numr' Numerators lookup 16 subtable" six.numr
Substitution2: "'sups' Superscript lookup 15 subtable" uni2076
Substitution2: "'subs' Subscript lookup 14 subtable" uni2086
Substitution2: "'sinf' Scientific Inferiors lookup 13 subtable" uni2086
Substitution2: "'smcp' Lowercase to Small Capitals lookup 12 subtable" six.sc
Substitution2: "'c2sc' Capitals to Small Capitals lookup 11 subtable" six.sc
AlternateSubs2: "'aalt' Access All Alternates lookup 1 subtable" six.sc uni2086 uni2076 six.numr six.dnom uni2785 six.tf six.osf
EndChar

StartChar: seven
Encoding: 55 55 26
Width: 604
GlyphClass: 2
Flags: W
LayerCount: 2
Fore
SplineSet
131.373046875 660 m 1,0,-1
 655.373046875 660 l 1,1,-1
 631.131835938 555 l 1,2,3
 478.811523438 428 478.811523438 428 397.491210938 301 c 128,-1,4
 316.170898438 174 316.170898438 174 276 0 c 1,5,-1
 137 0 l 1,6,7
 208.799804688 311 208.799804688 311 496.28515625 547 c 1,8,-1
 105.28515625 547 l 1,9,-1
 131.373046875 660 l 1,0,-1
EndSplineSet
Substitution2: "'onum' Oldstyle Figures lookup 27 subtable" seven.osf
Substitution2: "'tnum' Tabular Numbers lookup 26 subtable" seven.tf
Substitution2: "'nalt' Alternate Annotation Forms lookup 23 subtable" uni2786
Substitution2: "'frac' Diagonal Fractions lookup 19 subtable" seven.numr
Substitution2: "'dnom' Denominators lookup 17 subtable" seven.dnom
Substitution2: "'numr' Numerators lookup 16 subtable" seven.numr
Substitution2: "'sups' Superscript lookup 15 subtable" uni2077
Substitution2: "'subs' Subscript lookup 14 subtable" uni2087
Substitution2: "'sinf' Scientific Inferiors lookup 13 subtable" uni2087
Substitution2: "'smcp' Lowercase to Small Capitals lookup 12 subtable" seven.sc
Substitution2: "'c2sc' Capitals to Small Capitals lookup 11 subtable" seven.sc
AlternateSubs2: "'aalt' Access All Alternates lookup 1 subtable" seven.sc uni2087 uni2077 seven.numr seven.dnom uni2786 seven.tf seven.osf
EndChar

StartChar: eight
Encoding: 56 56 27
Width: 604
GlyphClass: 2
Flags: W
LayerCount: 2
Fore
SplineSet
392.219726562 668 m 128,-1,1
 496.219726562 668 496.219726562 668 545.638671875 620 c 128,-1,2
 595.056640625 572 595.056640625 572 575.6640625 488 c 0,3,4
 564.120117188 438 564.120117188 438 529.34765625 400 c 128,-1,5
 494.57421875 362 494.57421875 362 444.95703125 342 c 1,6,-1
 444.725585938 341 l 1,7,8
 553.336914062 296 553.336914062 296 526.556640625 180 c 0,9,10
 506.240234375 92 506.240234375 92 427.965820312 41 c 128,-1,11
 349.69140625 -10 349.69140625 -10 235.69140625 -10 c 128,-1,12
 121.69140625 -10 121.69140625 -10 66.9658203125 41 c 128,-1,13
 12.240234375 92 12.240234375 92 32.556640625 180 c 0,14,15
 45.7158203125 237 45.7158203125 237 86.796875 278.5 c 128,-1,16
 127.877929688 320 127.877929688 320 189.725585938 341 c 1,17,-1
 189.95703125 342 l 1,18,19
 149.34375 361 149.34375 361 131.616210938 399 c 128,-1,20
 113.889648438 437 113.889648438 437 125.6640625 488 c 0,21,22
 145.056640625 572 145.056640625 572 216.638671875 620 c 128,-1,0
 288.219726562 668 288.219726562 668 392.219726562 668 c 128,-1,1
367.748046875 562 m 128,-1,24
 321.748046875 562 321.748046875 562 290.553710938 539.5 c 128,-1,25
 259.358398438 517 259.358398438 517 249.662109375 475 c 0,26,27
 240.427734375 435 240.427734375 435 261.618164062 412 c 128,-1,28
 282.807617188 389 282.807617188 389 327.807617188 389 c 128,-1,29
 372.807617188 389 372.807617188 389 404.618164062 412 c 128,-1,30
 436.427734375 435 436.427734375 435 445.662109375 475 c 0,31,32
 455.358398438 517 455.358398438 517 434.553710938 539.5 c 128,-1,23
 413.748046875 562 413.748046875 562 367.748046875 562 c 128,-1,24
260.163085938 96 m 0,33,34
 315.163085938 96 315.163085938 96 351.55078125 121.5 c 128,-1,35
 387.9375 147 387.9375 147 398.327148438 192 c 0,36,37
 408.946289062 238 408.946289062 238 383.833984375 263.5 c 128,-1,38
 358.720703125 289 358.720703125 289 304.720703125 289 c 0,39,40
 251.720703125 289 251.720703125 289 214.71875 263 c 128,-1,41
 177.715820312 237 177.715820312 237 167.327148438 192 c 128,-1,42
 156.9375 147 156.9375 147 182.05078125 121.5 c 128,-1,43
 207.163085938 96 207.163085938 96 260.163085938 96 c 0,33,34
EndSplineSet
Substitution2: "'onum' Oldstyle Figures lookup 27 subtable" eight.osf
Substitution2: "'tnum' Tabular Numbers lookup 26 subtable" eight.tf
Substitution2: "'nalt' Alternate Annotation Forms lookup 23 subtable" uni2787
Substitution2: "'frac' Diagonal Fractions lookup 19 subtable" eight.numr
Substitution2: "'dnom' Denominators lookup 17 subtable" eight.dnom
Substitution2: "'numr' Numerators lookup 16 subtable" eight.numr
Substitution2: "'sups' Superscript lookup 15 subtable" uni2078
Substitution2: "'subs' Subscript lookup 14 subtable" uni2088
Substitution2: "'sinf' Scientific Inferiors lookup 13 subtable" uni2088
Substitution2: "'smcp' Lowercase to Small Capitals lookup 12 subtable" eight.sc
Substitution2: "'c2sc' Capitals to Small Capitals lookup 11 subtable" eight.sc
AlternateSubs2: "'aalt' Access All Alternates lookup 1 subtable" eight.sc uni2088 uni2078 eight.numr eight.dnom uni2787 eight.tf eight.osf
EndChar

StartChar: nine
Encoding: 57 57 28
Width: 604
GlyphClass: 2
Flags: W
LayerCount: 2
Fore
SplineSet
377.681640625 670 m 0,0,1
 503.681640625 670 503.681640625 670 552.403320312 580 c 128,-1,2
 601.125 490 601.125 490 563.724609375 328 c 0,3,4
 485.69140625 -10 485.69140625 -10 218.69140625 -10 c 0,5,6
 39.69140625 -10 39.69140625 -10 14.3984375 136 c 1,7,-1
 154.865234375 190 l 1,8,9
 157.245117188 144 157.245117188 144 177.166015625 122 c 128,-1,10
 197.086914062 100 197.086914062 100 248.086914062 100 c 0,11,12
 323.086914062 100 323.086914062 100 368.861328125 157.5 c 128,-1,13
 414.63671875 215 414.63671875 215 440.032226562 325 c 2,14,-1
 443.264648438 339 l 1,15,-1
 440.264648438 339 l 1,16,17
 390.408203125 240 390.408203125 240 251.946289062 238 c 0,18,19
 154.485351562 236 154.485351562 236 107.759765625 293.5 c 128,-1,20
 61.03515625 351 61.03515625 351 83.890625 450 c 0,21,22
 107.439453125 552 107.439453125 552 186.060546875 611 c 128,-1,23
 264.681640625 670 264.681640625 670 377.681640625 670 c 0,0,1
350.59375 557 m 0,24,25
 297.59375 557 297.59375 557 262.12890625 529 c 128,-1,26
 226.665039062 501 226.665039062 501 214.890625 450 c 0,27,28
 203.34765625 400 203.34765625 400 225.8828125 372 c 128,-1,29
 248.418945312 344 248.418945312 344 301.418945312 344 c 0,30,31
 351.418945312 344 351.418945312 344 388.114257812 373 c 128,-1,32
 424.80859375 402 424.80859375 402 435.890625 450 c 0,33,34
 447.203125 499 447.203125 499 423.8984375 528 c 128,-1,35
 400.59375 557 400.59375 557 350.59375 557 c 0,24,25
EndSplineSet
Substitution2: "'onum' Oldstyle Figures lookup 27 subtable" nine.osf
Substitution2: "'tnum' Tabular Numbers lookup 26 subtable" nine.tf
Substitution2: "'nalt' Alternate Annotation Forms lookup 23 subtable" uni2788
Substitution2: "'frac' Diagonal Fractions lookup 19 subtable" nine.numr
Substitution2: "'dnom' Denominators lookup 17 subtable" nine.dnom
Substitution2: "'numr' Numerators lookup 16 subtable" nine.numr
Substitution2: "'sups' Superscript lookup 15 subtable" uni2079
Substitution2: "'subs' Subscript lookup 14 subtable" uni2089
Substitution2: "'sinf' Scientific Inferiors lookup 13 subtable" uni2089
Substitution2: "'smcp' Lowercase to Small Capitals lookup 12 subtable" nine.sc
Substitution2: "'c2sc' Capitals to Small Capitals lookup 11 subtable" nine.sc
AlternateSubs2: "'aalt' Access All Alternates lookup 1 subtable" nine.sc uni2089 uni2079 nine.numr nine.dnom uni2788 nine.tf nine.osf
EndChar

StartChar: colon
Encoding: 58 58 29
Width: 302
GlyphClass: 2
Flags: W
LayerCount: 2
Fore
SplineSet
204.743164062 510 m 128,-1,1
 244.743164062 510 244.743164062 510 263.279296875 488.5 c 128,-1,2
 281.815429688 467 281.815429688 467 273.041992188 429 c 128,-1,3
 264.26953125 391 264.26953125 391 235.805664062 369.5 c 128,-1,4
 207.341796875 348 207.341796875 348 167.341796875 348 c 128,-1,5
 127.341796875 348 127.341796875 348 108.805664062 369.5 c 128,-1,6
 90.26953125 391 90.26953125 391 99.0419921875 429 c 128,-1,7
 107.815429688 467 107.815429688 467 136.279296875 488.5 c 128,-1,0
 164.743164062 510 164.743164062 510 204.743164062 510 c 128,-1,1
122.323242188 153 m 128,-1,9
 162.323242188 153 162.323242188 153 180.859375 131.5 c 128,-1,10
 199.395507812 110 199.395507812 110 190.622070312 72 c 128,-1,11
 181.849609375 34 181.849609375 34 153.385742188 12.5 c 128,-1,12
 124.921875 -9 124.921875 -9 84.921875 -9 c 128,-1,13
 44.921875 -9 44.921875 -9 26.3857421875 12.5 c 128,-1,14
 7.849609375 34 7.849609375 34 16.6220703125 72 c 128,-1,15
 25.3955078125 110 25.3955078125 110 53.859375 131.5 c 128,-1,8
 82.3232421875 153 82.3232421875 153 122.323242188 153 c 128,-1,9
EndSplineSet
Substitution2: "'tnum' Tabular Numbers lookup 26 subtable" colon.tf
Substitution2: "'sups' Superscript lookup 15 subtable" colonsuperior
Substitution2: "'subs' Subscript lookup 14 subtable" coloninferior
Substitution2: "'sinf' Scientific Inferiors lookup 13 subtable" coloninferior
AlternateSubs2: "'aalt' Access All Alternates lookup 1 subtable" coloninferior colonsuperior colon.tf
EndChar

StartChar: semicolon
Encoding: 59 59 30
Width: 302
GlyphClass: 2
Flags: W
LayerCount: 2
Fore
SplineSet
170.341796875 348 m 0,0,1
 130.341796875 348 130.341796875 348 111.920898438 370 c 128,-1,2
 93.5 392 93.5 392 102.041992188 429 c 128,-1,3
 110.584960938 466 110.584960938 466 139.1640625 488 c 128,-1,4
 167.743164062 510 167.743164062 510 207.743164062 510 c 0,5,6
 248.743164062 510 248.743164062 510 267.1640625 488 c 128,-1,7
 285.584960938 466 285.584960938 466 277.041992188 429 c 128,-1,8
 268.5 392 268.5 392 239.920898438 370 c 128,-1,9
 211.341796875 348 211.341796875 348 170.341796875 348 c 0,0,1
122.323242188 153 m 0,10,11
 168.323242188 153 168.323242188 153 185.819335938 120.5 c 128,-1,12
 203.31640625 88 203.31640625 88 191.311523438 36 c 0,13,14
 177.228515625 -25 177.228515625 -25 133.069335938 -75.5 c 128,-1,15
 88.91015625 -126 88.91015625 -126 19.4462890625 -154 c 1,16,-1
 -32.4716796875 -106 l 1,17,18
 67.6083984375 -71 67.6083984375 -71 106.76953125 -1 c 1,19,-1
 102.461914062 2 l 1,20,21
 90.1533203125 -8 90.1533203125 -8 71.1533203125 -8 c 0,22,23
 42.1533203125 -8 42.1533203125 -8 24.7705078125 12 c 128,-1,24
 7.3876953125 32 7.3876953125 32 15.9296875 69 c 0,25,26
 24.93359375 108 24.93359375 108 54.1279296875 130.5 c 128,-1,27
 83.3232421875 153 83.3232421875 153 122.323242188 153 c 0,10,11
EndSplineSet
Substitution2: "'tnum' Tabular Numbers lookup 26 subtable" semicolon.tf
Substitution2: "'aalt' Access All Alternates lookup 0 subtable" semicolon.tf
EndChar

StartChar: less
Encoding: 60 60 31
Width: 604
GlyphClass: 2
Flags: W
LayerCount: 2
Fore
SplineSet
621.365234375 582 m 1,0,-1
 590.66015625 449 l 1,1,-1
 166.798828125 298 l 1,2,-1
 520.70703125 146 l 1,3,-1
 490.232421875 14 l 1,4,-1
 56.0234375 234 l 1,5,-1
 85.34375 361 l 1,6,-1
 621.365234375 582 l 1,0,-1
EndSplineSet
EndChar

StartChar: equal
Encoding: 61 61 32
Width: 604
GlyphClass: 2
Flags: W
LayerCount: 2
Fore
SplineSet
584.045898438 468 m 1,0,-1
 560.498046875 366 l 1,1,-1
 84.498046875 366 l 1,2,-1
 108.045898438 468 l 1,3,-1
 584.045898438 468 l 1,0,-1
535.333007812 257 m 1,4,-1
 512.015625 156 l 1,5,-1
 36.015625 156 l 1,6,-1
 59.3330078125 257 l 1,7,-1
 535.333007812 257 l 1,4,-1
EndSplineSet
Substitution2: "'sups' Superscript lookup 15 subtable" uni207C
Substitution2: "'subs' Subscript lookup 14 subtable" uni208C
Substitution2: "'sinf' Scientific Inferiors lookup 13 subtable" uni208C
AlternateSubs2: "'aalt' Access All Alternates lookup 1 subtable" uni208C uni207C
EndChar

StartChar: greater
Encoding: 62 62 33
Width: 604
GlyphClass: 2
Flags: W
LayerCount: 2
Fore
SplineSet
123.365234375 582 m 1,0,-1
 557.34375 361 l 1,1,-1
 528.0234375 234 l 1,2,-1
 -7.767578125 14 l 1,3,-1
 22.70703125 146 l 1,4,-1
 446.798828125 298 l 1,5,-1
 92.66015625 449 l 1,6,-1
 123.365234375 582 l 1,0,-1
EndSplineSet
EndChar

StartChar: question
Encoding: 63 63 34
Width: 583
GlyphClass: 2
Flags: W
LayerCount: 2
Fore
SplineSet
385.681640625 670 m 0,0,1
 495.681640625 670 495.681640625 670 551.676757812 624.5 c 128,-1,2
 607.672851562 579 607.672851562 579 587.818359375 493 c 0,3,4
 567.732421875 406 567.732421875 406 505.727539062 360.5 c 128,-1,5
 443.723632812 315 443.723632812 315 355.645507812 306 c 1,6,-1
 326.944335938 212 l 1,7,-1
 204.944335938 212 l 1,8,-1
 233.8046875 363 l 1,9,10
 331.114257812 373 331.114257812 373 378.231445312 399.5 c 128,-1,11
 425.349609375 426 425.349609375 426 436.200195312 473 c 0,12,13
 445.204101562 512 445.204101562 512 423.66796875 533.5 c 128,-1,14
 402.131835938 555 402.131835938 555 350.131835938 555 c 128,-1,15
 298.131835938 555 298.131835938 555 258.821289062 525.5 c 128,-1,16
 219.510742188 496 219.510742188 496 203.043945312 442 c 1,17,-1
 85.5107421875 496 l 1,18,19
 116.98046875 576 116.98046875 576 193.331054688 623 c 128,-1,20
 269.681640625 670 269.681640625 670 385.681640625 670 c 0,0,1
250.9375 147 m 128,-1,22
 290.9375 147 290.9375 147 309.08984375 126 c 128,-1,23
 327.241210938 105 327.241210938 105 318.9296875 69 c 128,-1,24
 310.618164062 33 310.618164062 33 282.770507812 12 c 128,-1,25
 254.921875 -9 254.921875 -9 214.921875 -9 c 128,-1,26
 174.921875 -9 174.921875 -9 157.270507812 12 c 128,-1,27
 139.618164062 33 139.618164062 33 147.9296875 69 c 128,-1,28
 156.241210938 105 156.241210938 105 183.58984375 126 c 128,-1,21
 210.9375 147 210.9375 147 250.9375 147 c 128,-1,22
EndSplineSet
Substitution2: "'smcp' Lowercase to Small Capitals lookup 12 subtable" question.sc
Substitution2: "'c2sc' Capitals to Small Capitals lookup 11 subtable" question.sc
Substitution2: "'aalt' Access All Alternates lookup 0 subtable" question.sc
EndChar

StartChar: at
Encoding: 64 64 35
Width: 960
GlyphClass: 2
Flags: W
LayerCount: 2
Fore
SplineSet
586.373046875 660 m 0,0,1
 778.373046875 660 778.373046875 660 859.32421875 551.5 c 128,-1,2
 940.274414062 443 940.274414062 443 898.025390625 260 c 0,3,4
 868.936523438 134 868.936523438 134 796.237304688 66 c 128,-1,5
 723.538085938 -2 723.538085938 -2 637.538085938 -2 c 0,6,7
 538.538085938 -2 538.538085938 -2 526.854492188 86 c 1,8,9
 453.461914062 2 453.461914062 2 345.461914062 2 c 0,10,11
 272.461914062 2 272.461914062 2 238.697265625 55 c 128,-1,12
 204.93359375 108 204.93359375 108 225.01953125 195 c 0,13,14
 254.5703125 323 254.5703125 323 338.193359375 395 c 128,-1,15
 421.815429688 467 421.815429688 467 517.815429688 467 c 0,16,17
 617.815429688 467 617.815429688 467 626.115234375 386 c 1,18,-1
 662.737304688 458 l 1,19,-1
 758.737304688 458 l 1,20,-1
 648.631835938 163 l 2,21,22
 614.853515625 73 614.853515625 73 682.853515625 73 c 0,23,24
 728.853515625 73 728.853515625 73 766.934570312 121 c 128,-1,25
 805.016601562 169 805.016601562 169 826.025390625 260 c 0,26,27
 862.041015625 416 862.041015625 416 795.2421875 503.5 c 128,-1,28
 728.443359375 591 728.443359375 591 570.443359375 591 c 0,29,30
 403.443359375 591 403.443359375 591 282.086914062 492 c 128,-1,31
 160.731445312 393 160.731445312 393 121.483398438 223 c 0,32,33
 84.775390625 64 84.775390625 64 159.151367188 -27.5 c 128,-1,34
 233.526367188 -119 233.526367188 -119 375.526367188 -119 c 0,35,36
 503.526367188 -119 503.526367188 -119 596.147460938 -60 c 1,37,-1
 623.680664062 -114 l 1,38,39
 563.370117188 -150 563.370117188 -150 504.983398438 -169 c 128,-1,40
 446.596679688 -188 446.596679688 -188 357.596679688 -188 c 0,41,42
 175.596679688 -188 175.596679688 -188 87.3388671875 -76.5 c 128,-1,43
 -0.919921875 35 -0.919921875 35 42.4833984375 223 c 0,44,45
 87.5029296875 418 87.5029296875 418 238.4375 539 c 128,-1,46
 389.373046875 660 389.373046875 660 586.373046875 660 c 0,0,1
512.575195312 375 m 0,47,48
 455.575195312 375 455.575195312 375 410.416992188 331 c 128,-1,49
 365.258789062 287 365.258789062 287 347.482421875 210 c 0,50,51
 335.015625 156 335.015625 156 351.205078125 126.5 c 128,-1,52
 367.39453125 97 367.39453125 97 409.39453125 97 c 128,-1,53
 451.39453125 97 451.39453125 97 488.896484375 123 c 128,-1,54
 526.399414062 149 526.399414062 149 543.711914062 198 c 2,55,-1
 569.641601562 267 l 2,56,57
 608.575195312 375 608.575195312 375 512.575195312 375 c 0,47,48
EndSplineSet
Substitution2: "'case' Case-Sensitive Forms lookup 29 subtable" at.case
Substitution2: "'aalt' Access All Alternates lookup 0 subtable" at.case
EndChar

StartChar: A
Encoding: 65 65 36
Width: 671
GlyphClass: 2
Flags: W
LayerCount: 2
Fore
SplineSet
452 0 m 1,0,-1
 434.169921875 161 l 1,1,-1
 180.169921875 161 l 1,2,-1
 89 0 l 1,3,-1
 -52 0 l 1,4,-1
 341.373046875 660 l 1,5,-1
 506.373046875 660 l 1,6,-1
 595 0 l 1,7,-1
 452 0 l 1,0,-1
237.71875 263 m 1,8,-1
 423.71875 263 l 1,9,-1
 404.66015625 449 l 1,10,-1
 397.747070312 549 l 1,11,-1
 395.747070312 549 l 1,12,-1
 345.12109375 451 l 1,13,-1
 237.71875 263 l 1,8,-1
EndSplineSet
Substitution2: "Single Substitution lookup 56 subtable" A.swsh
Substitution2: "Single Substitution lookup 55 subtable" ordfeminine
Substitution2: "'swsh' Swash lookup 32 subtable" A.swsh
Substitution2: "'c2sc' Capitals to Small Capitals lookup 11 subtable" a.sc
AlternateSubs2: "'aalt' Access All Alternates lookup 1 subtable" a.sc ordfeminine A.swsh
EndChar

StartChar: B
Encoding: 66 66 37
Width: 672
GlyphClass: 2
Flags: W
LayerCount: 2
Fore
SplineSet
22 0 m 1,0,-1
 174.373046875 660 l 1,1,-1
 463.373046875 660 l 2,2,3
 697.373046875 660 697.373046875 660 655.81640625 480 c 0,4,5
 643.119140625 425 643.119140625 425 600.768554688 384.5 c 128,-1,6
 558.418945312 344 558.418945312 344 496.110351562 334 c 1,7,-1
 495.87890625 333 l 1,8,9
 561.5703125 323 561.5703125 323 589.489257812 281.5 c 128,-1,10
 617.408203125 240 617.408203125 240 603.787109375 181 c 0,11,12
 583.932617188 95 583.932617188 95 510.965820312 47.5 c 128,-1,13
 438 0 438 0 321 0 c 2,14,-1
 22 0 l 1,0,-1
244.422851562 383 m 1,15,-1
 380.422851562 383 l 2,16,17
 490.422851562 383 490.422851562 383 510.045898438 468 c 128,-1,18
 529.669921875 553 529.669921875 553 419.669921875 553 c 2,19,-1
 283.669921875 553 l 1,20,-1
 244.422851562 383 l 1,15,-1
180.010742188 104 m 1,21,-1
 333.010742188 104 l 2,22,23
 443.010742188 104 443.010742188 104 463.095703125 191 c 0,24,25
 482.950195312 277 482.950195312 277 372.950195312 277 c 2,26,-1
 219.950195312 277 l 1,27,-1
 180.010742188 104 l 1,21,-1
EndSplineSet
Substitution2: "'c2sc' Capitals to Small Capitals lookup 11 subtable" b.sc
Substitution2: "'aalt' Access All Alternates lookup 0 subtable" b.sc
EndChar

StartChar: C
Encoding: 67 67 38
Width: 683
GlyphClass: 2
Flags: W
LayerCount: 2
Fore
SplineSet
629.017578125 182 m 1,0,1
 578.0859375 87 578.0859375 87 492.888671875 38.5 c 128,-1,2
 407.69140625 -10 407.69140625 -10 304.69140625 -10 c 0,3,4
 157.69140625 -10 157.69140625 -10 93.0849609375 80.5 c 128,-1,5
 28.478515625 171 28.478515625 171 65.1865234375 330 c 0,6,7
 101.6640625 488 101.6640625 488 208.172851562 579 c 128,-1,8
 314.681640625 670 314.681640625 670 459.681640625 670 c 0,9,10
 562.681640625 670 562.681640625 670 624.25390625 627 c 128,-1,11
 685.827148438 584 685.827148438 584 693.203125 499 c 1,12,-1
 555.966796875 446 l 1,13,14
 553.588867188 505 553.588867188 505 525.590820312 531 c 128,-1,15
 497.59375 557 497.59375 557 439.59375 557 c 0,16,17
 355.59375 557 355.59375 557 294.47265625 498 c 128,-1,18
 233.3515625 439 233.3515625 439 208.186523438 330 c 128,-1,19
 183.021484375 221 183.021484375 221 215.400390625 162 c 128,-1,20
 247.779296875 103 247.779296875 103 331.779296875 103 c 0,21,22
 452.779296875 103 452.779296875 103 510.791015625 220 c 1,23,-1
 629.017578125 182 l 1,0,1
EndSplineSet
Substitution2: "'c2sc' Capitals to Small Capitals lookup 11 subtable" c.sc
Substitution2: "'aalt' Access All Alternates lookup 0 subtable" c.sc
EndChar

StartChar: D
Encoding: 68 68 39
Width: 719
GlyphClass: 2
Flags: W
LayerCount: 2
Fore
SplineSet
429.373046875 660 m 2,0,1
 584.373046875 660 584.373046875 660 649.518554688 574 c 128,-1,2
 714.6640625 488 714.6640625 488 678.186523438 330 c 128,-1,3
 641.708984375 172 641.708984375 172 536.854492188 86 c 128,-1,4
 432 0 432 0 277 0 c 2,5,-1
 22 0 l 1,6,-1
 174.373046875 660 l 1,7,-1
 429.373046875 660 l 2,0,1
295.395507812 110 m 2,8,9
 389.395507812 110 389.395507812 110 449.939453125 166.5 c 128,-1,10
 510.483398438 223 510.483398438 223 535.186523438 330 c 128,-1,11
 559.889648438 437 559.889648438 437 525.43359375 493.5 c 128,-1,12
 490.977539062 550 490.977539062 550 396.977539062 550 c 2,13,-1
 286.977539062 550 l 1,14,-1
 185.395507812 110 l 1,15,-1
 295.395507812 110 l 2,8,9
EndSplineSet
Substitution2: "'c2sc' Capitals to Small Capitals lookup 11 subtable" d.sc
Substitution2: "'aalt' Access All Alternates lookup 0 subtable" d.sc
EndChar

StartChar: E
Encoding: 69 69 40
Width: 633
GlyphClass: 2
Flags: W
AnchorPoint: "Anchor-0" 271 0 basechar 0
LayerCount: 2
Fore
SplineSet
185.625976562 111 m 1,0,-1
 556.625976562 111 l 1,1,-1
 531 0 l 1,2,-1
 22 0 l 1,3,-1
 174.373046875 660 l 1,4,-1
 669.373046875 660 l 1,5,-1
 643.747070312 549 l 1,6,-1
 286.747070312 549 l 1,7,-1
 248.883789062 385 l 1,8,-1
 529.883789062 385 l 1,9,-1
 505.412109375 279 l 1,10,-1
 224.412109375 279 l 1,11,-1
 185.625976562 111 l 1,0,-1
EndSplineSet
Substitution2: "Single Substitution lookup 57 subtable" E.swsh.001
Substitution2: "Single Substitution lookup 56 subtable" E.swsh
AlternateSubs2: "'swsh' Swash lookup 33 subtable" E.swsh E.swsh.001
Substitution2: "'c2sc' Capitals to Small Capitals lookup 11 subtable" e.sc
AlternateSubs2: "'aalt' Access All Alternates lookup 1 subtable" e.sc E.swsh E.swsh.001
EndChar

StartChar: F
Encoding: 70 70 41
Width: 612
GlyphClass: 2
Flags: W
LayerCount: 2
Fore
SplineSet
642.747070312 549 m 1,0,-1
 286.747070312 549 l 1,1,-1
 248.19140625 382 l 1,2,-1
 529.19140625 382 l 1,3,-1
 503.333984375 270 l 1,4,-1
 222.333984375 270 l 1,5,-1
 160 0 l 1,6,-1
 22 0 l 1,7,-1
 174.373046875 660 l 1,8,-1
 668.373046875 660 l 1,9,-1
 642.747070312 549 l 1,0,-1
EndSplineSet
Substitution2: "Single Substitution lookup 56 subtable" F.swsh
Substitution2: "'swsh' Swash lookup 34 subtable" F.swsh
Substitution2: "'c2sc' Capitals to Small Capitals lookup 11 subtable" f.sc
AlternateSubs2: "'aalt' Access All Alternates lookup 1 subtable" f.sc F.swsh
EndChar

StartChar: G
Encoding: 71 71 42
Width: 723
GlyphClass: 2
Flags: W
AnchorPoint: "Anchor-0" 330 0 basechar 0
LayerCount: 2
Fore
SplineSet
362.573242188 349 m 1,0,-1
 674.573242188 349 l 1,1,-1
 594 0 l 1,2,-1
 493 0 l 1,3,-1
 508.23828125 79 l 1,4,5
 427.69140625 -10 427.69140625 -10 292.69140625 -10 c 0,6,7
 154.69140625 -10 154.69140625 -10 91.4697265625 80 c 128,-1,8
 28.248046875 170 28.248046875 170 64.9560546875 329 c 0,9,10
 101.432617188 487 101.432617188 487 209.057617188 578.5 c 128,-1,11
 316.681640625 670 316.681640625 670 464.681640625 670 c 0,12,13
 571.681640625 670 571.681640625 670 630.177734375 631 c 128,-1,14
 688.673828125 592 688.673828125 592 708.28125 508 c 1,15,-1
 568.583007812 453 l 1,16,17
 565.357421875 504 565.357421875 504 531.975585938 530.5 c 128,-1,18
 498.59375 557 498.59375 557 442.59375 557 c 0,19,20
 356.59375 557 356.59375 557 294.97265625 498 c 128,-1,21
 233.3515625 439 233.3515625 439 208.186523438 330 c 0,22,23
 182.098632812 217 182.098632812 217 215.708007812 159 c 128,-1,24
 249.317382812 101 249.317382812 101 340.317382812 101 c 0,25,26
 410.317382812 101 410.317382812 101 462.051757812 134.5 c 128,-1,27
 513.786132812 168 513.786132812 168 528.561523438 232 c 2,28,-1
 532.024414062 247 l 1,29,-1
 339.024414062 247 l 1,30,-1
 362.573242188 349 l 1,0,-1
EndSplineSet
Substitution2: "'ss04' Style Set 4 lookup 50 subtable" G.ss04
Substitution2: "'salt' Stylistic Alternatives lookup 42 subtable" G.ss04
Substitution2: "'c2sc' Capitals to Small Capitals lookup 11 subtable" g.sc
AlternateSubs2: "'aalt' Access All Alternates lookup 1 subtable" g.sc G.ss04
EndChar

StartChar: H
Encoding: 72 72 43
Width: 739
GlyphClass: 2
Flags: W
LayerCount: 2
Fore
SplineSet
603.373046875 660 m 1,0,-1
 741.373046875 660 l 1,1,-1
 589 0 l 1,2,-1
 451 0 l 1,3,-1
 515.181640625 278 l 1,4,-1
 224.181640625 278 l 1,5,-1
 160 0 l 1,6,-1
 22 0 l 1,7,-1
 174.373046875 660 l 1,8,-1
 312.373046875 660 l 1,9,-1
 249.807617188 389 l 1,10,-1
 540.807617188 389 l 1,11,-1
 603.373046875 660 l 1,0,-1
EndSplineSet
Substitution2: "'sups' Superscript lookup 15 subtable" Hsuperior
Substitution2: "'subs' Subscript lookup 14 subtable" Hinferior
Substitution2: "'sinf' Scientific Inferiors lookup 13 subtable" Hinferior
Substitution2: "'c2sc' Capitals to Small Capitals lookup 11 subtable" h.sc
AlternateSubs2: "'aalt' Access All Alternates lookup 1 subtable" h.sc Hinferior Hsuperior
EndChar

StartChar: I
Encoding: 73 73 44
Width: 310
GlyphClass: 2
Flags: W
LayerCount: 2
Fore
SplineSet
312.373046875 660 m 1,0,-1
 160 0 l 1,1,-1
 22 0 l 1,2,-1
 174.373046875 660 l 1,3,-1
 312.373046875 660 l 1,0,-1
EndSplineSet
Substitution2: "'c2sc' Capitals to Small Capitals lookup 11 subtable" i.sc
Substitution2: "'aalt' Access All Alternates lookup 0 subtable" i.sc
EndChar

StartChar: J
Encoding: 74 74 45
Width: 601
GlyphClass: 2
Flags: W
LayerCount: 2
Fore
SplineSet
613.373046875 660 m 1,0,-1
 517.100585938 243 l 2,1,2
 489.627929688 124 489.627929688 124 406.159179688 57 c 128,-1,3
 322.69140625 -10 322.69140625 -10 199.69140625 -10 c 0,4,5
 68.69140625 -10 68.69140625 -10 26.236328125 59.5 c 128,-1,6
 -16.2177734375 129 -16.2177734375 129 32.5625 245 c 1,7,-1
 173.103515625 269 l 1,8,9
 140.787109375 181 140.787109375 181 154.283203125 142 c 128,-1,10
 167.779296875 103 167.779296875 103 229.779296875 103 c 0,11,12
 293.779296875 103 293.779296875 103 329.16796875 141.5 c 128,-1,13
 364.556640625 180 364.556640625 180 383.487304688 262 c 2,14,-1
 475.373046875 660 l 1,15,-1
 613.373046875 660 l 1,0,-1
EndSplineSet
Substitution2: "'c2sc' Capitals to Small Capitals lookup 11 subtable" j.sc
Substitution2: "'aalt' Access All Alternates lookup 0 subtable" j.sc
EndChar

StartChar: K
Encoding: 75 75 46
Width: 679
GlyphClass: 2
Flags: W
AnchorPoint: "Anchor-0" 303 0 basechar 0
LayerCount: 2
Fore
SplineSet
441 0 m 1,0,-1
 323.72265625 302 l 1,1,-1
 205.01953125 195 l 1,2,-1
 160 0 l 1,3,-1
 22 0 l 1,4,-1
 174.373046875 660 l 1,5,-1
 312.373046875 660 l 1,6,-1
 240.111328125 347 l 1,7,-1
 583.373046875 660 l 1,8,-1
 743.373046875 660 l 1,9,-1
 444.26953125 391 l 1,10,-1
 599 0 l 1,11,-1
 441 0 l 1,0,-1
EndSplineSet
Substitution2: "'c2sc' Capitals to Small Capitals lookup 11 subtable" k.sc
Substitution2: "'aalt' Access All Alternates lookup 0 subtable" k.sc
EndChar

StartChar: L
Encoding: 76 76 47
Width: 601
GlyphClass: 2
Flags: W
AnchorPoint: "Anchor-0" 281 0 basechar 0
LayerCount: 2
Fore
SplineSet
185.625976562 111 m 1,0,-1
 533.625976562 111 l 1,1,-1
 508 0 l 1,2,-1
 22 0 l 1,3,-1
 174.373046875 660 l 1,4,-1
 312.373046875 660 l 1,5,-1
 185.625976562 111 l 1,0,-1
EndSplineSet
Substitution2: "Single Substitution lookup 57 subtable" L.swsh
Substitution2: "'swsh' Swash lookup 34 subtable" L.swsh
Substitution2: "'c2sc' Capitals to Small Capitals lookup 11 subtable" l.sc
AlternateSubs2: "'aalt' Access All Alternates lookup 1 subtable" l.sc L.swsh
Position2: "Single Positioning lookup 6 subtable" dx=0 dy=0 dh=-152 dv=0
EndChar

StartChar: M
Encoding: 77 77 48
Width: 890
GlyphClass: 2
Flags: W
LayerCount: 2
Fore
SplineSet
892.373046875 660 m 1,0,-1
 740 0 l 1,1,-1
 616 0 l 1,2,-1
 695.418945312 344 l 1,3,-1
 745.9765625 537 l 1,4,-1
 743.9765625 537 l 1,5,-1
 437 0 l 1,6,-1
 324 0 l 1,7,-1
 265.9765625 537 l 1,8,-1
 263.9765625 537 l 1,9,-1
 226.418945312 344 l 1,10,-1
 147 0 l 1,11,-1
 22 0 l 1,12,-1
 174.373046875 660 l 1,13,-1
 374.373046875 660 l 1,14,-1
 410.260742188 300 l 1,15,-1
 417.861328125 151 l 1,16,-1
 419.861328125 151 l 1,17,-1
 497.029296875 299 l 1,18,-1
 698.373046875 660 l 1,19,-1
 892.373046875 660 l 1,0,-1
EndSplineSet
Substitution2: "Single Substitution lookup 56 subtable" M.swsh
AlternateSubs2: "'swsh' Swash lookup 35 subtable" M.swsh M.swsh.001
Substitution2: "'c2sc' Capitals to Small Capitals lookup 11 subtable" m.sc
AlternateSubs2: "'aalt' Access All Alternates lookup 1 subtable" m.sc M.swsh M.swsh.001
EndChar

StartChar: N
Encoding: 78 78 49
Width: 739
GlyphClass: 2
Flags: W
AnchorPoint: "Anchor-0" 324 0 basechar 0
LayerCount: 2
Fore
SplineSet
741.373046875 660 m 1,0,-1
 589 0 l 1,1,-1
 431 0 l 1,2,-1
 289.577148438 388 l 1,3,-1
 258.203125 499 l 1,4,-1
 257.203125 499 l 1,5,-1
 234.19140625 382 l 1,6,-1
 146 0 l 1,7,-1
 22 0 l 1,8,-1
 174.373046875 660 l 1,9,-1
 331.373046875 660 l 1,10,-1
 473.02734375 273 l 1,11,-1
 504.169921875 161 l 1,12,-1
 506.169921875 161 l 1,13,-1
 529.181640625 278 l 1,14,-1
 617.373046875 660 l 1,15,-1
 741.373046875 660 l 1,0,-1
EndSplineSet
Substitution2: "Single Substitution lookup 57 subtable" N.swsh
Substitution2: "'swsh' Swash lookup 36 subtable" N.swsh
Substitution2: "'c2sc' Capitals to Small Capitals lookup 11 subtable" n.sc
AlternateSubs2: "'aalt' Access All Alternates lookup 1 subtable" n.sc N.swsh
EndChar

StartChar: O
Encoding: 79 79 50
Width: 741
GlyphClass: 2
Flags: W
LayerCount: 2
Fore
SplineSet
461.681640625 670 m 128,-1,1
 608.681640625 670 608.681640625 670 672.788085938 579.5 c 128,-1,2
 736.89453125 489 736.89453125 489 700.186523438 330 c 128,-1,3
 663.478515625 171 663.478515625 171 557.584960938 80.5 c 128,-1,4
 451.69140625 -10 451.69140625 -10 304.69140625 -10 c 128,-1,5
 157.69140625 -10 157.69140625 -10 93.0849609375 80.5 c 128,-1,6
 28.478515625 171 28.478515625 171 65.1865234375 330 c 128,-1,7
 101.89453125 489 101.89453125 489 208.288085938 579.5 c 128,-1,0
 314.681640625 670 314.681640625 670 461.681640625 670 c 128,-1,1
435.59375 557 m 0,8,9
 351.59375 557 351.59375 557 292.587890625 498.5 c 128,-1,10
 233.58203125 440 233.58203125 440 208.186523438 330 c 128,-1,11
 182.791015625 220 182.791015625 220 214.78515625 161.5 c 128,-1,12
 246.779296875 103 246.779296875 103 330.779296875 103 c 0,13,14
 413.779296875 103 413.779296875 103 472.78515625 161.5 c 128,-1,15
 531.791015625 220 531.791015625 220 557.186523438 330 c 128,-1,16
 582.58203125 440 582.58203125 440 550.587890625 498.5 c 128,-1,17
 518.59375 557 518.59375 557 435.59375 557 c 0,8,9
EndSplineSet
Substitution2: "Single Substitution lookup 55 subtable" ordmasculine
Substitution2: "'nalt' Alternate Annotation Forms lookup 23 subtable" indexring
Substitution2: "'sups' Superscript lookup 15 subtable" Osuperior
Substitution2: "'subs' Subscript lookup 14 subtable" Oinferior
Substitution2: "'sinf' Scientific Inferiors lookup 13 subtable" Oinferior
Substitution2: "'c2sc' Capitals to Small Capitals lookup 11 subtable" o.sc
AlternateSubs2: "'aalt' Access All Alternates lookup 1 subtable" o.sc Oinferior Osuperior ordmasculine indexring
EndChar

StartChar: P
Encoding: 80 80 51
Width: 646
GlyphClass: 2
Flags: W
LayerCount: 2
Fore
SplineSet
451.373046875 660 m 2,0,1
 566.373046875 660 566.373046875 660 617.559570312 604.5 c 128,-1,2
 668.747070312 549 668.747070312 549 645.428710938 448 c 0,3,4
 622.803710938 350 622.803710938 350 546.106445312 295 c 128,-1,5
 469.408203125 240 469.408203125 240 354.408203125 240 c 2,6,-1
 215.408203125 240 l 1,7,-1
 160 0 l 1,8,-1
 22 0 l 1,9,-1
 174.373046875 660 l 1,10,-1
 451.373046875 660 l 2,0,1
358.111328125 347 m 2,11,12
 482.111328125 347 482.111328125 347 505.66015625 449 c 0,13,14
 528.977539062 550 528.977539062 550 404.977539062 550 c 2,15,-1
 286.977539062 550 l 1,16,-1
 240.111328125 347 l 1,17,-1
 358.111328125 347 l 2,11,12
EndSplineSet
Substitution2: "'c2sc' Capitals to Small Capitals lookup 11 subtable" p.sc
Substitution2: "'aalt' Access All Alternates lookup 0 subtable" p.sc
EndChar

StartChar: Q
Encoding: 81 81 52
Width: 741
GlyphClass: 2
Flags: W
LayerCount: 2
Fore
SplineSet
444.145507812 -86 m 0,0,1
 524.145507812 -86 524.145507812 -86 573.91796875 -48 c 1,2,-1
 585.446289062 -154 l 1,3,4
 519.595703125 -201 519.595703125 -201 412.595703125 -201 c 0,5,6
 316.595703125 -201 316.595703125 -201 274.0234375 -151.5 c 128,-1,7
 231.451171875 -102 231.451171875 -102 255.383789062 -7 c 1,8,9
 132.846679688 8 132.846679688 8 82.39453125 97 c 128,-1,10
 31.94140625 186 31.94140625 186 65.1865234375 330 c 0,11,12
 101.89453125 489 101.89453125 489 208.288085938 579.5 c 128,-1,13
 314.681640625 670 314.681640625 670 461.681640625 670 c 128,-1,14
 608.681640625 670 608.681640625 670 672.788085938 579.5 c 128,-1,15
 736.89453125 489 736.89453125 489 700.186523438 330 c 0,16,17
 666.7109375 185 666.7109375 185 574.163085938 96 c 128,-1,18
 481.616210938 7 481.616210938 7 351.383789062 -7 c 1,19,20
 345.995117188 -52 345.995117188 -52 370.0703125 -69 c 128,-1,21
 394.145507812 -86 394.145507812 -86 444.145507812 -86 c 0,0,1
208.186523438 330 m 128,-1,23
 182.791015625 220 182.791015625 220 214.78515625 161.5 c 128,-1,24
 246.779296875 103 246.779296875 103 330.779296875 103 c 0,25,26
 413.779296875 103 413.779296875 103 472.78515625 161.5 c 128,-1,27
 531.791015625 220 531.791015625 220 557.186523438 330 c 128,-1,28
 582.58203125 440 582.58203125 440 550.587890625 498.5 c 128,-1,29
 518.59375 557 518.59375 557 435.59375 557 c 0,30,31
 351.59375 557 351.59375 557 292.587890625 498.5 c 128,-1,22
 233.58203125 440 233.58203125 440 208.186523438 330 c 128,-1,23
EndSplineSet
Substitution2: "'c2sc' Capitals to Small Capitals lookup 11 subtable" q.sc
Substitution2: "'aalt' Access All Alternates lookup 0 subtable" q.sc
EndChar

StartChar: R
Encoding: 82 82 53
Width: 674
GlyphClass: 2
Flags: W
AnchorPoint: "Anchor-0" 300 0 basechar 0
LayerCount: 2
Fore
SplineSet
22 0 m 1,0,-1
 174.373046875 660 l 1,1,-1
 465.373046875 660 l 2,2,3
 578.373046875 660 578.373046875 660 629.63671875 607 c 128,-1,4
 680.901367188 554 680.901367188 554 659.19921875 460 c 0,5,6
 628.724609375 328 628.724609375 328 487.413085938 292 c 1,7,-1
 486.952148438 290 l 1,8,9
 582.103515625 269 582.103515625 269 566.786132812 168 c 0,10,11
 549.388671875 45 549.388671875 45 563.923828125 4 c 1,12,-1
 563 0 l 1,13,-1
 417 0 l 1,14,15
 411.157226562 31 411.157226562 31 427.784179688 155 c 0,16,17
 434.55859375 206 434.55859375 206 409.484375 229.5 c 128,-1,18
 384.409179688 253 384.409179688 253 323.409179688 253 c 2,19,-1
 216.409179688 253 l 1,20,-1
 158 0 l 1,21,-1
 22 0 l 1,0,-1
240.650390625 358 m 1,22,-1
 377.650390625 358 l 2,23,24
 437.650390625 358 437.650390625 358 471.576171875 381.5 c 128,-1,25
 505.501953125 405 505.501953125 405 516.814453125 454 c 128,-1,26
 528.126953125 503 528.126953125 503 505.051757812 526.5 c 128,-1,27
 481.977539062 550 481.977539062 550 421.977539062 550 c 2,28,-1
 284.977539062 550 l 1,29,-1
 240.650390625 358 l 1,22,-1
EndSplineSet
Substitution2: "Single Substitution lookup 57 subtable" R.swsh.001
Substitution2: "Single Substitution lookup 56 subtable" R.swsh
Substitution2: "'ss03' Style Set 3 lookup 49 subtable" R.ss03
Substitution2: "'salt' Stylistic Alternatives lookup 42 subtable" R.ss03
AlternateSubs2: "'swsh' Swash lookup 37 subtable" R.swsh R.swsh.001
Substitution2: "'c2sc' Capitals to Small Capitals lookup 11 subtable" r.sc
AlternateSubs2: "'aalt' Access All Alternates lookup 1 subtable" r.sc R.swsh R.swsh.001 R.ss03
EndChar

StartChar: S
Encoding: 83 83 54
Width: 643
GlyphClass: 2
Flags: W
AnchorPoint: "Anchor-0" 287 0 basechar 0
LayerCount: 2
Fore
SplineSet
417.681640625 670 m 0,0,1
 509.681640625 670 509.681640625 670 568.640625 639.5 c 128,-1,2
 627.598632812 609 627.598632812 609 662.361328125 543 c 1,3,-1
 545.890625 450 l 1,4,5
 519.362304688 556 519.362304688 556 392.362304688 556 c 0,6,7
 332.362304688 556 332.362304688 556 294.783203125 534 c 128,-1,8
 257.204101562 512 257.204101562 512 248.662109375 475 c 0,9,10
 240.8125 441 240.8125 441 269.1953125 421 c 128,-1,11
 297.578125 401 297.578125 401 380.115234375 386 c 0,12,13
 507.34375 361 507.34375 361 552.954101562 316 c 128,-1,14
 598.565429688 271 598.565429688 271 579.403320312 188 c 0,15,16
 558.39453125 97 558.39453125 97 471.04296875 43.5 c 128,-1,17
 383.69140625 -10 383.69140625 -10 262.69140625 -10 c 0,18,19
 153.69140625 -10 153.69140625 -10 91.232421875 20.5 c 128,-1,20
 28.7744140625 51 28.7744140625 51 0.087890625 113 c 1,21,-1
 104.712890625 211 l 1,22,23
 127.399414062 149 127.399414062 149 169.973632812 125.5 c 128,-1,24
 212.548828125 102 212.548828125 102 283.548828125 102 c 0,25,26
 414.548828125 102 414.548828125 102 432.556640625 180 c 0,27,28
 438.790039062 207 438.790039062 207 411.4453125 225 c 128,-1,29
 384.100585938 243 384.100585938 243 306.794921875 259 c 0,30,31
 175.258789062 287 175.258789062 287 127.87890625 333 c 128,-1,32
 80.4990234375 379 80.4990234375 379 99.6611328125 462 c 0,33,34
 120.439453125 552 120.439453125 552 206.560546875 611 c 128,-1,35
 292.681640625 670 292.681640625 670 417.681640625 670 c 0,0,1
EndSplineSet
Substitution2: "Single Substitution lookup 57 subtable" S.swsh
Substitution2: "Single Substitution lookup 56 subtable" S.swsh
Substitution2: "'swsh' Swash lookup 38 subtable" S.swsh
Substitution2: "'c2sc' Capitals to Small Capitals lookup 11 subtable" s.sc
AlternateSubs2: "'aalt' Access All Alternates lookup 1 subtable" s.sc S.swsh
EndChar

StartChar: T
Encoding: 84 84 55
Width: 635
GlyphClass: 2
Flags: W
AnchorPoint: "Anchor-0" 257 0 basechar 0
LayerCount: 2
Fore
SplineSet
696.373046875 660 m 1,0,-1
 670.747070312 549 l 1,1,-1
 449.747070312 549 l 1,2,-1
 323 0 l 1,3,-1
 185 0 l 1,4,-1
 311.747070312 549 l 1,5,-1
 89.7470703125 549 l 1,6,-1
 115.373046875 660 l 1,7,-1
 696.373046875 660 l 1,0,-1
EndSplineSet
Substitution2: "Single Substitution lookup 56 subtable" T.swsh
Substitution2: "'swsh' Swash lookup 38 subtable" T.swsh
Substitution2: "'c2sc' Capitals to Small Capitals lookup 11 subtable" t.sc
AlternateSubs2: "'aalt' Access All Alternates lookup 1 subtable" t.sc T.swsh
EndChar

StartChar: U
Encoding: 85 85 56
Width: 715
GlyphClass: 2
Flags: W
LayerCount: 2
Fore
SplineSet
728.373046875 660 m 1,0,-1
 636.025390625 260 l 2,1,2
 605.08984375 126 605.08984375 126 517.890625 58 c 128,-1,3
 430.69140625 -10 430.69140625 -10 291.69140625 -10 c 128,-1,4
 152.69140625 -10 152.69140625 -10 96.890625 58 c 128,-1,5
 41.08984375 126 41.08984375 126 72.025390625 260 c 2,6,-1
 164.373046875 660 l 1,7,-1
 302.373046875 660 l 1,8,-1
 211.411132812 266 l 2,9,10
 173.779296875 103 173.779296875 103 317.779296875 103 c 0,11,12
 390.779296875 103 390.779296875 103 435.013671875 143 c 128,-1,13
 479.249023438 183 479.249023438 183 498.411132812 266 c 2,14,-1
 589.373046875 660 l 1,15,-1
 728.373046875 660 l 1,0,-1
EndSplineSet
Substitution2: "'c2sc' Capitals to Small Capitals lookup 11 subtable" u.sc
Substitution2: "'aalt' Access All Alternates lookup 0 subtable" u.sc
EndChar

StartChar: V
Encoding: 86 86 57
Width: 670
GlyphClass: 2
Flags: W
LayerCount: 2
Fore
SplineSet
744.373046875 660 m 1,0,-1
 352 0 l 1,1,-1
 191 0 l 1,2,-1
 102.373046875 660 l 1,3,-1
 248.373046875 660 l 1,4,-1
 290.408203125 240 l 1,5,-1
 298.395507812 110 l 1,6,-1
 365.177734375 239 l 1,7,-1
 602.373046875 660 l 1,8,-1
 744.373046875 660 l 1,0,-1
EndSplineSet
Substitution2: "'c2sc' Capitals to Small Capitals lookup 11 subtable" v.sc
Substitution2: "'aalt' Access All Alternates lookup 0 subtable" v.sc
EndChar

StartChar: W
Encoding: 87 87 58
Width: 984
GlyphClass: 2
Flags: W
LayerCount: 2
Fore
SplineSet
480.112304688 360 m 1,0,-1
 306 0 l 1,1,-1
 147 0 l 1,2,-1
 107.373046875 660 l 1,3,-1
 256.373046875 660 l 1,4,-1
 257.165039062 109 l 1,5,-1
 516.373046875 660 l 1,6,-1
 648.373046875 660 l 1,7,-1
 655.165039062 109 l 1,8,-1
 910.373046875 660 l 1,9,-1
 1052.37304688 660 l 1,10,-1
 708 0 l 1,11,-1
 553 0 l 1,12,-1
 544.112304688 360 l 1,13,-1
 549.127929688 516 l 1,14,-1
 547.127929688 516 l 1,15,-1
 480.112304688 360 l 1,0,-1
EndSplineSet
Substitution2: "Single Substitution lookup 56 subtable" W.swsh
Substitution2: "'swsh' Swash lookup 38 subtable" W.swsh
Substitution2: "'c2sc' Capitals to Small Capitals lookup 11 subtable" w.sc
AlternateSubs2: "'aalt' Access All Alternates lookup 1 subtable" w.sc W.swsh
EndChar

StartChar: X
Encoding: 88 88 59
Width: 640
GlyphClass: 2
Flags: W
LayerCount: 2
Fore
SplineSet
560 0 m 1,0,-1
 395 0 l 1,1,-1
 306.177734375 239 l 1,2,-1
 110 0 l 1,3,-1
 -48 0 l 1,4,-1
 255.87890625 333 l 1,5,-1
 120.373046875 660 l 1,6,-1
 283.373046875 660 l 1,7,-1
 364.2734375 430 l 1,8,-1
 551.373046875 660 l 1,9,-1
 700.373046875 660 l 1,10,-1
 414.033203125 338 l 1,11,-1
 560 0 l 1,0,-1
EndSplineSet
Substitution2: "'c2sc' Capitals to Small Capitals lookup 11 subtable" x.sc
Substitution2: "'aalt' Access All Alternates lookup 0 subtable" x.sc
EndChar

StartChar: Y
Encoding: 89 89 60
Width: 626
GlyphClass: 2
Flags: W
LayerCount: 2
Fore
SplineSet
704.373046875 660 m 1,0,-1
 375.024414062 247 l 1,1,-1
 318 0 l 1,2,-1
 180 0 l 1,3,-1
 237.024414062 247 l 1,4,-1
 98.373046875 660 l 1,5,-1
 245.373046875 660 l 1,6,-1
 305.891601562 463 l 1,7,-1
 331.881835938 359 l 1,8,-1
 406.891601562 463 l 1,9,-1
 558.373046875 660 l 1,10,-1
 704.373046875 660 l 1,0,-1
EndSplineSet
Substitution2: "'c2sc' Capitals to Small Capitals lookup 11 subtable" y.sc
Substitution2: "'aalt' Access All Alternates lookup 0 subtable" y.sc
EndChar

StartChar: Z
Encoding: 90 90 61
Width: 633
GlyphClass: 2
Flags: W
LayerCount: 2
Fore
SplineSet
157.395507812 110 m 1,0,-1
 554.395507812 110 l 1,1,-1
 529 0 l 1,2,-1
 -20 0 l 1,3,-1
 4.0107421875 104 l 1,4,-1
 491.977539062 550 l 1,5,-1
 114.977539062 550 l 1,6,-1
 140.373046875 660 l 1,7,-1
 669.373046875 660 l 1,8,-1
 645.362304688 556 l 1,9,-1
 157.395507812 110 l 1,0,-1
EndSplineSet
Substitution2: "'c2sc' Capitals to Small Capitals lookup 11 subtable" z.sc
Substitution2: "'aalt' Access All Alternates lookup 0 subtable" z.sc
EndChar

StartChar: bracketleft
Encoding: 91 91 62
Width: 375
GlyphClass: 2
Flags: W
LayerCount: 2
Fore
SplineSet
425.676757812 618 m 1,0,-1
 284.676757812 618 l 1,1,-1
 126.532226562 -67 l 1,2,-1
 267.532226562 -67 l 1,3,-1
 244.213867188 -168 l 1,4,-1
 -16.7861328125 -168 l 1,5,-1
 187.994140625 719 l 1,6,-1
 448.994140625 719 l 1,7,-1
 425.676757812 618 l 1,0,-1
EndSplineSet
Substitution2: "'case' Case-Sensitive Forms lookup 29 subtable" bracketleft.case
Substitution2: "'sups' Superscript lookup 15 subtable" bracketleftsuperior
Substitution2: "'subs' Subscript lookup 14 subtable" bracketleftinferior
Substitution2: "'sinf' Scientific Inferiors lookup 13 subtable" bracketleftinferior
AlternateSubs2: "'aalt' Access All Alternates lookup 1 subtable" bracketleftinferior bracketleftsuperior bracketleft.case
EndChar

StartChar: backslash
Encoding: 92 92 63
Width: 457
GlyphClass: 2
Flags: W
LayerCount: 2
Fore
SplineSet
121.994140625 719 m 1,0,-1
 249.994140625 719 l 1,1,-1
 356.838867188 -70 l 1,2,-1
 229.838867188 -70 l 1,3,-1
 121.994140625 719 l 1,0,-1
EndSplineSet
EndChar

StartChar: bracketright
Encoding: 93 93 64
Width: 375
GlyphClass: 2
Flags: W
LayerCount: 2
Fore
SplineSet
391.994140625 719 m 1,0,-1
 187.213867188 -168 l 1,1,-1
 -74.7861328125 -168 l 1,2,-1
 -51.4677734375 -67 l 1,3,-1
 89.5322265625 -67 l 1,4,-1
 247.676757812 618 l 1,5,-1
 106.676757812 618 l 1,6,-1
 129.994140625 719 l 1,7,-1
 391.994140625 719 l 1,0,-1
EndSplineSet
Substitution2: "'case' Case-Sensitive Forms lookup 29 subtable" bracketright.case
Substitution2: "'sups' Superscript lookup 15 subtable" bracketrightsuperior
Substitution2: "'subs' Subscript lookup 14 subtable" bracketrightinferior
Substitution2: "'sinf' Scientific Inferiors lookup 13 subtable" bracketrightinferior
AlternateSubs2: "'aalt' Access All Alternates lookup 1 subtable" bracketrightinferior bracketrightsuperior bracketright.case
EndChar

StartChar: asciicircum
Encoding: 94 94 65
Width: 593
GlyphClass: 2
Flags: W
LayerCount: 2
Fore
SplineSet
585.958007812 355 m 1,0,-1
 460.958007812 355 l 1,1,-1
 379.139648438 633 l 1,2,-1
 167.958007812 355 l 1,3,-1
 42.9580078125 355 l 1,4,-1
 340.610351562 726 l 1,5,-1
 459.610351562 726 l 1,6,-1
 585.958007812 355 l 1,0,-1
EndSplineSet
EndChar

StartChar: underscore
Encoding: 95 95 66
Width: 539
GlyphClass: 2
Flags: W
LayerCount: 2
Fore
SplineSet
457.223632812 -77 m 1,0,-1
 431.134765625 -190 l 1,1,-1
 -107.865234375 -190 l 1,2,-1
 -81.7763671875 -77 l 1,3,-1
 457.223632812 -77 l 1,0,-1
EndSplineSet
EndChar

StartChar: grave
Encoding: 96 96 67
Width: 500
GlyphClass: 2
Flags: W
LayerCount: 2
Fore
SplineSet
345.303710938 742 m 1,0,-1
 376.056640625 572 l 1,1,-1
 274.056640625 572 l 1,2,-1
 213.303710938 742 l 1,3,-1
 345.303710938 742 l 1,0,-1
EndSplineSet
EndChar

StartChar: a
Encoding: 97 97 68
Width: 574
GlyphClass: 2
Flags: W
LayerCount: 2
Fore
SplineSet
484.162109375 83 m 0,0,1
 505.162109375 83 505.162109375 83 519.0859375 87 c 1,2,-1
 489.923828125 4 l 1,3,4
 458.69140625 -10 458.69140625 -10 421.69140625 -10 c 0,5,6
 325.69140625 -10 325.69140625 -10 324.006835938 65 c 1,7,8
 260.69140625 -10 260.69140625 -10 129.69140625 -10 c 0,9,10
 56.69140625 -10 56.69140625 -10 23.3095703125 23 c 128,-1,11
 -10.0712890625 56 -10.0712890625 56 4.2421875 118 c 0,12,13
 32.408203125 240 32.408203125 240 235.719726562 276 c 2,14,-1
 361.029296875 299 l 1,15,-1
 366.5703125 323 l 2,16,17
 375.8046875 363 375.8046875 363 358.73046875 386.5 c 128,-1,18
 341.65625 410 341.65625 410 301.65625 410 c 0,19,20
 206.65625 410 206.65625 410 167.032226562 325 c 1,21,-1
 68.65234375 371 l 1,22,23
 99.658203125 436 99.658203125 436 164.200195312 473 c 128,-1,24
 228.743164062 510 228.743164062 510 318.743164062 510 c 0,25,26
 425.743164062 510 425.743164062 510 475.0078125 463.5 c 128,-1,27
 524.272460938 417 524.272460938 417 503.262695312 326 c 2,28,-1
 455.934570312 121 l 2,29,30
 447.162109375 83 447.162109375 83 484.162109375 83 c 0,0,1
194.162109375 83 m 0,31,32
 238.162109375 83 238.162109375 83 279.625976562 104.5 c 128,-1,33
 321.08984375 126 321.08984375 126 329.631835938 163 c 2,34,-1
 341.63671875 215 l 1,35,-1
 229.095703125 191 l 2,36,37
 158.6328125 176 158.6328125 176 148.474609375 132 c 0,38,39
 137.162109375 83 137.162109375 83 194.162109375 83 c 0,31,32
EndSplineSet
Substitution2: "Single Substitution lookup 55 subtable" ordfeminine
Substitution2: "'smcp' Lowercase to Small Capitals lookup 12 subtable" a.sc
AlternateSubs2: "'aalt' Access All Alternates lookup 1 subtable" a.sc ordfeminine
EndChar

StartChar: b
Encoding: 98 98 69
Width: 629
GlyphClass: 2
Flags: W
LayerCount: 2
Fore
SplineSet
419.743164062 510 m 0,0,1
 519.743164062 510 519.743164062 510 560.8125 441 c 128,-1,2
 601.8828125 372 601.8828125 372 573.486328125 249 c 0,3,4
 545.3203125 127 545.3203125 127 472.505859375 58.5 c 128,-1,5
 399.69140625 -10 399.69140625 -10 299.69140625 -10 c 0,6,7
 240.69140625 -10 240.69140625 -10 204.001953125 19.5 c 128,-1,8
 167.3125 49 167.3125 49 156.85546875 99 c 1,9,-1
 129 0 l 1,10,-1
 8 0 l 1,11,-1
 173.994140625 719 l 1,12,-1
 310.994140625 719 l 1,13,-1
 241.502929688 418 l 1,14,15
 311.743164062 510 311.743164062 510 419.743164062 510 c 0,0,1
282.932617188 95 m 0,16,17
 338.932617188 95 338.932617188 95 379.166992188 135 c 128,-1,18
 419.40234375 175 419.40234375 175 436.716796875 250 c 128,-1,19
 454.032226562 325 454.032226562 325 432.266601562 365 c 128,-1,20
 410.501953125 405 410.501953125 405 354.501953125 405 c 0,21,22
 304.501953125 405 304.501953125 405 265.420898438 370 c 128,-1,23
 226.340820312 335 226.340820312 335 207.795898438 272 c 1,24,-1
 197.637695312 228 l 1,25,26
 186.862304688 164 186.862304688 164 209.897460938 129.5 c 128,-1,27
 232.932617188 95 232.932617188 95 282.932617188 95 c 0,16,17
EndSplineSet
Substitution2: "'smcp' Lowercase to Small Capitals lookup 12 subtable" b.sc
Substitution2: "'aalt' Access All Alternates lookup 0 subtable" b.sc
EndChar

StartChar: c
Encoding: 99 99 70
Width: 569
GlyphClass: 2
Flags: W
LayerCount: 2
Fore
SplineSet
354.743164062 510 m 0,0,1
 540.743164062 510 540.743164062 510 549.8046875 363 c 1,2,-1
 411.185546875 317 l 1,3,4
 414.194335938 408 414.194335938 408 335.194335938 408 c 0,5,6
 276.194335938 408 276.194335938 408 235.34375 367.5 c 128,-1,7
 194.494140625 327 194.494140625 327 176.486328125 249 c 128,-1,8
 158.478515625 171 158.478515625 171 181.359375 131.5 c 128,-1,9
 204.240234375 92 204.240234375 92 261.240234375 92 c 0,10,11
 349.240234375 92 349.240234375 92 385.787109375 181 c 1,12,-1
 500.552734375 141 l 1,13,14
 468.622070312 72 468.622070312 72 400.657226562 31 c 128,-1,15
 332.69140625 -10 332.69140625 -10 239.69140625 -10 c 0,16,17
 115.69140625 -10 115.69140625 -10 63.505859375 58.5 c 128,-1,18
 11.3203125 127 11.3203125 127 39.716796875 250 c 128,-1,19
 68.1142578125 373 68.1142578125 373 151.428710938 441.5 c 128,-1,20
 234.743164062 510 234.743164062 510 354.743164062 510 c 0,0,1
EndSplineSet
Substitution2: "'smcp' Lowercase to Small Capitals lookup 12 subtable" c.sc
Substitution2: "'aalt' Access All Alternates lookup 0 subtable" c.sc
EndChar

StartChar: d
Encoding: 100 100 71
Width: 629
GlyphClass: 2
Flags: W
LayerCount: 2
Fore
SplineSet
520.994140625 719 m 1,0,-1
 657.994140625 719 l 1,1,-1
 492 0 l 1,2,-1
 370 0 l 1,3,-1
 385.470703125 93 l 1,4,5
 352.620117188 46 352.620117188 46 302.655273438 18 c 128,-1,6
 252.69140625 -10 252.69140625 -10 196.69140625 -10 c 0,7,8
 96.69140625 -10 96.69140625 -10 55.505859375 58.5 c 128,-1,9
 14.3203125 127 14.3203125 127 42.486328125 249 c 0,10,11
 70.8828125 372 70.8828125 372 143.8125 441 c 128,-1,12
 216.743164062 510 216.743164062 510 316.743164062 510 c 0,13,14
 426.743164062 510 426.743164062 510 451.502929688 418 c 1,15,-1
 520.994140625 719 l 1,0,-1
260.932617188 95 m 0,16,17
 314.932617188 95 314.932617188 95 354.936523438 134 c 128,-1,18
 394.940429688 173 394.940429688 173 411.5625 245 c 2,19,-1
 413.87109375 255 l 2,20,21
 430.262695312 326 430.262695312 326 408.381835938 365.5 c 128,-1,22
 386.501953125 405 386.501953125 405 332.501953125 405 c 0,23,24
 277.501953125 405 277.501953125 405 237.266601562 365 c 128,-1,25
 197.032226562 325 197.032226562 325 179.716796875 250 c 128,-1,26
 162.40234375 175 162.40234375 175 184.166992188 135 c 128,-1,27
 205.932617188 95 205.932617188 95 260.932617188 95 c 0,16,17
EndSplineSet
Substitution2: "'smcp' Lowercase to Small Capitals lookup 12 subtable" d.sc
Substitution2: "'aalt' Access All Alternates lookup 0 subtable" d.sc
EndChar

StartChar: e
Encoding: 101 101 72
Width: 582
GlyphClass: 2
Flags: W
AnchorPoint: "Anchor-0" 236 0 basechar 0
LayerCount: 2
Fore
SplineSet
533.178710938 252 m 0,0,1
 526.71484375 224 526.71484375 224 516.711914062 198 c 1,2,-1
 162.711914062 198 l 1,3,4
 159.240234375 92 159.240234375 92 263.240234375 92 c 0,5,6
 351.240234375 92 351.240234375 92 387.553710938 154 c 1,7,-1
 490.087890625 113 l 1,8,9
 412.69140625 -10 412.69140625 -10 239.69140625 -10 c 0,10,11
 115.69140625 -10 115.69140625 -10 63.505859375 58.5 c 128,-1,12
 11.3203125 127 11.3203125 127 39.716796875 250 c 128,-1,13
 68.1142578125 373 68.1142578125 373 149.928710938 441.5 c 128,-1,14
 231.743164062 510 231.743164062 510 351.743164062 510 c 0,15,16
 467.743164062 510 467.743164062 510 514.774414062 443 c 128,-1,17
 561.806640625 376 561.806640625 376 533.178710938 252 c 0,0,1
327.424804688 409 m 0,18,19
 227.424804688 409 227.424804688 409 183.875 294 c 1,20,-1
 416.875 294 l 1,21,22
 421.803710938 350 421.803710938 350 398.614257812 379.5 c 128,-1,23
 375.424804688 409 375.424804688 409 327.424804688 409 c 0,18,19
EndSplineSet
Substitution2: "'smcp' Lowercase to Small Capitals lookup 12 subtable" e.sc
Substitution2: "'aalt' Access All Alternates lookup 0 subtable" e.sc
EndChar

StartChar: f
Encoding: 102 102 73
Width: 407
GlyphClass: 2
Flags: W
LayerCount: 2
Fore
SplineSet
301.977539062 550 m 2,0,-1
 290.434570312 500 l 1,1,-1
 448.434570312 500 l 1,2,-1
 424.885742188 398 l 1,3,-1
 272.885742188 398 l 1,4,-1
 181 0 l 1,5,-1
 44 0 l 1,6,-1
 135.885742188 398 l 1,7,-1
 48.8857421875 398 l 1,8,-1
 72.4345703125 500 l 1,9,-1
 159.434570312 500 l 1,10,-1
 173.286132812 560 l 2,11,12
 192.217773438 642 192.217773438 642 253.259765625 685.5 c 128,-1,13
 314.302734375 729 314.302734375 729 401.302734375 729 c 0,14,15
 471.302734375 729 471.302734375 729 499.30078125 703 c 1,16,-1
 459.291015625 612 l 1,17,18
 439.75390625 627 439.75390625 627 405.75390625 627 c 0,19,20
 319.75390625 627 319.75390625 627 301.977539062 550 c 2,0,-1
EndSplineSet
Substitution2: "'smcp' Lowercase to Small Capitals lookup 12 subtable" f.sc
Substitution2: "'aalt' Access All Alternates lookup 0 subtable" f.sc
EndChar

StartChar: g
Encoding: 103 103 74
Width: 629
GlyphClass: 2
Flags: W
LayerCount: 2
Fore
SplineSet
487.434570312 500 m 1,0,-1
 607.434570312 500 l 1,1,-1
 501.234375 40 l 2,2,3
 442.36328125 -215 442.36328125 -215 172.36328125 -215 c 0,4,5
 -26.63671875 -215 -26.63671875 -215 -19.0078125 -78 c 1,6,-1
 121.2265625 -38 l 1,7,8
 112.065429688 -121 112.065429688 -121 209.065429688 -121 c 0,9,10
 262.065429688 -121 262.065429688 -121 302.530273438 -86.5 c 128,-1,11
 342.995117188 -52 342.995117188 -52 356.616210938 7 c 2,12,-1
 374.854492188 86 l 1,13,14
 305.078125 9 305.078125 9 200.078125 9 c 0,15,16
 100.078125 9 100.078125 9 58.3154296875 75 c 128,-1,17
 16.552734375 141 16.552734375 141 43.564453125 258 c 0,18,19
 71.037109375 377 71.037109375 377 143.389648438 443.5 c 128,-1,20
 215.743164062 510 215.743164062 510 315.743164062 510 c 0,21,22
 375.743164062 510 375.743164062 510 412.509765625 483 c 128,-1,23
 449.276367188 456 449.276367188 456 459.424804688 409 c 1,24,-1
 487.434570312 500 l 1,0,-1
265.087890625 113 m 0,25,26
 318.087890625 113 318.087890625 113 358.129882812 150 c 128,-1,27
 398.171875 187 398.171875 187 413.640625 254 c 2,28,-1
 415.94921875 264 l 2,29,30
 431.186523438 330 431.186523438 330 408.84375 367.5 c 128,-1,31
 386.501953125 405 386.501953125 405 332.501953125 405 c 0,32,33
 277.501953125 405 277.501953125 405 237.84375 367.5 c 128,-1,34
 198.186523438 330 198.186523438 330 181.794921875 259 c 128,-1,35
 165.403320312 188 165.403320312 188 187.74609375 150.5 c 128,-1,36
 210.087890625 113 210.087890625 113 265.087890625 113 c 0,25,26
EndSplineSet
Substitution2: "'ss01' Style Set 1 lookup 47 subtable" g.ss01
Substitution2: "'salt' Stylistic Alternatives lookup 42 subtable" g.ss01
Substitution2: "'smcp' Lowercase to Small Capitals lookup 12 subtable" g.sc
AlternateSubs2: "'aalt' Access All Alternates lookup 1 subtable" g.sc g.ss01
EndChar

StartChar: h
Encoding: 104 104 75
Width: 619
GlyphClass: 2
Flags: W
LayerCount: 2
Fore
SplineSet
423.743164062 510 m 0,0,1
 504.743164062 510 504.743164062 510 543.391601562 463 c 128,-1,2
 582.041015625 416 582.041015625 416 561.724609375 328 c 2,3,-1
 486 0 l 1,4,-1
 349 0 l 1,5,-1
 415.490234375 288 l 2,6,7
 441.80859375 402 441.80859375 402 352.80859375 402 c 0,8,9
 304.80859375 402 304.80859375 402 263.459960938 368 c 128,-1,10
 222.110351562 334 222.110351562 334 205.94921875 264 c 2,11,-1
 145 0 l 1,12,-1
 8 0 l 1,13,-1
 173.994140625 719 l 1,14,-1
 310.994140625 719 l 1,15,-1
 240.810546875 415 l 1,16,17
 309.743164062 510 309.743164062 510 423.743164062 510 c 0,0,1
EndSplineSet
Substitution2: "'smcp' Lowercase to Small Capitals lookup 12 subtable" h.sc
Substitution2: "'aalt' Access All Alternates lookup 0 subtable" h.sc
EndChar

StartChar: i
Encoding: 105 105 76
Width: 282
GlyphClass: 2
Flags: W
LayerCount: 2
Fore
SplineSet
209.056640625 572 m 128,-1,1
 124.056640625 572 124.056640625 572 140.91015625 645 c 0,2,3
 157.994140625 719 157.994140625 719 242.994140625 719 c 128,-1,4
 327.994140625 719 327.994140625 719 310.91015625 645 c 0,5,0
 294.056640625 572 294.056640625 572 209.056640625 572 c 128,-1,1
260.434570312 500 m 1,6,-1
 145 0 l 1,7,-1
 8 0 l 1,8,-1
 123.434570312 500 l 1,9,-1
 260.434570312 500 l 1,6,-1
EndSplineSet
Substitution2: "'smcp' Lowercase to Small Capitals lookup 12 subtable" i.sc
Substitution2: "'locl' Localized Forms in Latin lookup 6 subtable" i.loclTRK
Substitution2: "'locl' Localized Forms in Latin lookup 5 subtable" i.loclTRK
Substitution2: "'locl' Localized Forms in Latin lookup 4 subtable" i.loclTRK
Substitution2: "'locl' Localized Forms in Latin lookup 3 subtable" i.loclTRK
Substitution2: "'locl' Localized Forms in Latin lookup 2 subtable" i.loclTRK
Substitution2: "'aalt' Access All Alternates lookup 0 subtable" i.sc
EndChar

StartChar: j
Encoding: 106 106 77
Width: 281
GlyphClass: 2
Flags: W
LayerCount: 2
Fore
SplineSet
242.994140625 719 m 128,-1,1
 283.994140625 719 283.994140625 719 301.4921875 699.5 c 128,-1,2
 318.990234375 680 318.990234375 680 310.91015625 645 c 0,3,4
 294.056640625 572 294.056640625 572 209.056640625 572 c 128,-1,5
 124.056640625 572 124.056640625 572 140.91015625 645 c 0,6,7
 148.990234375 680 148.990234375 680 175.4921875 699.5 c 128,-1,0
 201.994140625 719 201.994140625 719 242.994140625 719 c 128,-1,1
260.434570312 500 m 1,8,-1
 136.458007812 -37 l 2,9,10
 114.987304688 -130 114.987304688 -130 57.1748046875 -172.5 c 128,-1,11
 -0.63671875 -215 -0.63671875 -215 -82.63671875 -215 c 0,12,13
 -154.63671875 -215 -154.63671875 -215 -195.249023438 -183 c 1,14,-1
 -150.624023438 -85 l 1,15,16
 -129.165039062 -109 -129.165039062 -109 -86.1650390625 -109 c 0,17,18
 -17.1650390625 -109 -17.1650390625 -109 2.458984375 -24 c 2,19,-1
 123.434570312 500 l 1,20,-1
 260.434570312 500 l 1,8,-1
EndSplineSet
Substitution2: "'smcp' Lowercase to Small Capitals lookup 12 subtable" j.sc
Substitution2: "'aalt' Access All Alternates lookup 0 subtable" j.sc
EndChar

StartChar: k
Encoding: 107 107 78
Width: 602
GlyphClass: 2
Flags: W
AnchorPoint: "Anchor-0" 259 0 basechar 0
LayerCount: 2
Fore
SplineSet
374 0 m 1,0,-1
 287.021484375 221 l 1,1,-1
 173.627929688 124 l 1,2,-1
 145 0 l 1,3,-1
 8 0 l 1,4,-1
 173.994140625 719 l 1,5,-1
 310.994140625 719 l 1,6,-1
 207.795898438 272 l 1,7,-1
 477.434570312 500 l 1,8,-1
 632.434570312 500 l 1,9,-1
 399.18359375 304 l 1,10,-1
 529 0 l 1,11,-1
 374 0 l 1,0,-1
EndSplineSet
Substitution2: "'smcp' Lowercase to Small Capitals lookup 12 subtable" k.sc
Substitution2: "'aalt' Access All Alternates lookup 0 subtable" k.sc
EndChar

StartChar: l
Encoding: 108 108 79
Width: 319
GlyphClass: 2
Flags: W
AnchorPoint: "Anchor-0" 135 0 basechar 0
LayerCount: 2
Fore
SplineSet
308.994140625 719 m 1,0,-1
 179.708007812 159 l 2,1,2
 171.396484375 123 171.396484375 123 178.665039062 109 c 128,-1,3
 185.932617188 95 185.932617188 95 213.932617188 95 c 0,4,5
 242.932617188 95 242.932617188 95 275.471679688 106 c 1,6,-1
 241.5390625 11 l 1,7,8
 200.69140625 -10 200.69140625 -10 143.69140625 -10 c 0,9,10
 70.69140625 -10 70.69140625 -10 45.38671875 25.5 c 128,-1,11
 20.0830078125 61 20.0830078125 61 38.0908203125 139 c 2,12,-1
 171.994140625 719 l 1,13,-1
 308.994140625 719 l 1,0,-1
EndSplineSet
Substitution2: "'ss02' Style Set 2 lookup 48 subtable" l.ss02
Substitution2: "'salt' Stylistic Alternatives lookup 42 subtable" l.ss02
Substitution2: "'smcp' Lowercase to Small Capitals lookup 12 subtable" l.sc
AlternateSubs2: "'aalt' Access All Alternates lookup 1 subtable" l.sc l.ss02
Position2: "Single Positioning lookup 6 subtable" dx=0 dy=0 dh=-40 dv=0
EndChar

StartChar: m
Encoding: 109 109 80
Width: 945
GlyphClass: 2
Flags: W
LayerCount: 2
Fore
SplineSet
751.743164062 510 m 0,0,1
 828.743164062 510 828.743164062 510 868.391601562 463 c 128,-1,2
 908.041015625 416 908.041015625 416 887.724609375 328 c 2,3,-1
 812 0 l 1,4,-1
 675 0 l 1,5,-1
 744.491210938 301 l 2,6,7
 767.80859375 402 767.80859375 402 681.80859375 402 c 0,8,9
 633.80859375 402 633.80859375 402 594.728515625 367 c 128,-1,10
 555.6484375 332 555.6484375 332 541.103515625 269 c 2,11,-1
 479 0 l 1,12,-1
 342 0 l 1,13,-1
 411.491210938 301 l 2,14,15
 434.80859375 402 434.80859375 402 347.80859375 402 c 0,16,17
 302.80859375 402 302.80859375 402 262.34375 367.5 c 128,-1,18
 221.87890625 333 221.87890625 333 206.1796875 265 c 2,19,-1
 145 0 l 1,20,-1
 8 0 l 1,21,-1
 123.434570312 500 l 1,22,-1
 246.434570312 500 l 1,23,-1
 229.88671875 411 l 1,24,25
 303.743164062 510 303.743164062 510 418.743164062 510 c 0,26,27
 474.743164062 510 474.743164062 510 512.240234375 484 c 128,-1,28
 549.737304688 458 549.737304688 458 558.424804688 409 c 1,29,30
 593.737304688 458 593.737304688 458 645.740234375 484 c 128,-1,31
 697.743164062 510 697.743164062 510 751.743164062 510 c 0,0,1
EndSplineSet
Substitution2: "'smcp' Lowercase to Small Capitals lookup 12 subtable" m.sc
Substitution2: "'aalt' Access All Alternates lookup 0 subtable" m.sc
EndChar

StartChar: n
Encoding: 110 110 81
Width: 619
GlyphClass: 2
Flags: W
AnchorPoint: "Anchor-0" 263 0 basechar 0
LayerCount: 2
Fore
SplineSet
423.743164062 510 m 0,0,1
 504.743164062 510 504.743164062 510 543.391601562 463 c 128,-1,2
 582.041015625 416 582.041015625 416 561.724609375 328 c 2,3,-1
 486 0 l 1,4,-1
 349 0 l 1,5,-1
 415.490234375 288 l 2,6,7
 441.80859375 402 441.80859375 402 352.80859375 402 c 0,8,9
 304.80859375 402 304.80859375 402 263.459960938 368 c 128,-1,10
 222.110351562 334 222.110351562 334 205.94921875 264 c 2,11,-1
 145 0 l 1,12,-1
 8 0 l 1,13,-1
 123.434570312 500 l 1,14,-1
 246.434570312 500 l 1,15,-1
 229.88671875 411 l 1,16,17
 302.743164062 510 302.743164062 510 423.743164062 510 c 0,0,1
EndSplineSet
Substitution2: "Single Substitution lookup 57 subtable" n.swsh
Substitution2: "'swsh' Swash lookup 38 subtable" n.swsh
Substitution2: "'smcp' Lowercase to Small Capitals lookup 12 subtable" n.sc
AlternateSubs2: "'aalt' Access All Alternates lookup 1 subtable" n.sc n.swsh
EndChar

StartChar: o
Encoding: 111 111 82
Width: 604
GlyphClass: 2
Flags: W
LayerCount: 2
Fore
SplineSet
355.743164062 510 m 128,-1,1
 476.743164062 510 476.743164062 510 528.3125 441 c 128,-1,2
 579.8828125 372 579.8828125 372 551.716796875 250 c 128,-1,3
 523.55078125 128 523.55078125 128 440.12109375 59 c 128,-1,4
 356.69140625 -10 356.69140625 -10 235.69140625 -10 c 128,-1,5
 114.69140625 -10 114.69140625 -10 63.12109375 59 c 128,-1,6
 11.55078125 128 11.55078125 128 39.716796875 250 c 128,-1,7
 67.8828125 372 67.8828125 372 151.3125 441 c 128,-1,0
 234.743164062 510 234.743164062 510 355.743164062 510 c 128,-1,1
332.194335938 408 m 128,-1,9
 213.194335938 408 213.194335938 408 176.716796875 250 c 128,-1,10
 140.240234375 92 140.240234375 92 259.240234375 92 c 128,-1,11
 378.240234375 92 378.240234375 92 414.716796875 250 c 128,-1,8
 451.194335938 408 451.194335938 408 332.194335938 408 c 128,-1,9
EndSplineSet
Substitution2: "Single Substitution lookup 55 subtable" ordmasculine
Substitution2: "'smcp' Lowercase to Small Capitals lookup 12 subtable" o.sc
AlternateSubs2: "'aalt' Access All Alternates lookup 1 subtable" o.sc ordmasculine
EndChar

StartChar: p
Encoding: 112 112 83
Width: 629
GlyphClass: 2
Flags: W
LayerCount: 2
Fore
SplineSet
419.743164062 510 m 0,0,1
 519.743164062 510 519.743164062 510 560.928710938 441.5 c 128,-1,2
 602.114257812 373 602.114257812 373 573.948242188 251 c 0,3,4
 545.55078125 128 545.55078125 128 472.62109375 59 c 128,-1,5
 399.69140625 -10 399.69140625 -10 299.69140625 -10 c 0,6,7
 191.69140625 -10 191.69140625 -10 163.931640625 82 c 1,8,-1
 96.517578125 -210 l 1,9,-1
 -40.482421875 -210 l 1,10,-1
 123.434570312 500 l 1,11,-1
 244.434570312 500 l 1,12,-1
 226.578125 401 l 1,13,14
 260.12109375 451 260.12109375 451 310.432617188 480.5 c 128,-1,15
 360.743164062 510 360.743164062 510 419.743164062 510 c 0,0,1
282.932617188 95 m 0,16,17
 338.932617188 95 338.932617188 95 379.166992188 135 c 128,-1,18
 419.40234375 175 419.40234375 175 436.716796875 250 c 128,-1,19
 454.032226562 325 454.032226562 325 432.266601562 365 c 128,-1,20
 410.501953125 405 410.501953125 405 354.501953125 405 c 0,21,22
 304.501953125 405 304.501953125 405 265.537109375 370.5 c 128,-1,23
 226.571289062 336 226.571289062 336 207.795898438 272 c 1,24,-1
 197.637695312 228 l 1,25,26
 187.092773438 165 187.092773438 165 210.012695312 130 c 128,-1,27
 232.932617188 95 232.932617188 95 282.932617188 95 c 0,16,17
EndSplineSet
Substitution2: "'smcp' Lowercase to Small Capitals lookup 12 subtable" p.sc
Substitution2: "'aalt' Access All Alternates lookup 0 subtable" p.sc
EndChar

StartChar: q
Encoding: 113 113 84
Width: 629
GlyphClass: 2
Flags: W
LayerCount: 2
Fore
SplineSet
488.434570312 500 m 1,0,-1
 608.434570312 500 l 1,1,-1
 444.517578125 -210 l 1,2,-1
 307.517578125 -210 l 1,3,-1
 375.162109375 83 l 1,4,5
 305.69140625 -10 305.69140625 -10 197.69140625 -10 c 0,6,7
 97.69140625 -10 97.69140625 -10 56.12109375 59 c 128,-1,8
 14.55078125 128 14.55078125 128 42.9482421875 251 c 0,9,10
 71.1142578125 373 71.1142578125 373 143.928710938 441.5 c 128,-1,11
 216.743164062 510 216.743164062 510 316.743164062 510 c 0,12,13
 375.743164062 510 375.743164062 510 412.432617188 480.5 c 128,-1,14
 449.12109375 451 449.12109375 451 459.80859375 402 c 1,15,-1
 488.434570312 500 l 1,0,-1
261.932617188 95 m 0,16,17
 315.932617188 95 315.932617188 95 356.051757812 134.5 c 128,-1,18
 396.170898438 174 396.170898438 174 412.5625 245 c 2,19,-1
 414.87109375 255 l 2,20,21
 431.494140625 327 431.494140625 327 409.498046875 366 c 128,-1,22
 387.501953125 405 387.501953125 405 333.501953125 405 c 0,23,24
 278.501953125 405 278.501953125 405 238.381835938 365.5 c 128,-1,25
 198.262695312 326 198.262695312 326 180.716796875 250 c 128,-1,26
 163.170898438 174 163.170898438 174 185.051757812 134.5 c 128,-1,27
 206.932617188 95 206.932617188 95 261.932617188 95 c 0,16,17
EndSplineSet
Substitution2: "'smcp' Lowercase to Small Capitals lookup 12 subtable" q.sc
Substitution2: "'aalt' Access All Alternates lookup 0 subtable" q.sc
EndChar

StartChar: r
Encoding: 114 114 85
Width: 422
GlyphClass: 2
Flags: W
AnchorPoint: "Anchor-0" 85 0 basechar 0
LayerCount: 2
Fore
SplineSet
408.743164062 510 m 0,0,1
 443.743164062 510 443.743164062 510 460.203125 499 c 1,2,-1
 415.499023438 379 l 1,3,4
 395.961914062 394 395.961914062 394 355.961914062 394 c 0,5,6
 306.961914062 394 306.961914062 394 263.266601562 358.5 c 128,-1,7
 219.5703125 323 219.5703125 323 204.794921875 259 c 2,8,-1
 145 0 l 1,9,-1
 8 0 l 1,10,-1
 123.434570312 500 l 1,11,-1
 242.434570312 500 l 1,12,-1
 228.80859375 402 l 1,13,14
 294.743164062 510 294.743164062 510 408.743164062 510 c 0,0,1
EndSplineSet
Substitution2: "Single Substitution lookup 57 subtable" r.swsh
Substitution2: "'swsh' Swash lookup 38 subtable" r.swsh
Substitution2: "'smcp' Lowercase to Small Capitals lookup 12 subtable" r.sc
AlternateSubs2: "'aalt' Access All Alternates lookup 1 subtable" r.sc r.swsh
EndChar

StartChar: s
Encoding: 115 115 86
Width: 531
GlyphClass: 2
Flags: W
AnchorPoint: "Anchor-0" 213 0 basechar 0
LayerCount: 2
Fore
SplineSet
199.69140625 -10 m 0,0,1
 32.69140625 -10 32.69140625 -10 -10.1455078125 86 c 1,2,-1
 88.7861328125 168 l 1,3,4
 106.778320312 90 106.778320312 90 220.778320312 90 c 0,5,6
 264.778320312 90 264.778320312 90 291.548828125 102 c 128,-1,7
 318.319335938 114 318.319335938 114 323.166992188 135 c 0,8,9
 327.091796875 152 327.091796875 152 307.362304688 164 c 128,-1,10
 287.6328125 176 287.6328125 176 235.171875 187 c 0,11,12
 125.482421875 210 125.482421875 210 87.6396484375 247.5 c 128,-1,13
 49.7978515625 285 49.7978515625 285 64.5732421875 349 c 0,14,15
 79.5791015625 414 79.5791015625 414 150.661132812 462 c 128,-1,16
 221.743164062 510 221.743164062 510 326.743164062 510 c 0,17,18
 410.743164062 510 410.743164062 510 456.85546875 484.5 c 128,-1,19
 502.96875 459 502.96875 459 525.270507812 404 c 1,20,-1
 417.494140625 327 l 1,21,22
 400.65625 410 400.65625 410 305.65625 410 c 0,23,24
 264.65625 410 264.65625 410 236.923828125 396 c 128,-1,25
 209.19140625 382 209.19140625 382 204.57421875 362 c 0,26,27
 199.725585938 341 199.725585938 341 220.494140625 327 c 128,-1,28
 241.26171875 313 241.26171875 313 299.491210938 301 c 0,29,30
 403.412109375 279 403.412109375 279 440.716796875 243.5 c 128,-1,31
 478.020507812 208 478.020507812 208 463.475585938 145 c 0,32,33
 447.315429688 75 447.315429688 75 378.002929688 32.5 c 128,-1,34
 308.69140625 -10 308.69140625 -10 199.69140625 -10 c 0,0,1
EndSplineSet
Substitution2: "'hist' Historical Forms lookup 44 subtable" longs
Substitution2: "'smcp' Lowercase to Small Capitals lookup 12 subtable" s.sc
AlternateSubs2: "'aalt' Access All Alternates lookup 1 subtable" s.sc longs
EndChar

StartChar: t
Encoding: 116 116 87
Width: 429
GlyphClass: 2
Flags: W
AnchorPoint: "Anchor-0" 190 0 basechar 0
LayerCount: 2
Fore
SplineSet
358.166015625 122 m 1,0,-1
 358.157226562 31 l 1,1,2
 298.69140625 -10 298.69140625 -10 211.69140625 -10 c 0,3,4
 44.69140625 -10 44.69140625 -10 79.552734375 141 c 2,5,-1
 138.885742188 398 l 1,6,-1
 47.8857421875 398 l 1,7,-1
 71.4345703125 500 l 1,8,-1
 162.434570312 500 l 1,9,-1
 188.984375 615 l 1,10,-1
 334.756835938 653 l 1,11,-1
 299.434570312 500 l 1,12,-1
 461.434570312 500 l 1,13,-1
 437.885742188 398 l 1,14,-1
 275.885742188 398 l 1,15,-1
 221.631835938 163 l 2,16,17
 205.701171875 94 205.701171875 94 274.701171875 94 c 0,18,19
 318.701171875 94 318.701171875 94 358.166015625 122 c 1,0,-1
EndSplineSet
Substitution2: "Single Substitution lookup 57 subtable" t.swsh
Substitution2: "'swsh' Swash lookup 38 subtable" t.swsh
Substitution2: "'smcp' Lowercase to Small Capitals lookup 12 subtable" t.sc
AlternateSubs2: "'aalt' Access All Alternates lookup 1 subtable" t.sc t.swsh
EndChar

StartChar: u
Encoding: 117 117 88
Width: 619
GlyphClass: 2
Flags: W
LayerCount: 2
Fore
SplineSet
461.434570312 500 m 1,0,-1
 598.434570312 500 l 1,1,-1
 483 0 l 1,2,-1
 361 0 l 1,3,-1
 375.854492188 86 l 1,4,5
 305.69140625 -10 305.69140625 -10 178.69140625 -10 c 0,6,7
 97.69140625 -10 97.69140625 -10 60.234375 33.5 c 128,-1,8
 22.7763671875 77 22.7763671875 77 44.0166015625 169 c 2,9,-1
 120.434570312 500 l 1,10,-1
 257.434570312 500 l 1,11,-1
 189.096679688 204 l 2,12,13
 175.70703125 146 175.70703125 146 192.166015625 122 c 128,-1,14
 208.625 98 208.625 98 251.625 98 c 0,15,16
 303.625 98 303.625 98 343.859375 131.5 c 128,-1,17
 384.092773438 165 384.092773438 165 399.561523438 232 c 2,18,-1
 461.434570312 500 l 1,0,-1
EndSplineSet
Substitution2: "'smcp' Lowercase to Small Capitals lookup 12 subtable" u.sc
Substitution2: "'aalt' Access All Alternates lookup 0 subtable" u.sc
EndChar

StartChar: v
Encoding: 118 118 89
Width: 546
GlyphClass: 2
Flags: W
LayerCount: 2
Fore
SplineSet
451.434570312 500 m 1,0,-1
 593.434570312 500 l 1,1,-1
 288 0 l 1,2,-1
 130 0 l 1,3,-1
 55.4345703125 500 l 1,4,-1
 202.434570312 500 l 1,5,-1
 232.163085938 96 l 1,6,-1
 451.434570312 500 l 1,0,-1
EndSplineSet
Substitution2: "'smcp' Lowercase to Small Capitals lookup 12 subtable" v.sc
Substitution2: "'aalt' Access All Alternates lookup 0 subtable" v.sc
EndChar

StartChar: w
Encoding: 119 119 90
Width: 889
GlyphClass: 2
Flags: W
LayerCount: 2
Fore
SplineSet
775.434570312 500 m 1,0,-1
 920.434570312 500 l 1,1,-1
 646 0 l 1,2,-1
 487 0 l 1,3,-1
 459.49609375 353 l 1,4,-1
 273 0 l 1,5,-1
 115 0 l 1,6,-1
 71.4345703125 500 l 1,7,-1
 216.434570312 500 l 1,8,-1
 226.395507812 110 l 1,9,-1
 428.434570312 500 l 1,10,-1
 563.434570312 500 l 1,11,-1
 585.395507812 110 l 1,12,-1
 775.434570312 500 l 1,0,-1
EndSplineSet
Substitution2: "'smcp' Lowercase to Small Capitals lookup 12 subtable" w.sc
Substitution2: "'aalt' Access All Alternates lookup 0 subtable" w.sc
EndChar

StartChar: x
Encoding: 120 120 91
Width: 569
GlyphClass: 2
Flags: W
LayerCount: 2
Fore
SplineSet
488 0 m 1,0,-1
 331 0 l 1,1,-1
 260.017578125 182 l 1,2,-1
 103 0 l 1,3,-1
 -50 0 l 1,4,-1
 192.409179688 253 l 1,5,-1
 74.4345703125 500 l 1,6,-1
 232.434570312 500 l 1,7,-1
 299.032226562 325 l 1,8,-1
 446.434570312 500 l 1,9,-1
 600.434570312 500 l 1,10,-1
 366.409179688 253 l 1,11,-1
 488 0 l 1,0,-1
EndSplineSet
Substitution2: "'smcp' Lowercase to Small Capitals lookup 12 subtable" x.sc
Substitution2: "'aalt' Access All Alternates lookup 0 subtable" x.sc
EndChar

StartChar: y
Encoding: 121 121 92
Width: 557
GlyphClass: 2
Flags: W
LayerCount: 2
Fore
SplineSet
602.434570312 500 m 1,0,-1
 277.842773438 -31 l 2,1,2
 217.294921875 -133 217.294921875 -133 159.329101562 -174 c 128,-1,3
 101.36328125 -215 101.36328125 -215 20.36328125 -215 c 128,-1,4
 -60.63671875 -215 -60.63671875 -215 -97.6328125 -176 c 1,5,-1
 -41.23828125 -79 l 1,6,7
 -21.3955078125 -110 -21.3955078125 -110 35.6044921875 -110 c 0,8,9
 66.6044921875 -110 66.6044921875 -110 88.60546875 -97 c 128,-1,10
 110.607421875 -84 110.607421875 -84 131.45703125 -50 c 2,11,-1
 159.383789062 -7 l 1,12,-1
 134.396484375 123 l 1,13,-1
 68.4345703125 500 l 1,14,-1
 220.434570312 500 l 1,15,-1
 245.173828125 200 l 1,16,-1
 249.086914062 100 l 1,17,-1
 303.55859375 206 l 1,18,-1
 463.434570312 500 l 1,19,-1
 602.434570312 500 l 1,0,-1
EndSplineSet
Substitution2: "Single Substitution lookup 57 subtable" y.swsh
Substitution2: "'swsh' Swash lookup 38 subtable" y.swsh
Substitution2: "'smcp' Lowercase to Small Capitals lookup 12 subtable" y.sc
AlternateSubs2: "'aalt' Access All Alternates lookup 1 subtable" y.sc y.swsh
EndChar

StartChar: z
Encoding: 122 122 93
Width: 522
GlyphClass: 2
Flags: W
LayerCount: 2
Fore
SplineSet
-20 0 m 1,0,-1
 0.31640625 88 l 1,1,-1
 280.418945312 344 l 1,2,-1
 350.578125 401 l 1,3,-1
 267.116210938 399 l 1,4,-1
 74.1162109375 399 l 1,5,-1
 97.4345703125 500 l 1,6,-1
 525.434570312 500 l 1,7,-1
 505.118164062 412 l 1,8,-1
 225.24609375 157 l 1,9,-1
 154.85546875 99 l 1,10,-1
 247.317382812 101 l 1,11,-1
 442.317382812 101 l 1,12,-1
 419 0 l 1,13,-1
 -20 0 l 1,0,-1
EndSplineSet
Substitution2: "'smcp' Lowercase to Small Capitals lookup 12 subtable" z.sc
Substitution2: "'aalt' Access All Alternates lookup 0 subtable" z.sc
EndChar

StartChar: braceleft
Encoding: 123 123 94
Width: 395
GlyphClass: 2
Flags: W
LayerCount: 2
Fore
SplineSet
191.766601562 -27 m 2,0,1
 182.993164062 -65 182.993164062 -65 203.184570312 -81.5 c 128,-1,2
 223.375 -98 223.375 -98 277.375 -98 c 1,3,-1
 247.904296875 -191 l 1,4,5
 135.904296875 -191 135.904296875 -191 96.3310546875 -154.5 c 128,-1,6
 56.7578125 -118 56.7578125 -118 75.4580078125 -37 c 2,7,-1
 112.627929688 124 l 2,8,9
 125.556640625 180 125.556640625 180 105.596679688 204 c 128,-1,10
 85.6376953125 228 85.6376953125 228 24.6376953125 228 c 1,11,-1
 46.5703125 323 l 1,12,13
 107.5703125 323 107.5703125 323 138.611328125 347 c 128,-1,14
 169.65234375 371 169.65234375 371 182.581054688 427 c 2,15,-1
 219.981445312 589 l 2,16,17
 238.451171875 669 238.451171875 669 294.877929688 705.5 c 128,-1,18
 351.303710938 742 351.303710938 742 463.303710938 742 c 1,19,-1
 449.833007812 649 l 1,20,21
 395.833007812 649 395.833007812 649 368.024414062 632.5 c 128,-1,22
 340.21484375 616 340.21484375 616 331.44140625 578 c 2,23,-1
 290.80859375 402 l 2,24,25
 268.18359375 304 268.18359375 304 155.48828125 275 c 1,26,27
 255.024414062 247 255.024414062 247 232.399414062 149 c 2,28,-1
 191.766601562 -27 l 2,0,1
EndSplineSet
Substitution2: "'case' Case-Sensitive Forms lookup 29 subtable" braceleft.case
Substitution2: "'aalt' Access All Alternates lookup 0 subtable" braceleft.case
EndChar

StartChar: bar
Encoding: 124 124 95
Width: 292
GlyphClass: 2
Flags: W
LayerCount: 2
Fore
SplineSet
307.994140625 719 m 1,0,-1
 103.213867188 -168 l 1,1,-1
 -16.7861328125 -168 l 1,2,-1
 187.994140625 719 l 1,3,-1
 307.994140625 719 l 1,0,-1
EndSplineSet
Substitution2: "'case' Case-Sensitive Forms lookup 29 subtable" bar.case
Substitution2: "'aalt' Access All Alternates lookup 0 subtable" bar.case
EndChar

StartChar: braceright
Encoding: 125 125 96
Width: 395
GlyphClass: 2
Flags: W
LayerCount: 2
Fore
SplineSet
280.581054688 427 m 2,0,1
 267.65234375 371 267.65234375 371 287.611328125 347 c 128,-1,2
 307.5703125 323 307.5703125 323 368.5703125 323 c 1,3,-1
 346.637695312 228 l 1,4,5
 285.637695312 228 285.637695312 228 254.596679688 204 c 128,-1,6
 223.556640625 180 223.556640625 180 210.627929688 124 c 2,7,-1
 173.458007812 -37 l 2,8,9
 154.7578125 -118 154.7578125 -118 98.8310546875 -154.5 c 128,-1,10
 42.904296875 -191 42.904296875 -191 -70.095703125 -191 c 1,11,-1
 -56.625 -98 l 1,12,13
 -1.625 -98 -1.625 -98 26.1845703125 -81.5 c 128,-1,14
 53.9931640625 -65 53.9931640625 -65 62.7666015625 -27 c 2,15,-1
 103.399414062 149 l 2,16,17
 126.024414062 247 126.024414062 247 238.719726562 276 c 1,18,19
 139.18359375 304 139.18359375 304 161.80859375 402 c 2,20,-1
 202.44140625 578 l 2,21,22
 211.21484375 616 211.21484375 616 191.024414062 632.5 c 128,-1,23
 170.833007812 649 170.833007812 649 115.833007812 649 c 1,24,-1
 145.303710938 742 l 1,25,26
 257.303710938 742 257.303710938 742 296.993164062 706 c 128,-1,27
 336.681640625 670 336.681640625 670 317.981445312 589 c 2,28,-1
 280.581054688 427 l 2,0,1
EndSplineSet
Substitution2: "'case' Case-Sensitive Forms lookup 29 subtable" braceright.case
Substitution2: "'aalt' Access All Alternates lookup 0 subtable" braceright.case
EndChar

StartChar: asciitilde
Encoding: 126 126 97
Width: 576
GlyphClass: 2
Flags: W
LayerCount: 2
Fore
SplineSet
563.65625 410 m 1,0,1
 511.561523438 232 511.561523438 232 373.561523438 232 c 0,2,3
 333.561523438 232 333.561523438 232 304.986328125 249 c 128,-1,4
 276.411132812 266 276.411132812 266 255.3359375 283 c 128,-1,5
 234.260742188 300 234.260742188 300 213.260742188 300 c 0,6,7
 169.260742188 300 169.260742188 300 145.25390625 235 c 1,8,-1
 33.25390625 235 l 1,9,10
 85.3486328125 413 85.3486328125 413 224.348632812 413 c 0,11,12
 263.348632812 413 263.348632812 413 291.923828125 396 c 128,-1,13
 320.499023438 379 320.499023438 379 342.07421875 362 c 128,-1,14
 363.649414062 345 363.649414062 345 384.649414062 345 c 0,15,16
 427.649414062 345 427.649414062 345 451.65625 410 c 1,17,-1
 563.65625 410 l 1,0,1
EndSplineSet
EndChar

StartChar: exclamdown
Encoding: 161 161 99
Width: 286
GlyphClass: 2
Flags: W
LayerCount: 2
Fore
SplineSet
160.958007812 355 m 128,-1,1
 121.958007812 355 121.958007812 355 103.806640625 376 c 128,-1,2
 85.654296875 397 85.654296875 397 93.7353515625 432 c 128,-1,3
 101.815429688 467 101.815429688 467 129.6640625 488 c 128,-1,4
 157.51171875 509 157.51171875 509 196.51171875 509 c 128,-1,5
 235.51171875 509 235.51171875 509 253.6640625 488 c 128,-1,6
 271.815429688 467 271.815429688 467 263.735351562 432 c 128,-1,7
 255.654296875 397 255.654296875 397 227.806640625 376 c 128,-1,0
 199.958007812 355 199.958007812 355 160.958007812 355 c 128,-1,1
-29.9384765625 -160 m 1,8,-1
 25.4697265625 80 l 1,9,-1
 90.2587890625 287 l 1,10,-1
 200.258789062 287 l 1,11,-1
 169.469726562 80 l 1,12,-1
 114.061523438 -160 l 1,13,-1
 -29.9384765625 -160 l 1,8,-1
EndSplineSet
Substitution2: "'case' Case-Sensitive Forms lookup 29 subtable" exclamdown.case
Substitution2: "'smcp' Lowercase to Small Capitals lookup 12 subtable" exclamdown.sc
Substitution2: "'c2sc' Capitals to Small Capitals lookup 11 subtable" exclamdown.sc
AlternateSubs2: "'aalt' Access All Alternates lookup 1 subtable" exclamdown.sc exclamdown.case
EndChar

StartChar: cent
Encoding: 162 162 100
Width: 604
GlyphClass: 2
Flags: W
LayerCount: 2
Fore
SplineSet
508.783203125 142 m 1,0,1
 482.0078125 78 482.0078125 78 423.2734375 38 c 128,-1,2
 364.538085938 -2 364.538085938 -2 282.921875 -9 c 1,3,-1
 261.913085938 -100 l 1,4,-1
 181.913085938 -100 l 1,5,-1
 203.383789062 -7 l 1,6,7
 104.154296875 5 104.154296875 5 64.1220703125 72 c 128,-1,8
 24.0908203125 139 24.0908203125 139 49.716796875 250 c 128,-1,9
 75.34375 361 75.34375 361 146.926757812 428.5 c 128,-1,10
 218.510742188 496 218.510742188 496 322.28125 508 c 1,11,-1
 343.520507812 600 l 1,12,-1
 423.520507812 600 l 1,13,-1
 402.28125 508 l 1,14,15
 555.048828125 494 555.048828125 494 556.8046875 363 c 1,16,-1
 437.877929688 320 l 1,17,18
 438.654296875 397 438.654296875 397 380.579101562 414 c 1,19,-1
 304.624023438 85 l 1,20,21
 376.086914062 100 376.086914062 100 411.094726562 178 c 1,22,-1
 508.783203125 142 l 1,0,1
170.486328125 249 m 0,23,24
 138.625976562 111 138.625976562 111 224.854492188 86 c 1,25,-1
 300.579101562 414 l 1,26,27
 202.577148438 388 202.577148438 388 170.486328125 249 c 0,23,24
EndSplineSet
Substitution2: "'tnum' Tabular Numbers lookup 26 subtable" cent.tf
Substitution2: "'aalt' Access All Alternates lookup 0 subtable" cent.tf
EndChar

StartChar: sterling
Encoding: 163 163 101
Width: 604
GlyphClass: 2
Flags: W
LayerCount: 2
Fore
SplineSet
537.5546875 167 m 1,0,1
 520.624023438 85 520.624023438 85 475.657226562 37.5 c 128,-1,2
 430.69140625 -10 430.69140625 -10 362.69140625 -10 c 0,3,4
 299.69140625 -10 299.69140625 -10 231.850585938 47 c 1,5,6
 164.69140625 -10 164.69140625 -10 82.69140625 -10 c 0,7,8
 30.69140625 -10 30.69140625 -10 4.34765625 14.5 c 128,-1,9
 -21.99609375 39 -21.99609375 39 -12.5302734375 80 c 128,-1,10
 -3.0654296875 121 -3.0654296875 121 36.822265625 146.5 c 128,-1,11
 76.708984375 172 76.708984375 172 131.708984375 172 c 0,12,13
 177.708984375 172 177.708984375 172 214.477539062 158 c 1,14,-1
 216.5546875 167 l 2,15,16
 228.329101562 218 228.329101562 218 208.795898438 272 c 1,17,-1
 55.7958984375 272 l 1,18,-1
 74.7275390625 354 l 1,19,-1
 169.727539062 354 l 1,20,21
 142.502929688 418 142.502929688 418 154.969726562 472 c 0,22,23
 174.59375 557 174.59375 557 247.637695312 613.5 c 128,-1,24
 320.681640625 670 320.681640625 670 421.681640625 670 c 0,25,26
 509.681640625 670 509.681640625 670 551.215820312 629 c 128,-1,27
 592.750976562 588 592.750976562 588 593.126953125 503 c 1,28,-1
 470.814453125 454 l 1,29,30
 472.973632812 511 472.973632812 511 454.20703125 538 c 128,-1,31
 435.440429688 565 435.440429688 565 391.440429688 565 c 128,-1,32
 347.440429688 565 347.440429688 565 316.284179688 540.5 c 128,-1,33
 285.127929688 516 285.127929688 516 275.200195312 473 c 0,34,35
 265.735351562 432 265.735351562 432 295.8046875 363 c 2,36,-1
 299.727539062 354 l 1,37,-1
 486.727539062 354 l 1,38,-1
 467.795898438 272 l 1,39,-1
 324.795898438 272 l 1,40,41
 329.715820312 237 329.715820312 237 318.633789062 189 c 0,42,43
 306.70703125 146 306.70703125 146 287.087890625 113 c 1,44,45
 323.854492188 86 323.854492188 86 362.854492188 86 c 0,46,47
 397.854492188 86 397.854492188 86 418.203125 107 c 128,-1,48
 438.55078125 128 438.55078125 128 448.40234375 175 c 1,49,-1
 537.5546875 167 l 1,0,1
103.54296875 50 m 0,50,51
 150.54296875 50 150.54296875 50 181.31640625 88 c 1,52,53
 147.165039062 109 147.165039062 109 116.165039062 109 c 0,54,55
 76.1650390625 109 76.1650390625 109 69.7001953125 81 c 0,56,57
 62.54296875 50 62.54296875 50 103.54296875 50 c 0,50,51
EndSplineSet
Substitution2: "'tnum' Tabular Numbers lookup 26 subtable" sterling.tf
Substitution2: "'aalt' Access All Alternates lookup 0 subtable" sterling.tf
EndChar

StartChar: currency
Encoding: 164 164 102
Width: 604
GlyphClass: 2
Flags: W
LayerCount: 2
Fore
SplineSet
525.956054688 329 m 0,0,1
 511.641601562 267 511.641601562 267 471.329101562 218 c 1,2,-1
 546.474609375 132 l 1,3,-1
 446.774414062 51 l 1,4,-1
 379.70703125 146 l 1,5,6
 326.704101562 120 326.704101562 120 265.704101562 120 c 128,-1,7
 204.704101562 120 204.704101562 120 161.9375 147 c 1,8,-1
 51.7744140625 51 l 1,9,-1
 -9.525390625 132 l 1,10,-1
 103.560546875 219 l 1,11,12
 86.6416015625 267 86.6416015625 267 100.956054688 329 c 0,13,14
 115.731445312 393 115.731445312 393 155.58203125 440 c 1,15,-1
 81.4365234375 526 l 1,16,-1
 180.13671875 607 l 1,17,-1
 247.204101562 512 l 1,18,19
 300.20703125 538 300.20703125 538 362.20703125 538 c 0,20,21
 426.20703125 538 426.20703125 538 465.973632812 511 c 1,22,-1
 575.13671875 607 l 1,23,-1
 637.436523438 526 l 1,24,-1
 524.120117188 438 l 1,25,26
 539.807617188 389 539.807617188 389 525.956054688 329 c 0,0,1
289.483398438 223 m 128,-1,28
 333.483398438 223 333.483398438 223 368.293945312 252.5 c 128,-1,29
 403.104492188 282 403.104492188 282 413.956054688 329 c 128,-1,30
 424.806640625 376 424.806640625 376 403.6171875 405.5 c 128,-1,31
 382.427734375 435 382.427734375 435 338.427734375 435 c 128,-1,32
 294.427734375 435 294.427734375 435 259.1171875 405.5 c 128,-1,33
 223.806640625 376 223.806640625 376 212.956054688 329 c 128,-1,34
 202.104492188 282 202.104492188 282 223.793945312 252.5 c 128,-1,27
 245.483398438 223 245.483398438 223 289.483398438 223 c 128,-1,28
EndSplineSet
Substitution2: "'tnum' Tabular Numbers lookup 26 subtable" currency.tf
Substitution2: "'aalt' Access All Alternates lookup 0 subtable" currency.tf
EndChar

StartChar: yen
Encoding: 165 165 103
Width: 604
GlyphClass: 2
Flags: W
LayerCount: 2
Fore
SplineSet
389.260742188 300 m 1,0,-1
 434.72265625 302 l 1,1,-1
 549.72265625 302 l 1,2,-1
 535.870117188 242 l 1,3,-1
 356.870117188 242 l 1,4,-1
 340.940429688 173 l 1,5,-1
 519.940429688 173 l 1,6,-1
 506.780273438 116 l 1,7,-1
 327.780273438 116 l 1,8,-1
 301 0 l 1,9,-1
 175 0 l 1,10,-1
 201.780273438 116 l 1,11,-1
 23.7802734375 116 l 1,12,-1
 36.9404296875 173 l 1,13,-1
 214.940429688 173 l 1,14,-1
 230.870117188 242 l 1,15,-1
 52.8701171875 242 l 1,16,-1
 66.72265625 302 l 1,17,-1
 180.72265625 302 l 1,18,-1
 225.260742188 300 l 1,19,-1
 109.373046875 660 l 1,20,-1
 244.373046875 660 l 1,21,-1
 299.3515625 439 l 1,22,-1
 314.802734375 337 l 1,23,-1
 316.802734375 337 l 1,24,-1
 379.3515625 439 l 1,25,-1
 536.373046875 660 l 1,26,-1
 671.373046875 660 l 1,27,-1
 389.260742188 300 l 1,0,-1
EndSplineSet
Substitution2: "'tnum' Tabular Numbers lookup 26 subtable" yen.tf
Substitution2: "'aalt' Access All Alternates lookup 0 subtable" yen.tf
EndChar

StartChar: brokenbar
Encoding: 166 166 104
Width: 266
GlyphClass: 2
Flags: W
LayerCount: 2
Fore
SplineSet
294.994140625 719 m 1,0,-1
 208.649414062 345 l 1,1,-1
 88.6494140625 345 l 1,2,-1
 174.994140625 719 l 1,3,-1
 294.994140625 719 l 1,0,-1
176.55859375 206 m 1,4,-1
 90.2138671875 -168 l 1,5,-1
 -29.7861328125 -168 l 1,6,-1
 56.55859375 206 l 1,7,-1
 176.55859375 206 l 1,4,-1
EndSplineSet
EndChar

StartChar: section
Encoding: 167 167 105
Width: 614
GlyphClass: 2
Flags: W
LayerCount: 2
Fore
SplineSet
588.48828125 275 m 0,0,1
 568.171875 187 568.171875 187 475.705078125 133 c 1,2,3
 488.548828125 102 488.548828125 102 477.236328125 53 c 0,4,5
 460.151367188 -21 460.151367188 -21 389.877929688 -65.5 c 128,-1,6
 319.604492188 -110 319.604492188 -110 216.604492188 -110 c 0,7,8
 134.604492188 -110 134.604492188 -110 87.2607421875 -85.5 c 128,-1,9
 39.9169921875 -61 39.9169921875 -61 13.2294921875 -12 c 1,10,-1
 106.159179688 57 l 1,11,12
 135.767578125 -14 135.767578125 -14 237.767578125 -14 c 0,13,14
 352.767578125 -14 352.767578125 -14 365.465820312 41 c 0,15,16
 372.853515625 73 372.853515625 73 343.893554688 90.5 c 128,-1,17
 314.93359375 108 314.93359375 108 232.2421875 118 c 0,18,19
 105.474609375 132 105.474609375 132 58.36328125 170.5 c 128,-1,20
 11.2509765625 209 11.2509765625 209 27.6435546875 280 c 0,21,22
 48.1904296875 369 48.1904296875 369 140.1953125 421 c 1,23,24
 127.814453125 454 127.814453125 454 138.895507812 502 c 0,25,26
 155.98046875 576 155.98046875 576 227.831054688 623 c 128,-1,27
 299.681640625 670 299.681640625 670 404.681640625 670 c 0,28,29
 488.681640625 670 488.681640625 670 533.41015625 645 c 128,-1,30
 578.138671875 620 578.138671875 620 604.056640625 572 c 1,31,-1
 513.126953125 503 l 1,32,33
 494.668945312 540 494.668945312 540 465.59375 557 c 128,-1,34
 436.518554688 574 436.518554688 574 382.518554688 574 c 0,35,36
 325.518554688 574 325.518554688 574 291.32421875 558 c 128,-1,37
 257.130859375 542 257.130859375 542 250.666015625 514 c 0,38,39
 243.047851562 481 243.047851562 481 272.123046875 464 c 128,-1,40
 301.198242188 447 301.198242188 447 383.889648438 437 c 0,41,42
 510.657226562 423 510.657226562 423 557.768554688 384.5 c 128,-1,43
 604.880859375 346 604.880859375 346 588.48828125 275 c 0,0,1
137.798828125 298 m 0,44,45
 130.641601562 267 130.641601562 267 159.448242188 251 c 128,-1,46
 188.25390625 235 188.25390625 235 269.17578125 226 c 0,47,48
 361.63671875 215 361.63671875 215 410.788085938 194 c 1,49,50
 469.329101562 218 469.329101562 218 478.333007812 257 c 0,51,52
 485.490234375 288 485.490234375 288 456.68359375 304 c 128,-1,53
 427.877929688 320 427.877929688 320 346.956054688 329 c 0,54,55
 257.033203125 338 257.033203125 338 205.34375 361 c 1,56,57
 146.802734375 337 146.802734375 337 137.798828125 298 c 0,44,45
EndSplineSet
EndChar

StartChar: dieresis
Encoding: 168 168 106
Width: 500
GlyphClass: 2
Flags: W
LayerCount: 2
Fore
SplineSet
244.76171875 705 m 0,0,1
 279.76171875 705 279.76171875 705 295.375976562 686 c 128,-1,2
 310.989257812 667 310.989257812 667 303.6015625 635 c 128,-1,3
 296.213867188 603 296.213867188 603 271.827148438 584 c 128,-1,4
 247.440429688 565 247.440429688 565 212.440429688 565 c 0,5,6
 178.440429688 565 178.440429688 565 162.827148438 584 c 128,-1,7
 147.213867188 603 147.213867188 603 154.6015625 635 c 128,-1,8
 161.989257812 667 161.989257812 667 186.375976562 686 c 128,-1,9
 210.76171875 705 210.76171875 705 244.76171875 705 c 0,0,1
454.76171875 705 m 0,10,11
 489.76171875 705 489.76171875 705 505.875976562 686 c 128,-1,12
 521.989257812 667 521.989257812 667 514.6015625 635 c 128,-1,13
 507.213867188 603 507.213867188 603 482.327148438 584 c 128,-1,14
 457.440429688 565 457.440429688 565 422.440429688 565 c 0,15,16
 388.440429688 565 388.440429688 565 372.827148438 584 c 128,-1,17
 357.213867188 603 357.213867188 603 364.6015625 635 c 128,-1,18
 371.989257812 667 371.989257812 667 396.375976562 686 c 128,-1,19
 420.76171875 705 420.76171875 705 454.76171875 705 c 0,10,11
EndSplineSet
EndChar

StartChar: copyright
Encoding: 169 169 107
Width: 790
GlyphClass: 2
Flags: W
LayerCount: 2
Fore
SplineSet
485.681640625 670 m 0,0,1
 641.681640625 670 641.681640625 670 713.826171875 577.5 c 128,-1,2
 785.970703125 485 785.970703125 485 750.186523438 330 c 128,-1,3
 714.40234375 175 714.40234375 175 599.546875 82.5 c 128,-1,4
 484.69140625 -10 484.69140625 -10 328.69140625 -10 c 0,5,6
 171.69140625 -10 171.69140625 -10 99.546875 82.5 c 128,-1,7
 27.40234375 175 27.40234375 175 63.1865234375 330 c 128,-1,8
 98.970703125 485 98.970703125 485 213.826171875 577.5 c 128,-1,9
 328.681640625 670 328.681640625 670 485.681640625 670 c 0,0,1
467.905273438 593 m 0,10,11
 348.905273438 593 348.905273438 593 261.282226562 521 c 128,-1,12
 173.66015625 449 173.66015625 449 146.186523438 330 c 128,-1,13
 118.712890625 211 118.712890625 211 173.090820312 139 c 128,-1,14
 227.467773438 67 227.467773438 67 346.467773438 67 c 0,15,16
 464.467773438 67 464.467773438 67 552.590820312 139 c 128,-1,17
 640.712890625 211 640.712890625 211 668.186523438 330 c 128,-1,18
 695.66015625 449 695.66015625 449 640.782226562 521 c 128,-1,19
 585.905273438 593 585.905273438 593 467.905273438 593 c 0,10,11
450.58984375 518 m 0,20,21
 582.58984375 518 582.58984375 518 597.348632812 413 c 1,22,-1
 505.8828125 372 l 1,23,24
 496.426757812 422 496.426757812 422 434.426757812 422 c 0,25,26
 393.426757812 422 393.426757812 422 365.270507812 397.5 c 128,-1,27
 337.114257812 373 337.114257812 373 326.956054688 329 c 0,28,29
 316.56640625 284 316.56640625 284 333.91015625 259.5 c 128,-1,30
 351.25390625 235 351.25390625 235 392.25390625 235 c 0,31,32
 458.25390625 235 458.25390625 235 491.490234375 288 c 1,33,-1
 561.178710938 252 l 1,34,35
 525.788085938 194 525.788085938 194 479.0546875 167 c 128,-1,36
 432.321289062 140 432.321289062 140 363.321289062 140 c 0,37,38
 280.321289062 140 280.321289062 140 243.595703125 191 c 128,-1,39
 206.870117188 242 206.870117188 242 226.956054688 329 c 128,-1,40
 247.041015625 416 247.041015625 416 307.315429688 467 c 128,-1,41
 367.58984375 518 367.58984375 518 450.58984375 518 c 0,20,21
EndSplineSet
EndChar

StartChar: ordfeminine
Encoding: 170 170 108
Width: 418
GlyphClass: 2
Flags: W
LayerCount: 2
Fore
SplineSet
396.729492188 380 m 0,0,1
 411.729492188 380 411.729492188 380 419.422851562 383 c 1,2,-1
 398.032226562 325 l 1,3,4
 375.4921875 314 375.4921875 314 346.4921875 314 c 0,5,6
 280.4921875 314 280.4921875 314 278.728515625 367 c 1,7,8
 230.4921875 314 230.4921875 314 140.4921875 314 c 0,9,10
 87.4921875 314 87.4921875 314 63.9560546875 335.5 c 128,-1,11
 40.419921875 357 40.419921875 357 49.654296875 397 c 0,12,13
 59.58203125 440 59.58203125 440 97.2001953125 466.5 c 128,-1,14
 134.818359375 493 134.818359375 493 207.819335938 506 c 2,15,-1
 296.513671875 522 l 1,16,-1
 299.514648438 535 l 2,17,18
 305.516601562 561 305.516601562 561 293.749023438 575 c 128,-1,19
 281.981445312 589 281.981445312 589 253.981445312 589 c 0,20,21
 195.981445312 589 195.981445312 589 168.514648438 535 c 1,22,-1
 92.5166015625 561 l 1,23,24
 112.598632812 609 112.598632812 609 159.83203125 636 c 128,-1,25
 207.065429688 663 207.065429688 663 276.065429688 663 c 0,26,27
 434.065429688 663 434.065429688 663 404.283203125 534 c 2,28,-1
 375.65625 410 l 2,29,30
 368.729492188 380 368.729492188 380 396.729492188 380 c 0,0,1
192.9609375 381 m 0,31,32
 220.9609375 381 220.9609375 381 245.923828125 396 c 128,-1,33
 270.88671875 411 270.88671875 411 276.658203125 436 c 2,34,-1
 285.200195312 473 l 1,35,-1
 229.430664062 461 l 2,36,37
 163.428710938 448 163.428710938 448 155.348632812 413 c 0,38,39
 147.9609375 381 147.9609375 381 192.9609375 381 c 0,31,32
6.0166015625 169 m 1,40,-1
 23.5625 245 l 1,41,-1
 372.5625 245 l 1,42,-1
 355.016601562 169 l 1,43,-1
 6.0166015625 169 l 1,40,-1
EndSplineSet
EndChar

StartChar: guillemotleft
Encoding: 171 171 109
Width: 552
GlyphClass: 2
Flags: W
LayerCount: 2
Fore
SplineSet
334.430664062 461 m 1,0,-1
 165.1796875 265 l 1,1,-1
 243.9296875 69 l 1,2,-1
 117.9296875 69 l 1,3,-1
 38.1796875 265 l 1,4,-1
 208.430664062 461 l 1,5,-1
 334.430664062 461 l 1,0,-1
552.430664062 461 m 1,6,-1
 384.1796875 265 l 1,7,-1
 461.9296875 69 l 1,8,-1
 336.9296875 69 l 1,9,-1
 256.1796875 265 l 1,10,-1
 427.430664062 461 l 1,11,-1
 552.430664062 461 l 1,6,-1
EndSplineSet
Substitution2: "'case' Case-Sensitive Forms lookup 29 subtable" guillemotleft.case
Substitution2: "'aalt' Access All Alternates lookup 0 subtable" guillemotleft.case
EndChar

StartChar: logicalnot
Encoding: 172 172 110
Width: 604
GlyphClass: 2
Flags: W
LayerCount: 2
Fore
SplineSet
81.3447265625 374 m 1,0,-1
 567.344726562 374 l 1,1,-1
 506.395507812 110 l 1,2,-1
 390.395507812 110 l 1,3,-1
 427.333984375 270 l 1,4,-1
 57.333984375 270 l 1,5,-1
 81.3447265625 374 l 1,0,-1
EndSplineSet
EndChar

StartChar: uni00AD
Encoding: 173 173 111
Width: 521
GlyphClass: 2
Flags: W
LayerCount: 2
Fore
SplineSet
447.801757812 324 m 1,0,-1
 420.55859375 206 l 1,1,-1
 67.55859375 206 l 1,2,-1
 94.8017578125 324 l 1,3,-1
 447.801757812 324 l 1,0,-1
EndSplineSet
EndChar

StartChar: registered
Encoding: 174 174 112
Width: 790
GlyphClass: 2
Flags: W
LayerCount: 2
Fore
SplineSet
485.681640625 670 m 0,0,1
 641.681640625 670 641.681640625 670 713.826171875 577.5 c 128,-1,2
 785.970703125 485 785.970703125 485 750.186523438 330 c 128,-1,3
 714.40234375 175 714.40234375 175 599.546875 82.5 c 128,-1,4
 484.69140625 -10 484.69140625 -10 328.69140625 -10 c 0,5,6
 171.69140625 -10 171.69140625 -10 99.546875 82.5 c 128,-1,7
 27.40234375 175 27.40234375 175 63.1865234375 330 c 128,-1,8
 98.970703125 485 98.970703125 485 213.826171875 577.5 c 128,-1,9
 328.681640625 670 328.681640625 670 485.681640625 670 c 0,0,1
346.467773438 67 m 0,10,11
 464.467773438 67 464.467773438 67 552.590820312 139 c 128,-1,12
 640.712890625 211 640.712890625 211 668.186523438 330 c 128,-1,13
 695.66015625 449 695.66015625 449 640.782226562 521 c 128,-1,14
 585.905273438 593 585.905273438 593 467.905273438 593 c 0,15,16
 348.905273438 593 348.905273438 593 261.282226562 521 c 128,-1,17
 173.66015625 449 173.66015625 449 146.186523438 330 c 128,-1,18
 118.712890625 211 118.712890625 211 173.090820312 139 c 128,-1,19
 227.467773438 67 227.467773438 67 346.467773438 67 c 0,10,11
585.193359375 395 m 0,20,21
 565.799804688 311 565.799804688 311 476.797851562 285 c 1,22,-1
 537.168945312 148 l 1,23,-1
 432.168945312 148 l 1,24,-1
 387.719726562 276 l 1,25,-1
 345.719726562 276 l 1,26,-1
 316.168945312 148 l 1,27,-1
 227.168945312 148 l 1,28,-1
 311.897460938 515 l 1,29,-1
 478.897460938 515 l 2,30,31
 537.897460938 515 537.897460938 515 567.778320312 482 c 128,-1,32
 597.66015625 449 597.66015625 449 585.193359375 395 c 0,20,21
384.274414062 443 m 1,33,-1
 360.264648438 339 l 1,34,-1
 422.264648438 339 l 2,35,36
 482.264648438 339 482.264648438 339 494.26953125 391 c 128,-1,37
 506.274414062 443 506.274414062 443 446.274414062 443 c 2,38,-1
 384.274414062 443 l 1,33,-1
EndSplineSet
Substitution2: "'ordn' Ordinals lookup 22 subtable" registeredsuperior
Substitution2: "'sups' Superscript lookup 15 subtable" registeredsuperior
Substitution2: "'aalt' Access All Alternates lookup 0 subtable" registeredsuperior
EndChar

StartChar: macron
Encoding: 175 175 113
Width: 500
GlyphClass: 2
Flags: W
LayerCount: 2
Fore
SplineSet
522.681640625 670 m 1,0,-1
 501.672851562 579 l 1,1,-1
 137.672851562 579 l 1,2,-1
 158.681640625 670 l 1,3,-1
 522.681640625 670 l 1,0,-1
EndSplineSet
EndChar

StartChar: degree
Encoding: 176 176 114
Width: 482
GlyphClass: 2
Flags: W
LayerCount: 2
Fore
SplineSet
249.26171875 313 m 0,0,1
 164.26171875 313 164.26171875 313 123.189453125 362.5 c 128,-1,2
 82.1181640625 412 82.1181640625 412 100.586914062 492 c 128,-1,3
 119.056640625 572 119.056640625 572 182.869140625 621 c 128,-1,4
 246.681640625 670 246.681640625 670 331.681640625 670 c 0,5,6
 417.681640625 670 417.681640625 670 458.869140625 621 c 128,-1,7
 500.056640625 572 500.056640625 572 481.586914062 492 c 128,-1,8
 463.118164062 412 463.118164062 412 399.189453125 362.5 c 128,-1,9
 335.26171875 313 335.26171875 313 249.26171875 313 c 0,0,1
270.732421875 406 m 0,10,11
 308.732421875 406 308.732421875 406 338.7734375 430 c 128,-1,12
 368.814453125 454 368.814453125 454 377.586914062 492 c 128,-1,13
 386.360351562 530 386.360351562 530 367.401367188 554 c 128,-1,14
 348.44140625 578 348.44140625 578 310.44140625 578 c 0,15,16
 273.44140625 578 273.44140625 578 243.401367188 554 c 128,-1,17
 213.360351562 530 213.360351562 530 204.586914062 492 c 128,-1,18
 195.814453125 454 195.814453125 454 214.7734375 430 c 128,-1,19
 233.732421875 406 233.732421875 406 270.732421875 406 c 0,10,11
EndSplineSet
EndChar

StartChar: plusminus
Encoding: 177 177 115
Width: 604
GlyphClass: 2
Flags: W
LayerCount: 2
Fore
SplineSet
397.430664062 461 m 1,0,-1
 592.430664062 461 l 1,1,-1
 568.881835938 359 l 1,2,-1
 373.881835938 359 l 1,3,-1
 331.170898438 174 l 1,4,-1
 226.170898438 174 l 1,5,-1
 268.881835938 359 l 1,6,-1
 72.8818359375 359 l 1,7,-1
 96.4306640625 461 l 1,8,-1
 292.430664062 461 l 1,9,-1
 335.602539062 648 l 1,10,-1
 440.602539062 648 l 1,11,-1
 397.430664062 461 l 1,0,-1
-10 0 m 1,12,-1
 13.0869140625 100 l 1,13,-1
 509.086914062 100 l 1,14,-1
 486 0 l 1,15,-1
 -10 0 l 1,12,-1
EndSplineSet
EndChar

StartChar: uni00B2
Encoding: 178 178 116
Width: 382
GlyphClass: 2
Flags: W
LayerCount: 2
Fore
SplineSet
45.87890625 333 m 1,0,-1
 61.34765625 400 l 1,1,2
 136.58203125 440 136.58203125 440 164.506835938 457 c 0,3,4
 241.588867188 505 241.588867188 505 275.360351562 536.5 c 128,-1,5
 309.1328125 568 309.1328125 568 316.059570312 598 c 0,6,7
 321.831054688 623 321.831054688 623 310.409179688 638.5 c 128,-1,8
 298.98828125 654 298.98828125 654 270.98828125 654 c 0,9,10
 206.98828125 654 206.98828125 654 185.826171875 571 c 1,11,-1
 94.5205078125 600 l 1,12,13
 111.296875 664 111.296875 664 164.4921875 699.5 c 128,-1,14
 217.688476562 735 217.688476562 735 292.688476562 735 c 0,15,16
 373.688476562 735 373.688476562 735 406.415039062 697 c 128,-1,17
 439.142578125 659 439.142578125 659 426.90625 606 c 0,18,19
 408.8984375 528 408.8984375 528 275.890625 450 c 0,20,21
 244.50390625 431 244.50390625 431 199.348632812 413 c 1,22,-1
 199.118164062 412 l 1,23,24
 253.810546875 415 253.810546875 415 281.810546875 415 c 2,25,-1
 388.810546875 415 l 1,26,-1
 369.87890625 333 l 1,27,-1
 45.87890625 333 l 1,0,-1
EndSplineSet
EndChar

StartChar: uni00B3
Encoding: 179 179 117
Width: 373
GlyphClass: 2
Flags: W
LayerCount: 2
Fore
SplineSet
290.688476562 735 m 0,0,1
 363.688476562 735 363.688476562 735 396.377929688 705.5 c 128,-1,2
 429.067382812 676 429.067382812 676 417.061523438 624 c 0,3,4
 407.827148438 584 407.827148438 584 378.170898438 559.5 c 128,-1,5
 348.514648438 535 348.514648438 535 314.052734375 533 c 1,6,-1
 313.360351562 530 l 1,7,8
 352.360351562 530 352.360351562 530 372.549804688 507 c 128,-1,9
 392.740234375 484 392.740234375 484 383.274414062 443 c 0,10,11
 371.26953125 391 371.26953125 391 320.381835938 359 c 128,-1,12
 269.494140625 327 269.494140625 327 198.494140625 327 c 0,13,14
 59.494140625 327 59.494140625 327 49.349609375 426 c 1,15,-1
 155.123046875 464 l 1,16,17
 147.501953125 405 147.501953125 405 210.501953125 405 c 0,18,19
 238.501953125 405 238.501953125 405 257.618164062 418.5 c 128,-1,20
 276.735351562 432 276.735351562 432 282.276367188 456 c 0,21,22
 292.203125 499 292.203125 499 232.203125 499 c 2,23,-1
 209.203125 499 l 1,24,-1
 222.82421875 558 l 1,25,-1
 241.82421875 558 l 2,26,27
 297.82421875 558 297.82421875 558 308.90625 606 c 128,-1,28
 319.98828125 654 319.98828125 654 266.98828125 654 c 0,29,30
 212.98828125 654 212.98828125 654 193.520507812 600 c 1,31,-1
 106.677734375 631 l 1,32,33
 129.682617188 683 129.682617188 683 178.685546875 709 c 128,-1,34
 227.688476562 735 227.688476562 735 290.688476562 735 c 0,0,1
EndSplineSet
EndChar

StartChar: acute
Encoding: 180 180 118
Width: 500
GlyphClass: 2
Flags: W
LayerCount: 2
Fore
SplineSet
369.303710938 742 m 1,0,-1
 501.303710938 742 l 1,1,-1
 362.056640625 572 l 1,2,-1
 260.056640625 572 l 1,3,-1
 369.303710938 742 l 1,0,-1
EndSplineSet
EndChar

StartChar: uni00B5
Encoding: 181 181 119
Width: 615
GlyphClass: 2
Flags: W
LayerCount: 2
Fore
SplineSet
461.434570312 500 m 1,0,-1
 598.434570312 500 l 1,1,-1
 483 0 l 1,2,-1
 364 0 l 1,3,-1
 378.546875 89 l 1,4,5
 310.69140625 -10 310.69140625 -10 191.69140625 -10 c 0,6,7
 165.69140625 -10 165.69140625 -10 141.538085938 -2 c 1,8,-1
 93.517578125 -210 l 1,9,-1
 -43.482421875 -210 l 1,10,-1
 120.434570312 500 l 1,11,-1
 257.434570312 500 l 1,12,-1
 189.096679688 204 l 2,13,14
 175.70703125 146 175.70703125 146 191.666015625 122 c 128,-1,15
 207.625 98 207.625 98 251.625 98 c 0,16,17
 301.625 98 301.625 98 338.58984375 126 c 128,-1,18
 375.553710938 154 375.553710938 154 393.328125 205 c 1,19,-1
 461.434570312 500 l 1,0,-1
EndSplineSet
EndChar

StartChar: paragraph
Encoding: 182 182 120
Width: 702
GlyphClass: 2
Flags: W
LayerCount: 2
Fore
SplineSet
715.373046875 660 m 1,0,-1
 539.913085938 -100 l 1,1,-1
 426.913085938 -100 l 1,2,-1
 577.669921875 553 l 1,3,-1
 461.669921875 553 l 1,4,-1
 310.913085938 -100 l 1,5,-1
 196.913085938 -100 l 1,6,-1
 274.25390625 235 l 1,7,8
 156.485351562 236 156.485351562 236 104.682617188 291 c 128,-1,9
 52.880859375 346 52.880859375 346 76.1982421875 447 c 0,10,11
 99.9775390625 550 99.9775390625 550 180.674804688 605 c 128,-1,12
 261.373046875 660 261.373046875 660 393.373046875 660 c 2,13,-1
 715.373046875 660 l 1,0,-1
EndSplineSet
Substitution2: "'ornm' Ornaments lookup 40 subtable" uni2761
Substitution2: "'aalt' Access All Alternates lookup 0 subtable" uni2761
EndChar

StartChar: periodcentered
Encoding: 183 183 121
Width: 256
GlyphClass: 2
Flags: W
LayerCount: 2
Fore
SplineSet
164.427734375 435 m 128,-1,1
 204.427734375 435 204.427734375 435 222.963867188 413.5 c 128,-1,2
 241.5 392 241.5 392 232.727539062 354 c 128,-1,3
 223.954101562 316 223.954101562 316 195.490234375 294.5 c 128,-1,4
 167.02734375 273 167.02734375 273 127.02734375 273 c 128,-1,5
 87.02734375 273 87.02734375 273 68.490234375 294.5 c 128,-1,6
 49.9541015625 316 49.9541015625 316 58.7275390625 354 c 128,-1,7
 67.5 392 67.5 392 95.9638671875 413.5 c 128,-1,0
 124.427734375 435 124.427734375 435 164.427734375 435 c 128,-1,1
EndSplineSet
Substitution2: "Single Substitution lookup 55 subtable" periodcentered.loclCAT.sc
Substitution2: "Single Substitution lookup 54 subtable" periodcentered.loclCAT.case
Substitution2: "Single Substitution lookup 53 subtable" periodcentered.loclCAT
Substitution2: "'case' Case-Sensitive Forms lookup 29 subtable" periodcentered.case
Substitution2: "'smcp' Lowercase to Small Capitals lookup 12 subtable" periodcentered.sc
Substitution2: "'c2sc' Capitals to Small Capitals lookup 11 subtable" periodcentered.sc
AlternateSubs2: "'aalt' Access All Alternates lookup 1 subtable" periodcentered.sc periodcentered.case
Position2: "Single Positioning lookup 6 subtable" dx=0 dy=0 dh=-30 dv=0
EndChar

StartChar: cedilla
Encoding: 184 184 122
Width: 500
GlyphClass: 2
Flags: W
LayerCount: 2
Fore
SplineSet
126.692382812 3 m 1,0,-1
 175.849609375 34 l 1,1,2
 245.6171875 20 245.6171875 20 276.575195312 -17 c 128,-1,3
 307.533203125 -54 307.533203125 -54 296.682617188 -101 c 0,4,5
 284.446289062 -154 284.446289062 -154 240.905273438 -184.5 c 128,-1,6
 197.36328125 -215 197.36328125 -215 137.36328125 -215 c 0,7,8
 59.36328125 -215 59.36328125 -215 27.13671875 -177 c 1,9,-1
 79.5283203125 -106 l 1,10,11
 100.6015625 -136 100.6015625 -136 143.6015625 -136 c 0,12,13
 167.6015625 -136 167.6015625 -136 186.44921875 -121.5 c 128,-1,14
 205.296875 -107 205.296875 -107 210.837890625 -83 c 0,15,16
 217.533203125 -54 217.533203125 -54 199.919921875 -35 c 128,-1,17
 182.305664062 -16 182.305664062 -16 126.692382812 3 c 1,0,-1
EndSplineSet
EndChar

StartChar: uni00B9
Encoding: 185 185 123
Width: 277
GlyphClass: 2
Flags: W
LayerCount: 2
Fore
SplineSet
247.534179688 730 m 1,0,-1
 336.534179688 730 l 1,1,-1
 244.87890625 333 l 1,2,-1
 140.87890625 333 l 1,3,-1
 193.748046875 562 l 2,4,5
 200.211914062 590 200.211914062 590 212.215820312 629 c 1,6,7
 144.595703125 583 144.595703125 583 85.2109375 577 c 1,8,-1
 105.065429688 663 l 1,9,10
 137.219726562 668 137.219726562 668 181.953125 688.5 c 128,-1,11
 226.685546875 709 226.685546875 709 247.534179688 730 c 1,0,-1
EndSplineSet
EndChar

StartChar: ordmasculine
Encoding: 186 186 124
Width: 400
GlyphClass: 2
Flags: W
LayerCount: 2
Fore
SplineSet
208.4921875 314 m 128,-1,1
 126.4921875 314 126.4921875 314 91.6123046875 360 c 128,-1,2
 56.732421875 406 56.732421875 406 75.6640625 488 c 0,3,4
 94.826171875 571 94.826171875 571 150.9453125 617 c 128,-1,5
 207.065429688 663 207.065429688 663 289.065429688 663 c 128,-1,6
 371.065429688 663 371.065429688 663 405.4453125 617 c 128,-1,7
 439.826171875 571 439.826171875 571 420.6640625 488 c 0,8,9
 401.732421875 406 401.732421875 406 346.112304688 360 c 128,-1,0
 290.4921875 314 290.4921875 314 208.4921875 314 c 128,-1,1
225.115234375 386 m 128,-1,11
 292.115234375 386 292.115234375 386 315.6640625 488 c 0,12,13
 339.673828125 592 339.673828125 592 272.673828125 592 c 128,-1,14
 205.673828125 592 205.673828125 592 181.6640625 488 c 0,15,10
 158.115234375 386 158.115234375 386 225.115234375 386 c 128,-1,11
11.0166015625 169 m 1,16,-1
 28.5625 245 l 1,17,-1
 356.5625 245 l 1,18,-1
 339.016601562 169 l 1,19,-1
 11.0166015625 169 l 1,16,-1
EndSplineSet
EndChar

StartChar: guillemotright
Encoding: 187 187 125
Width: 551
GlyphClass: 2
Flags: W
LayerCount: 2
Fore
SplineSet
83.4306640625 461 m 1,0,-1
 208.430664062 461 l 1,1,-1
 289.1796875 265 l 1,2,-1
 117.9296875 69 l 1,3,-1
 -7.0703125 69 l 1,4,-1
 161.1796875 265 l 1,5,-1
 83.4306640625 461 l 1,0,-1
301.430664062 461 m 1,6,-1
 427.430664062 461 l 1,7,-1
 507.1796875 265 l 1,8,-1
 336.9296875 69 l 1,9,-1
 210.9296875 69 l 1,10,-1
 380.1796875 265 l 1,11,-1
 301.430664062 461 l 1,6,-1
EndSplineSet
Substitution2: "'case' Case-Sensitive Forms lookup 29 subtable" guillemotright.case
Substitution2: "'aalt' Access All Alternates lookup 0 subtable" guillemotright.case
EndChar

StartChar: onequarter
Encoding: 188 188 126
Width: 849
GlyphClass: 2
Flags: W
LayerCount: 2
Fore
SplineSet
178.741210938 497 m 2,0,1
 185.206054688 525 185.206054688 525 197.209960938 564 c 1,2,3
 129.58984375 518 129.58984375 518 70.2041015625 512 c 1,4,-1
 90.0595703125 598 l 1,5,6
 122.213867188 603 122.213867188 603 166.946289062 623.5 c 128,-1,7
 211.678710938 644 211.678710938 644 232.52734375 665 c 1,8,-1
 321.52734375 665 l 1,9,-1
 229.873046875 268 l 1,10,-1
 125.873046875 268 l 1,11,-1
 178.741210938 497 l 2,0,1
680.373046875 660 m 1,12,-1
 784.373046875 660 l 1,13,-1
 156 0 l 1,14,-1
 51 0 l 1,15,-1
 680.373046875 660 l 1,12,-1
740.015625 156 m 1,16,-1
 804.015625 156 l 1,17,-1
 787.854492188 86 l 1,18,-1
 723.854492188 86 l 1,19,-1
 703.076171875 -4 l 1,20,-1
 613.076171875 -4 l 1,21,-1
 633.854492188 86 l 1,22,-1
 433.854492188 86 l 1,23,-1
 445.166992188 135 l 1,24,-1
 673.731445312 393 l 1,25,-1
 794.731445312 393 l 1,26,-1
 740.015625 156 l 1,16,-1
671.024414062 247 m 2,27,28
 671.948242188 251 671.948242188 251 692.262695312 326 c 1,29,-1
 689.262695312 326 l 1,30,31
 671.798828125 298 671.798828125 298 644.873046875 268 c 2,32,-1
 542.015625 156 l 1,33,-1
 650.015625 156 l 1,34,-1
 671.024414062 247 l 2,27,28
EndSplineSet
EndChar

StartChar: onehalf
Encoding: 189 189 127
Width: 917
GlyphClass: 2
Flags: W
LayerCount: 2
Fore
SplineSet
178.741210938 497 m 2,0,1
 185.206054688 525 185.206054688 525 197.209960938 564 c 1,2,3
 129.58984375 518 129.58984375 518 70.2041015625 512 c 1,4,-1
 90.0595703125 598 l 1,5,6
 122.213867188 603 122.213867188 603 166.946289062 623.5 c 128,-1,7
 211.678710938 644 211.678710938 644 232.52734375 665 c 1,8,-1
 321.52734375 665 l 1,9,-1
 229.873046875 268 l 1,10,-1
 125.873046875 268 l 1,11,-1
 178.741210938 497 l 2,0,1
680.373046875 660 m 1,12,-1
 784.373046875 660 l 1,13,-1
 156 0 l 1,14,-1
 51 0 l 1,15,-1
 680.373046875 660 l 1,12,-1
739.0078125 78 m 2,16,-1
 846.0078125 78 l 1,17,-1
 827.076171875 -4 l 1,18,-1
 503.076171875 -4 l 1,19,-1
 518.544921875 63 l 1,20,21
 593.779296875 103 593.779296875 103 621.704101562 120 c 0,22,23
 698.786132812 168 698.786132812 168 732.55859375 199.5 c 128,-1,24
 766.330078125 231 766.330078125 231 773.256835938 261 c 0,25,26
 779.028320312 286 779.028320312 286 767.606445312 301.5 c 128,-1,27
 756.185546875 317 756.185546875 317 728.185546875 317 c 0,28,29
 664.185546875 317 664.185546875 317 643.0234375 234 c 1,30,-1
 551.71875 263 l 1,31,32
 568.494140625 327 568.494140625 327 621.689453125 362.5 c 128,-1,33
 674.885742188 398 674.885742188 398 749.885742188 398 c 0,34,35
 830.885742188 398 830.885742188 398 863.612304688 360 c 128,-1,36
 896.33984375 322 896.33984375 322 884.103515625 269 c 0,37,38
 866.095703125 191 866.095703125 191 733.087890625 113 c 0,39,40
 701.701171875 94 701.701171875 94 656.545898438 76 c 1,41,-1
 656.315429688 75 l 1,42,43
 711.0078125 78 711.0078125 78 739.0078125 78 c 2,16,-1
EndSplineSet
EndChar

StartChar: threequarters
Encoding: 190 190 128
Width: 945
GlyphClass: 2
Flags: W
LayerCount: 2
Fore
SplineSet
275.681640625 670 m 0,0,1
 348.681640625 670 348.681640625 670 381.37109375 640.5 c 128,-1,2
 414.060546875 611 414.060546875 611 402.055664062 559 c 0,3,4
 392.8203125 519 392.8203125 519 363.1640625 494.5 c 128,-1,5
 333.5078125 470 333.5078125 470 299.045898438 468 c 1,6,-1
 298.353515625 465 l 1,7,8
 337.353515625 465 337.353515625 465 357.543945312 442 c 128,-1,9
 377.733398438 419 377.733398438 419 368.268554688 378 c 0,10,11
 356.262695312 326 356.262695312 326 305.375 294 c 128,-1,12
 254.487304688 262 254.487304688 262 183.487304688 262 c 0,13,14
 44.4873046875 262 44.4873046875 262 33.34375 361 c 1,15,-1
 140.116210938 399 l 1,16,17
 132.495117188 340 132.495117188 340 195.495117188 340 c 0,18,19
 223.495117188 340 223.495117188 340 242.612304688 353.5 c 128,-1,20
 261.728515625 367 261.728515625 367 267.26953125 391 c 0,21,22
 277.197265625 434 277.197265625 434 217.197265625 434 c 2,23,-1
 194.197265625 434 l 1,24,-1
 207.818359375 493 l 1,25,-1
 226.818359375 493 l 2,26,27
 282.818359375 493 282.818359375 493 293.899414062 541 c 128,-1,28
 304.981445312 589 304.981445312 589 251.981445312 589 c 0,29,30
 197.981445312 589 197.981445312 589 178.514648438 535 c 1,31,-1
 91.671875 566 l 1,32,33
 114.676757812 618 114.676757812 618 163.678710938 644 c 128,-1,34
 212.681640625 670 212.681640625 670 275.681640625 670 c 0,0,1
147 0 m 1,35,-1
 776.373046875 660 l 1,36,-1
 880.373046875 660 l 1,37,-1
 252 0 l 1,38,-1
 147 0 l 1,35,-1
899.015625 156 m 1,39,-1
 882.854492188 86 l 1,40,-1
 818.854492188 86 l 1,41,-1
 798.076171875 -4 l 1,42,-1
 708.076171875 -4 l 1,43,-1
 728.854492188 86 l 1,44,-1
 528.854492188 86 l 1,45,-1
 540.166992188 135 l 1,46,-1
 768.731445312 393 l 1,47,-1
 889.731445312 393 l 1,48,-1
 835.015625 156 l 1,49,-1
 899.015625 156 l 1,39,-1
637.015625 156 m 1,50,-1
 745.015625 156 l 1,51,-1
 766.024414062 247 l 2,52,53
 766.948242188 251 766.948242188 251 787.262695312 326 c 1,54,-1
 784.262695312 326 l 1,55,56
 766.798828125 298 766.798828125 298 739.873046875 268 c 2,57,-1
 637.015625 156 l 1,50,-1
EndSplineSet
EndChar

StartChar: questiondown
Encoding: 191 191 129
Width: 580
GlyphClass: 2
Flags: W
LayerCount: 2
Fore
SplineSet
318.49609375 353 m 128,-1,1
 278.49609375 353 278.49609375 353 260.344726562 374 c 128,-1,2
 242.193359375 395 242.193359375 395 250.50390625 431 c 128,-1,3
 258.815429688 467 258.815429688 467 286.6640625 488 c 128,-1,4
 314.51171875 509 314.51171875 509 354.51171875 509 c 128,-1,5
 394.51171875 509 394.51171875 509 412.1640625 488 c 128,-1,6
 429.815429688 467 429.815429688 467 421.50390625 431 c 128,-1,7
 413.193359375 395 413.193359375 395 385.844726562 374 c 128,-1,0
 358.49609375 353 358.49609375 353 318.49609375 353 c 128,-1,1
183.751953125 -170 m 0,8,9
 72.751953125 -170 72.751953125 -170 16.7568359375 -124.5 c 128,-1,10
 -39.23828125 -79 -39.23828125 -79 -19.1533203125 8 c 128,-1,11
 0.9326171875 95 0.9326171875 95 62.9365234375 140.5 c 128,-1,12
 124.94140625 186 124.94140625 186 214.01953125 195 c 1,13,-1
 241.720703125 289 l 1,14,-1
 364.720703125 289 l 1,15,-1
 335.62890625 137 l 1,16,17
 237.3203125 127 237.3203125 127 190.317382812 101 c 128,-1,18
 143.315429688 75 143.315429688 75 132.233398438 27 c 0,19,20
 123.229492188 -12 123.229492188 -12 144.765625 -33.5 c 128,-1,21
 166.302734375 -55 166.302734375 -55 219.302734375 -55 c 0,22,23
 271.302734375 -55 271.302734375 -55 310.228515625 -25 c 128,-1,24
 349.154296875 5 349.154296875 5 366.62109375 59 c 1,25,-1
 483.923828125 4 l 1,26,27
 452.684570312 -75 452.684570312 -75 375.71875 -122.5 c 128,-1,28
 298.751953125 -170 298.751953125 -170 183.751953125 -170 c 0,8,9
EndSplineSet
Substitution2: "'case' Case-Sensitive Forms lookup 29 subtable" questiondown.case
Substitution2: "'smcp' Lowercase to Small Capitals lookup 12 subtable" questiondown.sc
Substitution2: "'c2sc' Capitals to Small Capitals lookup 11 subtable" questiondown.sc
AlternateSubs2: "'aalt' Access All Alternates lookup 1 subtable" questiondown.sc questiondown.case
EndChar

StartChar: Agrave
Encoding: 192 192 130
Width: 671
GlyphClass: 2
Flags: W
LayerCount: 2
Fore
SplineSet
487.534179688 730 m 1,0,-1
 384.534179688 730 l 1,1,-1
 331.318359375 885 l 1,2,-1
 467.318359375 885 l 1,3,-1
 487.534179688 730 l 1,0,-1
452 0 m 1,4,-1
 434.169921875 161 l 1,5,-1
 180.169921875 161 l 1,6,-1
 89 0 l 1,7,-1
 -52 0 l 1,8,-1
 341.373046875 660 l 1,9,-1
 506.373046875 660 l 1,10,-1
 595 0 l 1,11,-1
 452 0 l 1,4,-1
237.71875 263 m 1,12,-1
 423.71875 263 l 1,13,-1
 404.66015625 449 l 1,14,-1
 397.747070312 549 l 1,15,-1
 395.747070312 549 l 1,16,-1
 345.12109375 451 l 1,17,-1
 237.71875 263 l 1,12,-1
EndSplineSet
Substitution2: "Single Substitution lookup 56 subtable" Agrave.swsh
Substitution2: "'swsh' Swash lookup 32 subtable" Agrave.swsh
Substitution2: "'c2sc' Capitals to Small Capitals lookup 11 subtable" agrave.sc
AlternateSubs2: "'aalt' Access All Alternates lookup 1 subtable" agrave.sc Agrave.swsh
EndChar

StartChar: Aacute
Encoding: 193 193 131
Width: 671
GlyphClass: 2
Flags: W
LayerCount: 2
Fore
SplineSet
606.318359375 885 m 1,0,-1
 481.534179688 730 l 1,1,-1
 378.534179688 730 l 1,2,-1
 470.318359375 885 l 1,3,-1
 606.318359375 885 l 1,0,-1
452 0 m 1,4,-1
 434.169921875 161 l 1,5,-1
 180.169921875 161 l 1,6,-1
 89 0 l 1,7,-1
 -52 0 l 1,8,-1
 341.373046875 660 l 1,9,-1
 506.373046875 660 l 1,10,-1
 595 0 l 1,11,-1
 452 0 l 1,4,-1
237.71875 263 m 1,12,-1
 423.71875 263 l 1,13,-1
 404.66015625 449 l 1,14,-1
 397.747070312 549 l 1,15,-1
 395.747070312 549 l 1,16,-1
 345.12109375 451 l 1,17,-1
 237.71875 263 l 1,12,-1
EndSplineSet
Substitution2: "Single Substitution lookup 56 subtable" Aacute.swsh
Substitution2: "'swsh' Swash lookup 32 subtable" Aacute.swsh
Substitution2: "'c2sc' Capitals to Small Capitals lookup 11 subtable" aacute.sc
AlternateSubs2: "'aalt' Access All Alternates lookup 1 subtable" aacute.sc Aacute.swsh
EndChar

StartChar: Acircumflex
Encoding: 194 194 132
Width: 671
GlyphClass: 2
Flags: W
LayerCount: 2
Fore
SplineSet
461.235351562 824 m 1,0,-1
 364.610351562 726 l 1,1,-1
 258.610351562 726 l 1,2,-1
 408.165039062 893 l 1,3,-1
 546.165039062 893 l 1,4,-1
 618.610351562 726 l 1,5,-1
 512.610351562 726 l 1,6,-1
 461.235351562 824 l 1,0,-1
452 0 m 1,7,-1
 434.169921875 161 l 1,8,-1
 180.169921875 161 l 1,9,-1
 89 0 l 1,10,-1
 -52 0 l 1,11,-1
 341.373046875 660 l 1,12,-1
 506.373046875 660 l 1,13,-1
 595 0 l 1,14,-1
 452 0 l 1,7,-1
237.71875 263 m 1,15,-1
 423.71875 263 l 1,16,-1
 404.66015625 449 l 1,17,-1
 397.747070312 549 l 1,18,-1
 395.747070312 549 l 1,19,-1
 345.12109375 451 l 1,20,-1
 237.71875 263 l 1,15,-1
EndSplineSet
Substitution2: "Single Substitution lookup 56 subtable" Acircumflex.swsh
Substitution2: "'swsh' Swash lookup 32 subtable" Acircumflex.swsh
Substitution2: "'c2sc' Capitals to Small Capitals lookup 11 subtable" acircumflex.sc
AlternateSubs2: "'aalt' Access All Alternates lookup 1 subtable" acircumflex.sc Acircumflex.swsh
EndChar

StartChar: Atilde
Encoding: 195 195 133
Width: 671
GlyphClass: 2
Flags: W
LayerCount: 2
Fore
SplineSet
387.155273438 789 m 0,0,1
 353.155273438 789 353.155273438 789 331.072265625 728 c 1,2,-1
 247.072265625 728 l 1,3,4
 288.702148438 878 288.702148438 878 407.702148438 878 c 0,5,6
 439.702148438 878 439.702148438 878 460.739257812 863 c 128,-1,7
 481.776367188 848 481.776367188 848 496.198242188 832.5 c 128,-1,8
 510.619140625 817 510.619140625 817 525.619140625 817 c 0,9,10
 559.619140625 817 559.619140625 817 581.702148438 878 c 1,11,-1
 665.702148438 878 l 1,12,13
 624.072265625 728 624.072265625 728 506.072265625 728 c 0,14,15
 473.072265625 728 473.072265625 728 452.03515625 743 c 128,-1,16
 430.998046875 758 430.998046875 758 417.076171875 773.5 c 128,-1,17
 403.155273438 789 403.155273438 789 387.155273438 789 c 0,0,1
452 0 m 1,18,-1
 434.169921875 161 l 1,19,-1
 180.169921875 161 l 1,20,-1
 89 0 l 1,21,-1
 -52 0 l 1,22,-1
 341.373046875 660 l 1,23,-1
 506.373046875 660 l 1,24,-1
 595 0 l 1,25,-1
 452 0 l 1,18,-1
237.71875 263 m 1,26,-1
 423.71875 263 l 1,27,-1
 404.66015625 449 l 1,28,-1
 397.747070312 549 l 1,29,-1
 395.747070312 549 l 1,30,-1
 345.12109375 451 l 1,31,-1
 237.71875 263 l 1,26,-1
EndSplineSet
Substitution2: "Single Substitution lookup 56 subtable" Atilde.swsh
Substitution2: "'swsh' Swash lookup 32 subtable" Atilde.swsh
Substitution2: "'c2sc' Capitals to Small Capitals lookup 11 subtable" atilde.sc
AlternateSubs2: "'aalt' Access All Alternates lookup 1 subtable" atilde.sc Atilde.swsh
EndChar

StartChar: Adieresis
Encoding: 196 196 134
Width: 671
GlyphClass: 2
Flags: W
LayerCount: 2
Fore
SplineSet
332.379882812 725 m 0,0,1
 298.379882812 725 298.379882812 725 282.765625 744 c 128,-1,2
 267.15234375 763 267.15234375 763 274.540039062 795 c 128,-1,3
 281.927734375 827 281.927734375 827 306.314453125 846 c 128,-1,4
 330.701171875 865 330.701171875 865 364.701171875 865 c 0,5,6
 399.701171875 865 399.701171875 865 415.314453125 846 c 128,-1,7
 430.927734375 827 430.927734375 827 423.540039062 795 c 128,-1,8
 416.15234375 763 416.15234375 763 391.765625 744 c 128,-1,9
 367.379882812 725 367.379882812 725 332.379882812 725 c 0,0,1
542.379882812 725 m 0,10,11
 508.379882812 725 508.379882812 725 492.765625 744 c 128,-1,12
 477.15234375 763 477.15234375 763 484.540039062 795 c 128,-1,13
 491.927734375 827 491.927734375 827 516.314453125 846 c 128,-1,14
 540.701171875 865 540.701171875 865 574.701171875 865 c 0,15,16
 609.701171875 865 609.701171875 865 625.814453125 846 c 128,-1,17
 641.927734375 827 641.927734375 827 634.540039062 795 c 128,-1,18
 627.15234375 763 627.15234375 763 602.265625 744 c 128,-1,19
 577.379882812 725 577.379882812 725 542.379882812 725 c 0,10,11
452 0 m 1,20,-1
 434.169921875 161 l 1,21,-1
 180.169921875 161 l 1,22,-1
 89 0 l 1,23,-1
 -52 0 l 1,24,-1
 341.373046875 660 l 1,25,-1
 506.373046875 660 l 1,26,-1
 595 0 l 1,27,-1
 452 0 l 1,20,-1
237.71875 263 m 1,28,-1
 423.71875 263 l 1,29,-1
 404.66015625 449 l 1,30,-1
 397.747070312 549 l 1,31,-1
 395.747070312 549 l 1,32,-1
 345.12109375 451 l 1,33,-1
 237.71875 263 l 1,28,-1
EndSplineSet
Substitution2: "Single Substitution lookup 56 subtable" Adieresis.swsh
Substitution2: "'titl' Titling lookup 41 subtable" Adieresis.titl
Substitution2: "'swsh' Swash lookup 32 subtable" Adieresis.swsh
Substitution2: "'c2sc' Capitals to Small Capitals lookup 11 subtable" adieresis.sc
AlternateSubs2: "'aalt' Access All Alternates lookup 1 subtable" adieresis.sc Adieresis.swsh Adieresis.titl
EndChar

StartChar: Aring
Encoding: 197 197 135
Width: 671
GlyphClass: 2
Flags: W
LayerCount: 2
Fore
SplineSet
452 0 m 1,0,-1
 434.169921875 161 l 1,1,-1
 180.169921875 161 l 1,2,-1
 89 0 l 1,3,-1
 -52 0 l 1,4,-1
 329.370117188 634 l 1,5,6
 284.7578125 666 284.7578125 666 299.995117188 732 c 0,7,8
 313.155273438 789 313.155273438 789 359.620117188 823.5 c 128,-1,9
 406.084960938 858 406.084960938 858 470.084960938 858 c 0,10,11
 535.084960938 858 535.084960938 858 565.120117188 823.5 c 128,-1,12
 595.155273438 789 595.155273438 789 581.995117188 732 c 0,13,14
 566.7578125 666 566.7578125 666 506.370117188 634 c 1,15,-1
 595 0 l 1,16,-1
 452 0 l 1,0,-1
454.385742188 790 m 128,-1,18
 426.385742188 790 426.385742188 790 404.9609375 773 c 128,-1,19
 383.536132812 756 383.536132812 756 377.302734375 729 c 128,-1,20
 371.069335938 702 371.069335938 702 384.64453125 685 c 128,-1,21
 398.219726562 668 398.219726562 668 426.219726562 668 c 128,-1,22
 454.219726562 668 454.219726562 668 475.64453125 685 c 128,-1,23
 497.069335938 702 497.069335938 702 503.302734375 729 c 128,-1,24
 509.536132812 756 509.536132812 756 495.9609375 773 c 128,-1,17
 482.385742188 790 482.385742188 790 454.385742188 790 c 128,-1,18
237.71875 263 m 1,25,-1
 423.71875 263 l 1,26,-1
 404.66015625 449 l 1,27,-1
 398.747070312 549 l 1,28,-1
 395.747070312 549 l 1,29,-1
 345.12109375 451 l 1,30,-1
 237.71875 263 l 1,25,-1
EndSplineSet
Substitution2: "'c2sc' Capitals to Small Capitals lookup 11 subtable" aring.sc
Substitution2: "'aalt' Access All Alternates lookup 0 subtable" aring.sc
EndChar

StartChar: AE
Encoding: 198 198 136
Width: 935
GlyphClass: 2
Flags: W
LayerCount: 2
Fore
SplineSet
523.93359375 108 m 1,0,-1
 857.93359375 108 l 1,1,-1
 833 0 l 1,2,-1
 368 0 l 1,3,-1
 414.635742188 202 l 1,4,-1
 214.635742188 202 l 1,5,-1
 77 0 l 1,6,-1
 -64 0 l 1,7,-1
 409.373046875 660 l 1,8,-1
 971.373046875 660 l 1,9,-1
 946.439453125 552 l 1,10,-1
 626.439453125 552 l 1,11,-1
 587.653320312 384 l 1,12,-1
 831.653320312 384 l 1,13,-1
 807.874023438 281 l 1,14,-1
 563.874023438 281 l 1,15,-1
 523.93359375 108 l 1,0,-1
282.491210938 301 m 1,16,-1
 437.491210938 301 l 1,17,-1
 496.131835938 555 l 1,18,-1
 456.131835938 555 l 1,19,-1
 282.491210938 301 l 1,16,-1
EndSplineSet
Substitution2: "'c2sc' Capitals to Small Capitals lookup 11 subtable" ae.sc
Substitution2: "'aalt' Access All Alternates lookup 0 subtable" ae.sc
EndChar

StartChar: Ccedilla
Encoding: 199 199 137
Width: 683
GlyphClass: 2
Flags: W
LayerCount: 2
Fore
SplineSet
629.017578125 182 m 1,0,1
 587.010742188 104 587.010742188 104 521.159179688 57 c 128,-1,2
 455.30859375 10 455.30859375 10 374.076171875 -4 c 1,3,4
 420.072265625 -43 420.072265625 -43 406.682617188 -101 c 0,5,6
 394.446289062 -154 394.446289062 -154 350.905273438 -184.5 c 128,-1,7
 307.36328125 -215 307.36328125 -215 247.36328125 -215 c 0,8,9
 169.36328125 -215 169.36328125 -215 137.13671875 -177 c 1,10,-1
 189.528320312 -106 l 1,11,12
 210.6015625 -136 210.6015625 -136 253.6015625 -136 c 0,13,14
 277.6015625 -136 277.6015625 -136 296.44921875 -121.5 c 128,-1,15
 315.296875 -107 315.296875 -107 320.837890625 -83 c 0,16,17
 326.609375 -58 326.609375 -58 315.534179688 -41 c 128,-1,18
 304.458984375 -24 304.458984375 -24 267.153320312 -8 c 1,19,20
 138.692382812 3 138.692382812 3 84.85546875 92.5 c 128,-1,21
 31.017578125 182 31.017578125 182 65.1865234375 330 c 0,22,23
 101.6640625 488 101.6640625 488 208.172851562 579 c 128,-1,24
 314.681640625 670 314.681640625 670 459.681640625 670 c 0,25,26
 562.681640625 670 562.681640625 670 624.25390625 627 c 128,-1,27
 685.827148438 584 685.827148438 584 693.203125 499 c 1,28,-1
 555.966796875 446 l 1,29,30
 553.588867188 505 553.588867188 505 525.590820312 531 c 128,-1,31
 497.59375 557 497.59375 557 439.59375 557 c 0,32,33
 355.59375 557 355.59375 557 294.47265625 498 c 128,-1,34
 233.3515625 439 233.3515625 439 208.186523438 330 c 128,-1,35
 183.021484375 221 183.021484375 221 215.400390625 162 c 128,-1,36
 247.779296875 103 247.779296875 103 331.779296875 103 c 0,37,38
 452.779296875 103 452.779296875 103 510.791015625 220 c 1,39,-1
 629.017578125 182 l 1,0,1
EndSplineSet
Substitution2: "'c2sc' Capitals to Small Capitals lookup 11 subtable" ccedilla.sc
Substitution2: "'aalt' Access All Alternates lookup 0 subtable" ccedilla.sc
EndChar

StartChar: Egrave
Encoding: 200 200 138
Width: 633
GlyphClass: 2
Flags: W
AnchorPoint: "Anchor-0" 271 0 basechar 0
LayerCount: 2
Fore
SplineSet
502.534179688 730 m 1,0,-1
 399.534179688 730 l 1,1,-1
 346.318359375 885 l 1,2,-1
 482.318359375 885 l 1,3,-1
 502.534179688 730 l 1,0,-1
185.625976562 111 m 1,4,-1
 556.625976562 111 l 1,5,-1
 531 0 l 1,6,-1
 22 0 l 1,7,-1
 174.373046875 660 l 1,8,-1
 669.373046875 660 l 1,9,-1
 643.747070312 549 l 1,10,-1
 286.747070312 549 l 1,11,-1
 248.883789062 385 l 1,12,-1
 529.883789062 385 l 1,13,-1
 505.412109375 279 l 1,14,-1
 224.412109375 279 l 1,15,-1
 185.625976562 111 l 1,4,-1
EndSplineSet
Substitution2: "Single Substitution lookup 57 subtable" Egrave.swsh.001
Substitution2: "Single Substitution lookup 56 subtable" Egrave.swsh
AlternateSubs2: "'swsh' Swash lookup 33 subtable" Egrave.swsh Egrave.swsh.001
Substitution2: "'c2sc' Capitals to Small Capitals lookup 11 subtable" egrave.sc
AlternateSubs2: "'aalt' Access All Alternates lookup 1 subtable" egrave.sc Egrave.swsh Egrave.swsh.001
EndChar

StartChar: Eacute
Encoding: 201 201 139
Width: 633
GlyphClass: 2
Flags: W
AnchorPoint: "Anchor-0" 271 0 basechar 0
LayerCount: 2
Fore
SplineSet
600.318359375 885 m 1,0,-1
 475.534179688 730 l 1,1,-1
 372.534179688 730 l 1,2,-1
 464.318359375 885 l 1,3,-1
 600.318359375 885 l 1,0,-1
185.625976562 111 m 1,4,-1
 556.625976562 111 l 1,5,-1
 531 0 l 1,6,-1
 22 0 l 1,7,-1
 174.373046875 660 l 1,8,-1
 669.373046875 660 l 1,9,-1
 643.747070312 549 l 1,10,-1
 286.747070312 549 l 1,11,-1
 248.883789062 385 l 1,12,-1
 529.883789062 385 l 1,13,-1
 505.412109375 279 l 1,14,-1
 224.412109375 279 l 1,15,-1
 185.625976562 111 l 1,4,-1
EndSplineSet
Substitution2: "Single Substitution lookup 57 subtable" Eacute.swsh.001
Substitution2: "Single Substitution lookup 56 subtable" Eacute.swsh
AlternateSubs2: "'swsh' Swash lookup 33 subtable" Eacute.swsh Eacute.swsh.001
Substitution2: "'c2sc' Capitals to Small Capitals lookup 11 subtable" eacute.sc
AlternateSubs2: "'aalt' Access All Alternates lookup 1 subtable" eacute.sc Eacute.swsh Eacute.swsh.001
EndChar

StartChar: Ecircumflex
Encoding: 202 202 140
Width: 633
GlyphClass: 2
Flags: W
AnchorPoint: "Anchor-0" 271 0 basechar 0
LayerCount: 2
Fore
SplineSet
455.235351562 824 m 1,0,-1
 358.610351562 726 l 1,1,-1
 252.610351562 726 l 1,2,-1
 402.165039062 893 l 1,3,-1
 540.165039062 893 l 1,4,-1
 612.610351562 726 l 1,5,-1
 506.610351562 726 l 1,6,-1
 455.235351562 824 l 1,0,-1
185.625976562 111 m 1,7,-1
 556.625976562 111 l 1,8,-1
 531 0 l 1,9,-1
 22 0 l 1,10,-1
 174.373046875 660 l 1,11,-1
 669.373046875 660 l 1,12,-1
 643.747070312 549 l 1,13,-1
 286.747070312 549 l 1,14,-1
 248.883789062 385 l 1,15,-1
 529.883789062 385 l 1,16,-1
 505.412109375 279 l 1,17,-1
 224.412109375 279 l 1,18,-1
 185.625976562 111 l 1,7,-1
EndSplineSet
Substitution2: "Single Substitution lookup 57 subtable" Ecircumflex.swsh.001
Substitution2: "Single Substitution lookup 56 subtable" Ecircumflex.swsh
AlternateSubs2: "'swsh' Swash lookup 33 subtable" Ecircumflex.swsh Ecircumflex.swsh.001
Substitution2: "'c2sc' Capitals to Small Capitals lookup 11 subtable" ecircumflex.sc
AlternateSubs2: "'aalt' Access All Alternates lookup 1 subtable" ecircumflex.sc Ecircumflex.swsh Ecircumflex.swsh.001
EndChar

StartChar: Edieresis
Encoding: 203 203 141
Width: 633
GlyphClass: 2
Flags: W
AnchorPoint: "Anchor-0" 271 0 basechar 0
LayerCount: 2
Fore
SplineSet
326.379882812 725 m 0,0,1
 292.379882812 725 292.379882812 725 276.765625 744 c 128,-1,2
 261.15234375 763 261.15234375 763 268.540039062 795 c 128,-1,3
 275.927734375 827 275.927734375 827 300.314453125 846 c 128,-1,4
 324.701171875 865 324.701171875 865 358.701171875 865 c 0,5,6
 393.701171875 865 393.701171875 865 409.314453125 846 c 128,-1,7
 424.927734375 827 424.927734375 827 417.540039062 795 c 128,-1,8
 410.15234375 763 410.15234375 763 385.765625 744 c 128,-1,9
 361.379882812 725 361.379882812 725 326.379882812 725 c 0,0,1
536.379882812 725 m 0,10,11
 502.379882812 725 502.379882812 725 486.765625 744 c 128,-1,12
 471.15234375 763 471.15234375 763 478.540039062 795 c 128,-1,13
 485.927734375 827 485.927734375 827 510.314453125 846 c 128,-1,14
 534.701171875 865 534.701171875 865 568.701171875 865 c 0,15,16
 603.701171875 865 603.701171875 865 619.814453125 846 c 128,-1,17
 635.927734375 827 635.927734375 827 628.540039062 795 c 128,-1,18
 621.15234375 763 621.15234375 763 596.265625 744 c 128,-1,19
 571.379882812 725 571.379882812 725 536.379882812 725 c 0,10,11
185.625976562 111 m 1,20,-1
 556.625976562 111 l 1,21,-1
 531 0 l 1,22,-1
 22 0 l 1,23,-1
 174.373046875 660 l 1,24,-1
 669.373046875 660 l 1,25,-1
 643.747070312 549 l 1,26,-1
 286.747070312 549 l 1,27,-1
 248.883789062 385 l 1,28,-1
 529.883789062 385 l 1,29,-1
 505.412109375 279 l 1,30,-1
 224.412109375 279 l 1,31,-1
 185.625976562 111 l 1,20,-1
EndSplineSet
Substitution2: "Single Substitution lookup 57 subtable" Edieresis.swsh.001
Substitution2: "Single Substitution lookup 56 subtable" Edieresis.swsh
AlternateSubs2: "'swsh' Swash lookup 33 subtable" Edieresis.swsh Edieresis.swsh.001
Substitution2: "'c2sc' Capitals to Small Capitals lookup 11 subtable" edieresis.sc
AlternateSubs2: "'aalt' Access All Alternates lookup 1 subtable" edieresis.sc Edieresis.swsh Edieresis.swsh.001
EndChar

StartChar: Igrave
Encoding: 204 204 142
Width: 310
GlyphClass: 2
Flags: W
LayerCount: 2
Fore
SplineSet
287.318359375 885 m 1,0,-1
 307.534179688 730 l 1,1,-1
 204.534179688 730 l 1,2,-1
 151.318359375 885 l 1,3,-1
 287.318359375 885 l 1,0,-1
312.373046875 660 m 1,4,-1
 160 0 l 1,5,-1
 22 0 l 1,6,-1
 174.373046875 660 l 1,7,-1
 312.373046875 660 l 1,4,-1
EndSplineSet
Substitution2: "'c2sc' Capitals to Small Capitals lookup 11 subtable" igrave.sc
Substitution2: "'aalt' Access All Alternates lookup 0 subtable" igrave.sc
EndChar

StartChar: Iacute
Encoding: 205 205 143
Width: 310
GlyphClass: 2
Flags: W
LayerCount: 2
Fore
SplineSet
290.318359375 885 m 1,0,-1
 426.318359375 885 l 1,1,-1
 301.534179688 730 l 1,2,-1
 198.534179688 730 l 1,3,-1
 290.318359375 885 l 1,0,-1
312.373046875 660 m 1,4,-1
 160 0 l 1,5,-1
 22 0 l 1,6,-1
 174.373046875 660 l 1,7,-1
 312.373046875 660 l 1,4,-1
EndSplineSet
Substitution2: "'c2sc' Capitals to Small Capitals lookup 11 subtable" iacute.sc
Substitution2: "'aalt' Access All Alternates lookup 0 subtable" iacute.sc
EndChar

StartChar: Icircumflex
Encoding: 206 206 144
Width: 310
GlyphClass: 2
Flags: W
LayerCount: 2
Fore
SplineSet
438.610351562 726 m 1,0,-1
 332.610351562 726 l 1,1,-1
 281.235351562 824 l 1,2,-1
 184.610351562 726 l 1,3,-1
 78.6103515625 726 l 1,4,-1
 228.165039062 893 l 1,5,-1
 366.165039062 893 l 1,6,-1
 438.610351562 726 l 1,0,-1
312.373046875 660 m 1,7,-1
 160 0 l 1,8,-1
 22 0 l 1,9,-1
 174.373046875 660 l 1,10,-1
 312.373046875 660 l 1,7,-1
EndSplineSet
Substitution2: "'c2sc' Capitals to Small Capitals lookup 11 subtable" icircumflex.sc
Substitution2: "'aalt' Access All Alternates lookup 0 subtable" icircumflex.sc
EndChar

StartChar: Idieresis
Encoding: 207 207 145
Width: 310
GlyphClass: 2
Flags: W
LayerCount: 2
Fore
SplineSet
193.701171875 865 m 0,0,1
 227.701171875 865 227.701171875 865 243.314453125 846 c 128,-1,2
 258.927734375 827 258.927734375 827 251.540039062 795 c 128,-1,3
 244.15234375 763 244.15234375 763 219.765625 744 c 128,-1,4
 195.379882812 725 195.379882812 725 161.379882812 725 c 0,5,6
 128.379882812 725 128.379882812 725 113.265625 744 c 128,-1,7
 98.15234375 763 98.15234375 763 105.540039062 795 c 128,-1,8
 112.927734375 827 112.927734375 827 136.814453125 846 c 128,-1,9
 160.701171875 865 160.701171875 865 193.701171875 865 c 0,0,1
385.701171875 865 m 0,10,11
 419.701171875 865 419.701171875 865 435.314453125 846 c 128,-1,12
 450.927734375 827 450.927734375 827 443.540039062 795 c 128,-1,13
 436.15234375 763 436.15234375 763 411.765625 744 c 128,-1,14
 387.379882812 725 387.379882812 725 353.379882812 725 c 0,15,16
 320.379882812 725 320.379882812 725 305.265625 744 c 128,-1,17
 290.15234375 763 290.15234375 763 297.540039062 795 c 128,-1,18
 304.927734375 827 304.927734375 827 328.814453125 846 c 128,-1,19
 352.701171875 865 352.701171875 865 385.701171875 865 c 0,10,11
312.373046875 660 m 1,20,-1
 160 0 l 1,21,-1
 22 0 l 1,22,-1
 174.373046875 660 l 1,23,-1
 312.373046875 660 l 1,20,-1
EndSplineSet
Substitution2: "'c2sc' Capitals to Small Capitals lookup 11 subtable" idieresis.sc
Substitution2: "'aalt' Access All Alternates lookup 0 subtable" idieresis.sc
EndChar

StartChar: Eth
Encoding: 208 208 146
Width: 740
GlyphClass: 2
Flags: W
LayerCount: 2
Fore
SplineSet
450.373046875 660 m 2,0,1
 605.373046875 660 605.373046875 660 670.518554688 574 c 128,-1,2
 735.6640625 488 735.6640625 488 699.186523438 330 c 128,-1,3
 662.708984375 172 662.708984375 172 557.854492188 86 c 128,-1,4
 453 0 453 0 298 0 c 2,5,-1
 43 0 l 1,6,-1
 108.56640625 284 l 1,7,-1
 19.56640625 284 l 1,8,-1
 41.2685546875 378 l 1,9,-1
 130.268554688 378 l 1,10,-1
 195.373046875 660 l 1,11,-1
 450.373046875 660 l 2,0,1
316.395507812 110 m 2,12,13
 410.395507812 110 410.395507812 110 470.939453125 166.5 c 128,-1,14
 531.483398438 223 531.483398438 223 556.186523438 330 c 128,-1,15
 580.889648438 437 580.889648438 437 546.43359375 493.5 c 128,-1,16
 511.977539062 550 511.977539062 550 417.977539062 550 c 2,17,-1
 307.977539062 550 l 1,18,-1
 268.268554688 378 l 1,19,-1
 422.268554688 378 l 1,20,-1
 400.56640625 284 l 1,21,-1
 246.56640625 284 l 1,22,-1
 206.395507812 110 l 1,23,-1
 316.395507812 110 l 2,12,13
EndSplineSet
Substitution2: "'c2sc' Capitals to Small Capitals lookup 11 subtable" eth.sc
Substitution2: "'aalt' Access All Alternates lookup 0 subtable" eth.sc
EndChar

StartChar: Ntilde
Encoding: 209 209 147
Width: 739
GlyphClass: 2
Flags: W
AnchorPoint: "Anchor-0" 324 0 basechar 0
LayerCount: 2
Fore
SplineSet
701.702148438 878 m 1,0,1
 660.072265625 728 660.072265625 728 542.072265625 728 c 0,2,3
 509.072265625 728 509.072265625 728 488.03515625 743 c 128,-1,4
 466.998046875 758 466.998046875 758 453.076171875 773.5 c 128,-1,5
 439.155273438 789 439.155273438 789 423.155273438 789 c 0,6,7
 389.155273438 789 389.155273438 789 367.072265625 728 c 1,8,-1
 283.072265625 728 l 1,9,10
 324.702148438 878 324.702148438 878 443.702148438 878 c 0,11,12
 475.702148438 878 475.702148438 878 496.739257812 863 c 128,-1,13
 517.776367188 848 517.776367188 848 532.198242188 832.5 c 128,-1,14
 546.619140625 817 546.619140625 817 561.619140625 817 c 0,15,16
 595.619140625 817 595.619140625 817 617.702148438 878 c 1,17,-1
 701.702148438 878 l 1,0,1
741.373046875 660 m 1,18,-1
 589 0 l 1,19,-1
 431 0 l 1,20,-1
 289.577148438 388 l 1,21,-1
 258.203125 499 l 1,22,-1
 257.203125 499 l 1,23,-1
 234.19140625 382 l 1,24,-1
 146 0 l 1,25,-1
 22 0 l 1,26,-1
 174.373046875 660 l 1,27,-1
 331.373046875 660 l 1,28,-1
 473.02734375 273 l 1,29,-1
 504.169921875 161 l 1,30,-1
 506.169921875 161 l 1,31,-1
 529.181640625 278 l 1,32,-1
 617.373046875 660 l 1,33,-1
 741.373046875 660 l 1,18,-1
EndSplineSet
Substitution2: "Single Substitution lookup 57 subtable" Ntilde.swsh
Substitution2: "'swsh' Swash lookup 36 subtable" Ntilde.swsh
Substitution2: "'c2sc' Capitals to Small Capitals lookup 11 subtable" ntilde.sc
AlternateSubs2: "'aalt' Access All Alternates lookup 1 subtable" ntilde.sc Ntilde.swsh
EndChar

StartChar: Ograve
Encoding: 210 210 148
Width: 741
GlyphClass: 2
Flags: W
LayerCount: 2
Fore
SplineSet
503.318359375 885 m 1,0,-1
 523.534179688 730 l 1,1,-1
 420.534179688 730 l 1,2,-1
 367.318359375 885 l 1,3,-1
 503.318359375 885 l 1,0,-1
461.681640625 670 m 128,-1,5
 608.681640625 670 608.681640625 670 672.788085938 579.5 c 128,-1,6
 736.89453125 489 736.89453125 489 700.186523438 330 c 128,-1,7
 663.478515625 171 663.478515625 171 557.584960938 80.5 c 128,-1,8
 451.69140625 -10 451.69140625 -10 304.69140625 -10 c 128,-1,9
 157.69140625 -10 157.69140625 -10 93.0849609375 80.5 c 128,-1,10
 28.478515625 171 28.478515625 171 65.1865234375 330 c 128,-1,11
 101.89453125 489 101.89453125 489 208.288085938 579.5 c 128,-1,4
 314.681640625 670 314.681640625 670 461.681640625 670 c 128,-1,5
435.59375 557 m 0,12,13
 351.59375 557 351.59375 557 292.587890625 498.5 c 128,-1,14
 233.58203125 440 233.58203125 440 208.186523438 330 c 128,-1,15
 182.791015625 220 182.791015625 220 214.78515625 161.5 c 128,-1,16
 246.779296875 103 246.779296875 103 330.779296875 103 c 0,17,18
 413.779296875 103 413.779296875 103 472.78515625 161.5 c 128,-1,19
 531.791015625 220 531.791015625 220 557.186523438 330 c 128,-1,20
 582.58203125 440 582.58203125 440 550.587890625 498.5 c 128,-1,21
 518.59375 557 518.59375 557 435.59375 557 c 0,12,13
EndSplineSet
Substitution2: "'c2sc' Capitals to Small Capitals lookup 11 subtable" ograve.sc
Substitution2: "'aalt' Access All Alternates lookup 0 subtable" ograve.sc
EndChar

StartChar: Oacute
Encoding: 211 211 149
Width: 741
GlyphClass: 2
Flags: W
LayerCount: 2
Fore
SplineSet
506.318359375 885 m 1,0,-1
 642.318359375 885 l 1,1,-1
 517.534179688 730 l 1,2,-1
 414.534179688 730 l 1,3,-1
 506.318359375 885 l 1,0,-1
461.681640625 670 m 128,-1,5
 608.681640625 670 608.681640625 670 672.788085938 579.5 c 128,-1,6
 736.89453125 489 736.89453125 489 700.186523438 330 c 128,-1,7
 663.478515625 171 663.478515625 171 557.584960938 80.5 c 128,-1,8
 451.69140625 -10 451.69140625 -10 304.69140625 -10 c 128,-1,9
 157.69140625 -10 157.69140625 -10 93.0849609375 80.5 c 128,-1,10
 28.478515625 171 28.478515625 171 65.1865234375 330 c 128,-1,11
 101.89453125 489 101.89453125 489 208.288085938 579.5 c 128,-1,4
 314.681640625 670 314.681640625 670 461.681640625 670 c 128,-1,5
435.59375 557 m 0,12,13
 351.59375 557 351.59375 557 292.587890625 498.5 c 128,-1,14
 233.58203125 440 233.58203125 440 208.186523438 330 c 128,-1,15
 182.791015625 220 182.791015625 220 214.78515625 161.5 c 128,-1,16
 246.779296875 103 246.779296875 103 330.779296875 103 c 0,17,18
 413.779296875 103 413.779296875 103 472.78515625 161.5 c 128,-1,19
 531.791015625 220 531.791015625 220 557.186523438 330 c 128,-1,20
 582.58203125 440 582.58203125 440 550.587890625 498.5 c 128,-1,21
 518.59375 557 518.59375 557 435.59375 557 c 0,12,13
EndSplineSet
Substitution2: "'c2sc' Capitals to Small Capitals lookup 11 subtable" oacute.sc
Substitution2: "'aalt' Access All Alternates lookup 0 subtable" oacute.sc
EndChar

StartChar: Ocircumflex
Encoding: 212 212 150
Width: 741
GlyphClass: 2
Flags: W
LayerCount: 2
Fore
SplineSet
654.610351562 726 m 1,0,-1
 548.610351562 726 l 1,1,-1
 497.235351562 824 l 1,2,-1
 400.610351562 726 l 1,3,-1
 294.610351562 726 l 1,4,-1
 444.165039062 893 l 1,5,-1
 582.165039062 893 l 1,6,-1
 654.610351562 726 l 1,0,-1
461.681640625 670 m 128,-1,8
 608.681640625 670 608.681640625 670 672.788085938 579.5 c 128,-1,9
 736.89453125 489 736.89453125 489 700.186523438 330 c 128,-1,10
 663.478515625 171 663.478515625 171 557.584960938 80.5 c 128,-1,11
 451.69140625 -10 451.69140625 -10 304.69140625 -10 c 128,-1,12
 157.69140625 -10 157.69140625 -10 93.0849609375 80.5 c 128,-1,13
 28.478515625 171 28.478515625 171 65.1865234375 330 c 128,-1,14
 101.89453125 489 101.89453125 489 208.288085938 579.5 c 128,-1,7
 314.681640625 670 314.681640625 670 461.681640625 670 c 128,-1,8
435.59375 557 m 0,15,16
 351.59375 557 351.59375 557 292.587890625 498.5 c 128,-1,17
 233.58203125 440 233.58203125 440 208.186523438 330 c 128,-1,18
 182.791015625 220 182.791015625 220 214.78515625 161.5 c 128,-1,19
 246.779296875 103 246.779296875 103 330.779296875 103 c 0,20,21
 413.779296875 103 413.779296875 103 472.78515625 161.5 c 128,-1,22
 531.791015625 220 531.791015625 220 557.186523438 330 c 128,-1,23
 582.58203125 440 582.58203125 440 550.587890625 498.5 c 128,-1,24
 518.59375 557 518.59375 557 435.59375 557 c 0,15,16
EndSplineSet
Substitution2: "'c2sc' Capitals to Small Capitals lookup 11 subtable" ocircumflex.sc
Substitution2: "'aalt' Access All Alternates lookup 0 subtable" ocircumflex.sc
EndChar

StartChar: Otilde
Encoding: 213 213 151
Width: 741
GlyphClass: 2
Flags: W
LayerCount: 2
Fore
SplineSet
700.702148438 878 m 1,0,1
 658.072265625 728 658.072265625 728 541.072265625 728 c 0,2,3
 508.072265625 728 508.072265625 728 487.03515625 743 c 128,-1,4
 465.998046875 758 465.998046875 758 452.076171875 773.5 c 128,-1,5
 438.155273438 789 438.155273438 789 422.155273438 789 c 0,6,7
 388.155273438 789 388.155273438 789 366.072265625 728 c 1,8,-1
 282.072265625 728 l 1,9,10
 324.702148438 878 324.702148438 878 442.702148438 878 c 0,11,12
 467.702148438 878 467.702148438 878 487.008789062 868.5 c 128,-1,13
 506.315429688 859 506.315429688 859 515.161132812 847.5 c 128,-1,14
 524.005859375 836 524.005859375 836 535.8125 826.5 c 128,-1,15
 547.619140625 817 547.619140625 817 560.619140625 817 c 0,16,17
 594.619140625 817 594.619140625 817 616.702148438 878 c 1,18,-1
 700.702148438 878 l 1,0,1
461.681640625 670 m 128,-1,20
 608.681640625 670 608.681640625 670 672.788085938 579.5 c 128,-1,21
 736.89453125 489 736.89453125 489 700.186523438 330 c 128,-1,22
 663.478515625 171 663.478515625 171 557.584960938 80.5 c 128,-1,23
 451.69140625 -10 451.69140625 -10 304.69140625 -10 c 128,-1,24
 157.69140625 -10 157.69140625 -10 93.0849609375 80.5 c 128,-1,25
 28.478515625 171 28.478515625 171 65.1865234375 330 c 128,-1,26
 101.89453125 489 101.89453125 489 208.288085938 579.5 c 128,-1,19
 314.681640625 670 314.681640625 670 461.681640625 670 c 128,-1,20
435.59375 557 m 0,27,28
 351.59375 557 351.59375 557 292.587890625 498.5 c 128,-1,29
 233.58203125 440 233.58203125 440 208.186523438 330 c 128,-1,30
 182.791015625 220 182.791015625 220 214.78515625 161.5 c 128,-1,31
 246.779296875 103 246.779296875 103 330.779296875 103 c 0,32,33
 413.779296875 103 413.779296875 103 472.78515625 161.5 c 128,-1,34
 531.791015625 220 531.791015625 220 557.186523438 330 c 128,-1,35
 582.58203125 440 582.58203125 440 550.587890625 498.5 c 128,-1,36
 518.59375 557 518.59375 557 435.59375 557 c 0,27,28
EndSplineSet
Substitution2: "'c2sc' Capitals to Small Capitals lookup 11 subtable" otilde.sc
Substitution2: "'aalt' Access All Alternates lookup 0 subtable" otilde.sc
EndChar

StartChar: Odieresis
Encoding: 214 214 152
Width: 741
GlyphClass: 2
Flags: W
LayerCount: 2
Fore
SplineSet
400.701171875 865 m 0,0,1
 435.701171875 865 435.701171875 865 451.314453125 846 c 128,-1,2
 466.927734375 827 466.927734375 827 459.540039062 795 c 128,-1,3
 452.15234375 763 452.15234375 763 427.765625 744 c 128,-1,4
 403.379882812 725 403.379882812 725 368.379882812 725 c 0,5,6
 334.379882812 725 334.379882812 725 318.765625 744 c 128,-1,7
 303.15234375 763 303.15234375 763 310.540039062 795 c 128,-1,8
 317.927734375 827 317.927734375 827 342.314453125 846 c 128,-1,9
 366.701171875 865 366.701171875 865 400.701171875 865 c 0,0,1
610.701171875 865 m 0,10,11
 645.701171875 865 645.701171875 865 661.814453125 846 c 128,-1,12
 677.927734375 827 677.927734375 827 670.540039062 795 c 128,-1,13
 663.15234375 763 663.15234375 763 638.265625 744 c 128,-1,14
 613.379882812 725 613.379882812 725 578.379882812 725 c 0,15,16
 544.379882812 725 544.379882812 725 528.765625 744 c 128,-1,17
 513.15234375 763 513.15234375 763 520.540039062 795 c 128,-1,18
 527.927734375 827 527.927734375 827 552.314453125 846 c 128,-1,19
 576.701171875 865 576.701171875 865 610.701171875 865 c 0,10,11
461.681640625 670 m 128,-1,21
 608.681640625 670 608.681640625 670 672.788085938 579.5 c 128,-1,22
 736.89453125 489 736.89453125 489 700.186523438 330 c 128,-1,23
 663.478515625 171 663.478515625 171 557.584960938 80.5 c 128,-1,24
 451.69140625 -10 451.69140625 -10 304.69140625 -10 c 128,-1,25
 157.69140625 -10 157.69140625 -10 93.0849609375 80.5 c 128,-1,26
 28.478515625 171 28.478515625 171 65.1865234375 330 c 128,-1,27
 101.89453125 489 101.89453125 489 208.288085938 579.5 c 128,-1,20
 314.681640625 670 314.681640625 670 461.681640625 670 c 128,-1,21
435.59375 557 m 0,28,29
 351.59375 557 351.59375 557 292.587890625 498.5 c 128,-1,30
 233.58203125 440 233.58203125 440 208.186523438 330 c 128,-1,31
 182.791015625 220 182.791015625 220 214.78515625 161.5 c 128,-1,32
 246.779296875 103 246.779296875 103 330.779296875 103 c 0,33,34
 413.779296875 103 413.779296875 103 472.78515625 161.5 c 128,-1,35
 531.791015625 220 531.791015625 220 557.186523438 330 c 128,-1,36
 582.58203125 440 582.58203125 440 550.587890625 498.5 c 128,-1,37
 518.59375 557 518.59375 557 435.59375 557 c 0,28,29
EndSplineSet
Substitution2: "'titl' Titling lookup 41 subtable" Odieresis.titl
Substitution2: "'c2sc' Capitals to Small Capitals lookup 11 subtable" odieresis.sc
AlternateSubs2: "'aalt' Access All Alternates lookup 1 subtable" odieresis.sc Odieresis.titl
EndChar

StartChar: multiply
Encoding: 215 215 153
Width: 604
GlyphClass: 2
Flags: W
LayerCount: 2
Fore
SplineSet
586.509765625 483 m 1,0,-1
 389.5703125 323 l 1,1,-1
 512.631835938 163 l 1,2,-1
 417.624023438 85 l 1,3,-1
 294.5625 245 l 1,4,-1
 97.6240234375 85 l 1,5,-1
 37.6318359375 163 l 1,6,-1
 234.5703125 323 l 1,7,-1
 111.509765625 483 l 1,8,-1
 207.516601562 561 l 1,9,-1
 330.578125 401 l 1,10,-1
 527.516601562 561 l 1,11,-1
 586.509765625 483 l 1,0,-1
EndSplineSet
EndChar

StartChar: Oslash
Encoding: 216 216 154
Width: 741
GlyphClass: 2
Flags: W
LayerCount: 2
Fore
SplineSet
668.827148438 584 m 1,0,1
 738.048828125 494 738.048828125 494 700.186523438 330 c 0,2,3
 663.478515625 171 663.478515625 171 557.584960938 80.5 c 128,-1,4
 451.69140625 -10 451.69140625 -10 304.69140625 -10 c 0,5,6
 204.69140625 -10 204.69140625 -10 142.618164062 33 c 1,7,-1
 81.8427734375 -31 l 1,8,-1
 1.8427734375 -31 l 1,9,-1
 98.6220703125 72 l 1,10,11
 27.0927734375 165 27.0927734375 165 65.1865234375 330 c 0,12,13
 101.89453125 489 101.89453125 489 208.288085938 579.5 c 128,-1,14
 314.681640625 670 314.681640625 670 461.681640625 670 c 0,15,16
 563.681640625 670 563.681640625 670 627.29296875 625 c 1,17,-1
 681.452148438 682 l 1,18,-1
 761.452148438 682 l 1,19,-1
 668.827148438 584 l 1,0,1
435.59375 557 m 0,20,21
 351.59375 557 351.59375 557 292.587890625 498.5 c 128,-1,22
 233.58203125 440 233.58203125 440 208.186523438 330 c 0,23,24
 186.485351562 236 186.485351562 236 206.556640625 180 c 1,25,-1
 529.436523438 526 l 1,26,27
 494.59375 557 494.59375 557 435.59375 557 c 0,20,21
330.779296875 103 m 0,28,29
 413.779296875 103 413.779296875 103 472.78515625 161.5 c 128,-1,30
 531.791015625 220 531.791015625 220 557.186523438 330 c 0,31,32
 577.272460938 417 577.272460938 417 561.200195312 473 c 1,33,-1
 241.012695312 130 l 1,34,35
 273.779296875 103 273.779296875 103 330.779296875 103 c 0,28,29
EndSplineSet
Substitution2: "'c2sc' Capitals to Small Capitals lookup 11 subtable" oslash.sc
Substitution2: "'aalt' Access All Alternates lookup 0 subtable" oslash.sc
EndChar

StartChar: Ugrave
Encoding: 217 217 155
Width: 715
GlyphClass: 2
Flags: W
LayerCount: 2
Fore
SplineSet
490.318359375 885 m 1,0,-1
 510.534179688 730 l 1,1,-1
 407.534179688 730 l 1,2,-1
 354.318359375 885 l 1,3,-1
 490.318359375 885 l 1,0,-1
728.373046875 660 m 1,4,-1
 636.025390625 260 l 2,5,6
 605.08984375 126 605.08984375 126 517.890625 58 c 128,-1,7
 430.69140625 -10 430.69140625 -10 291.69140625 -10 c 128,-1,8
 152.69140625 -10 152.69140625 -10 96.890625 58 c 128,-1,9
 41.08984375 126 41.08984375 126 72.025390625 260 c 2,10,-1
 164.373046875 660 l 1,11,-1
 302.373046875 660 l 1,12,-1
 211.411132812 266 l 2,13,14
 173.779296875 103 173.779296875 103 317.779296875 103 c 0,15,16
 390.779296875 103 390.779296875 103 435.013671875 143 c 128,-1,17
 479.249023438 183 479.249023438 183 498.411132812 266 c 2,18,-1
 589.373046875 660 l 1,19,-1
 728.373046875 660 l 1,4,-1
EndSplineSet
Substitution2: "'c2sc' Capitals to Small Capitals lookup 11 subtable" ugrave.sc
Substitution2: "'aalt' Access All Alternates lookup 0 subtable" ugrave.sc
EndChar

StartChar: Uacute
Encoding: 218 218 156
Width: 715
GlyphClass: 2
Flags: W
LayerCount: 2
Fore
SplineSet
493.318359375 885 m 1,0,-1
 629.318359375 885 l 1,1,-1
 504.534179688 730 l 1,2,-1
 401.534179688 730 l 1,3,-1
 493.318359375 885 l 1,0,-1
728.373046875 660 m 1,4,-1
 636.025390625 260 l 2,5,6
 605.08984375 126 605.08984375 126 517.890625 58 c 128,-1,7
 430.69140625 -10 430.69140625 -10 291.69140625 -10 c 128,-1,8
 152.69140625 -10 152.69140625 -10 96.890625 58 c 128,-1,9
 41.08984375 126 41.08984375 126 72.025390625 260 c 2,10,-1
 164.373046875 660 l 1,11,-1
 302.373046875 660 l 1,12,-1
 211.411132812 266 l 2,13,14
 173.779296875 103 173.779296875 103 317.779296875 103 c 0,15,16
 390.779296875 103 390.779296875 103 435.013671875 143 c 128,-1,17
 479.249023438 183 479.249023438 183 498.411132812 266 c 2,18,-1
 589.373046875 660 l 1,19,-1
 728.373046875 660 l 1,4,-1
EndSplineSet
Substitution2: "'c2sc' Capitals to Small Capitals lookup 11 subtable" uacute.sc
Substitution2: "'aalt' Access All Alternates lookup 0 subtable" uacute.sc
EndChar

StartChar: Ucircumflex
Encoding: 219 219 157
Width: 715
GlyphClass: 2
Flags: W
LayerCount: 2
Fore
SplineSet
641.610351562 726 m 1,0,-1
 535.610351562 726 l 1,1,-1
 484.235351562 824 l 1,2,-1
 387.610351562 726 l 1,3,-1
 281.610351562 726 l 1,4,-1
 431.165039062 893 l 1,5,-1
 569.165039062 893 l 1,6,-1
 641.610351562 726 l 1,0,-1
728.373046875 660 m 1,7,-1
 636.025390625 260 l 2,8,9
 605.08984375 126 605.08984375 126 517.890625 58 c 128,-1,10
 430.69140625 -10 430.69140625 -10 291.69140625 -10 c 128,-1,11
 152.69140625 -10 152.69140625 -10 96.890625 58 c 128,-1,12
 41.08984375 126 41.08984375 126 72.025390625 260 c 2,13,-1
 164.373046875 660 l 1,14,-1
 302.373046875 660 l 1,15,-1
 211.411132812 266 l 2,16,17
 173.779296875 103 173.779296875 103 317.779296875 103 c 0,18,19
 390.779296875 103 390.779296875 103 435.013671875 143 c 128,-1,20
 479.249023438 183 479.249023438 183 498.411132812 266 c 2,21,-1
 589.373046875 660 l 1,22,-1
 728.373046875 660 l 1,7,-1
EndSplineSet
Substitution2: "'c2sc' Capitals to Small Capitals lookup 11 subtable" ucircumflex.sc
Substitution2: "'aalt' Access All Alternates lookup 0 subtable" ucircumflex.sc
EndChar

StartChar: Udieresis
Encoding: 220 220 158
Width: 715
GlyphClass: 2
Flags: W
LayerCount: 2
Fore
SplineSet
387.701171875 865 m 0,0,1
 422.701171875 865 422.701171875 865 438.314453125 846 c 128,-1,2
 453.927734375 827 453.927734375 827 446.540039062 795 c 128,-1,3
 439.15234375 763 439.15234375 763 414.765625 744 c 128,-1,4
 390.379882812 725 390.379882812 725 355.379882812 725 c 0,5,6
 321.379882812 725 321.379882812 725 305.765625 744 c 128,-1,7
 290.15234375 763 290.15234375 763 297.540039062 795 c 128,-1,8
 304.927734375 827 304.927734375 827 329.314453125 846 c 128,-1,9
 353.701171875 865 353.701171875 865 387.701171875 865 c 0,0,1
597.701171875 865 m 0,10,11
 632.701171875 865 632.701171875 865 648.814453125 846 c 128,-1,12
 664.927734375 827 664.927734375 827 657.540039062 795 c 128,-1,13
 650.15234375 763 650.15234375 763 625.265625 744 c 128,-1,14
 600.379882812 725 600.379882812 725 565.379882812 725 c 0,15,16
 531.379882812 725 531.379882812 725 515.765625 744 c 128,-1,17
 500.15234375 763 500.15234375 763 507.540039062 795 c 128,-1,18
 514.927734375 827 514.927734375 827 539.314453125 846 c 128,-1,19
 563.701171875 865 563.701171875 865 597.701171875 865 c 0,10,11
728.373046875 660 m 1,20,-1
 636.025390625 260 l 2,21,22
 605.08984375 126 605.08984375 126 517.890625 58 c 128,-1,23
 430.69140625 -10 430.69140625 -10 291.69140625 -10 c 128,-1,24
 152.69140625 -10 152.69140625 -10 96.890625 58 c 128,-1,25
 41.08984375 126 41.08984375 126 72.025390625 260 c 2,26,-1
 164.373046875 660 l 1,27,-1
 302.373046875 660 l 1,28,-1
 211.411132812 266 l 2,29,30
 173.779296875 103 173.779296875 103 317.779296875 103 c 0,31,32
 390.779296875 103 390.779296875 103 435.013671875 143 c 128,-1,33
 479.249023438 183 479.249023438 183 498.411132812 266 c 2,34,-1
 589.373046875 660 l 1,35,-1
 728.373046875 660 l 1,20,-1
EndSplineSet
Substitution2: "'titl' Titling lookup 41 subtable" Udieresis.titl
Substitution2: "'c2sc' Capitals to Small Capitals lookup 11 subtable" udieresis.sc
AlternateSubs2: "'aalt' Access All Alternates lookup 1 subtable" udieresis.sc Udieresis.titl
EndChar

StartChar: Yacute
Encoding: 221 221 159
Width: 626
GlyphClass: 2
Flags: W
LayerCount: 2
Fore
SplineSet
448.318359375 885 m 1,0,-1
 584.318359375 885 l 1,1,-1
 459.534179688 730 l 1,2,-1
 356.534179688 730 l 1,3,-1
 448.318359375 885 l 1,0,-1
704.373046875 660 m 1,4,-1
 375.024414062 247 l 1,5,-1
 318 0 l 1,6,-1
 180 0 l 1,7,-1
 237.024414062 247 l 1,8,-1
 98.373046875 660 l 1,9,-1
 245.373046875 660 l 1,10,-1
 305.891601562 463 l 1,11,-1
 331.881835938 359 l 1,12,-1
 406.891601562 463 l 1,13,-1
 558.373046875 660 l 1,14,-1
 704.373046875 660 l 1,4,-1
EndSplineSet
Substitution2: "'c2sc' Capitals to Small Capitals lookup 11 subtable" yacute.sc
Substitution2: "'aalt' Access All Alternates lookup 0 subtable" yacute.sc
EndChar

StartChar: Thorn
Encoding: 222 222 160
Width: 652
GlyphClass: 2
Flags: W
LayerCount: 2
Fore
SplineSet
415.669921875 553 m 2,0,1
 540.669921875 553 540.669921875 553 593.47265625 498 c 128,-1,2
 646.274414062 443 646.274414062 443 620.802734375 337 c 0,3,4
 597.561523438 232 597.561523438 232 519.248046875 176.5 c 128,-1,5
 440.934570312 121 440.934570312 121 315.934570312 121 c 2,6,-1
 187.934570312 121 l 1,7,-1
 160 0 l 1,8,-1
 22 0 l 1,9,-1
 174.373046875 660 l 1,10,-1
 312.373046875 660 l 1,11,-1
 287.669921875 553 l 1,12,-1
 415.669921875 553 l 2,0,1
331.099609375 230 m 2,13,14
 456.099609375 230 456.099609375 230 480.802734375 337 c 128,-1,15
 505.505859375 444 505.505859375 444 380.505859375 444 c 2,16,-1
 262.505859375 444 l 1,17,-1
 213.099609375 230 l 1,18,-1
 331.099609375 230 l 2,13,14
EndSplineSet
Substitution2: "'c2sc' Capitals to Small Capitals lookup 11 subtable" thorn.sc
Substitution2: "'aalt' Access All Alternates lookup 0 subtable" thorn.sc
EndChar

StartChar: germandbls
Encoding: 223 223 161
Width: 637
GlyphClass: 2
Flags: W
LayerCount: 2
Fore
SplineSet
433.344726562 374 m 1,0,1
 522.344726562 374 522.344726562 374 556.877929688 320 c 128,-1,2
 591.411132812 266 591.411132812 266 573.633789062 189 c 0,3,4
 554.471679688 106 554.471679688 106 483.58203125 48 c 128,-1,5
 412.69140625 -10 412.69140625 -10 306.69140625 -10 c 0,6,7
 231.69140625 -10 231.69140625 -10 197.309570312 23 c 1,8,-1
 245.2421875 118 l 1,9,10
 266.701171875 94 266.701171875 94 313.701171875 94 c 0,11,12
 363.701171875 94 363.701171875 94 398.858398438 125 c 128,-1,13
 434.015625 156 434.015625 156 445.790039062 207 c 0,14,15
 458.025390625 260 458.025390625 260 430.490234375 288 c 128,-1,16
 402.954101562 316 402.954101562 316 338.954101562 316 c 2,17,-1
 293.954101562 316 l 1,18,-1
 328.96484375 420 l 1,19,-1
 362.96484375 420 l 2,20,21
 413.96484375 420 413.96484375 420 449.543945312 448.5 c 128,-1,22
 485.124023438 477 485.124023438 477 495.513671875 522 c 0,23,24
 517.676757812 618 517.676757812 618 410.676757812 618 c 0,25,26
 342.676757812 618 342.676757812 618 306.288085938 579.5 c 128,-1,27
 269.899414062 541 269.899414062 541 250.506835938 457 c 2,28,-1
 145 0 l 1,29,-1
 8 0 l 1,30,-1
 117.431640625 474 l 2,31,32
 145.135742188 594 145.135742188 594 222.142578125 659 c 128,-1,33
 299.1484375 724 299.1484375 724 440.1484375 724 c 0,34,35
 556.1484375 724 556.1484375 724 603.834960938 668.5 c 128,-1,36
 651.522460938 613 651.522460938 613 633.052734375 533 c 0,37,38
 618.739257812 471 618.739257812 471 565.272460938 423.5 c 128,-1,39
 511.806640625 376 511.806640625 376 433.806640625 376 c 1,40,-1
 433.344726562 374 l 1,0,1
EndSplineSet
Substitution2: "Single Substitution lookup 57 subtable" germandbls.calt
Substitution2: "'smcp' Lowercase to Small Capitals lookup 12 subtable" germandbls.sc
AlternateSubs2: "'aalt' Access All Alternates lookup 1 subtable" germandbls.sc germandbls.calt
EndChar

StartChar: agrave
Encoding: 224 224 162
Width: 574
GlyphClass: 2
Flags: W
LayerCount: 2
Fore
SplineSet
402.056640625 572 m 1,0,-1
 300.056640625 572 l 1,1,-1
 239.303710938 742 l 1,2,-1
 371.303710938 742 l 1,3,-1
 402.056640625 572 l 1,0,-1
484.162109375 83 m 0,4,5
 505.162109375 83 505.162109375 83 519.0859375 87 c 1,6,-1
 489.923828125 4 l 1,7,8
 458.69140625 -10 458.69140625 -10 421.69140625 -10 c 0,9,10
 325.69140625 -10 325.69140625 -10 324.006835938 65 c 1,11,12
 260.69140625 -10 260.69140625 -10 129.69140625 -10 c 0,13,14
 56.69140625 -10 56.69140625 -10 23.3095703125 23 c 128,-1,15
 -10.0712890625 56 -10.0712890625 56 4.2421875 118 c 0,16,17
 32.408203125 240 32.408203125 240 235.719726562 276 c 2,18,-1
 361.029296875 299 l 1,19,-1
 366.5703125 323 l 2,20,21
 375.8046875 363 375.8046875 363 358.73046875 386.5 c 128,-1,22
 341.65625 410 341.65625 410 301.65625 410 c 0,23,24
 206.65625 410 206.65625 410 167.032226562 325 c 1,25,-1
 68.65234375 371 l 1,26,27
 99.658203125 436 99.658203125 436 164.200195312 473 c 128,-1,28
 228.743164062 510 228.743164062 510 318.743164062 510 c 0,29,30
 425.743164062 510 425.743164062 510 475.0078125 463.5 c 128,-1,31
 524.272460938 417 524.272460938 417 503.262695312 326 c 2,32,-1
 455.934570312 121 l 2,33,34
 447.162109375 83 447.162109375 83 484.162109375 83 c 0,4,5
194.162109375 83 m 0,35,36
 238.162109375 83 238.162109375 83 279.625976562 104.5 c 128,-1,37
 321.08984375 126 321.08984375 126 329.631835938 163 c 2,38,-1
 341.63671875 215 l 1,39,-1
 229.095703125 191 l 2,40,41
 158.6328125 176 158.6328125 176 148.474609375 132 c 0,42,43
 137.162109375 83 137.162109375 83 194.162109375 83 c 0,35,36
EndSplineSet
Substitution2: "'smcp' Lowercase to Small Capitals lookup 12 subtable" agrave.sc
Substitution2: "'aalt' Access All Alternates lookup 0 subtable" agrave.sc
EndChar

StartChar: aacute
Encoding: 225 225 163
Width: 574
GlyphClass: 2
Flags: W
LayerCount: 2
Fore
SplineSet
518.303710938 742 m 1,0,-1
 379.056640625 572 l 1,1,-1
 277.056640625 572 l 1,2,-1
 386.303710938 742 l 1,3,-1
 518.303710938 742 l 1,0,-1
484.162109375 83 m 0,4,5
 505.162109375 83 505.162109375 83 519.0859375 87 c 1,6,-1
 489.923828125 4 l 1,7,8
 458.69140625 -10 458.69140625 -10 421.69140625 -10 c 0,9,10
 325.69140625 -10 325.69140625 -10 324.006835938 65 c 1,11,12
 260.69140625 -10 260.69140625 -10 129.69140625 -10 c 0,13,14
 56.69140625 -10 56.69140625 -10 23.3095703125 23 c 128,-1,15
 -10.0712890625 56 -10.0712890625 56 4.2421875 118 c 0,16,17
 32.408203125 240 32.408203125 240 235.719726562 276 c 2,18,-1
 361.029296875 299 l 1,19,-1
 366.5703125 323 l 2,20,21
 375.8046875 363 375.8046875 363 358.73046875 386.5 c 128,-1,22
 341.65625 410 341.65625 410 301.65625 410 c 0,23,24
 206.65625 410 206.65625 410 167.032226562 325 c 1,25,-1
 68.65234375 371 l 1,26,27
 99.658203125 436 99.658203125 436 164.200195312 473 c 128,-1,28
 228.743164062 510 228.743164062 510 318.743164062 510 c 0,29,30
 425.743164062 510 425.743164062 510 475.0078125 463.5 c 128,-1,31
 524.272460938 417 524.272460938 417 503.262695312 326 c 2,32,-1
 455.934570312 121 l 2,33,34
 447.162109375 83 447.162109375 83 484.162109375 83 c 0,4,5
194.162109375 83 m 0,35,36
 238.162109375 83 238.162109375 83 279.625976562 104.5 c 128,-1,37
 321.08984375 126 321.08984375 126 329.631835938 163 c 2,38,-1
 341.63671875 215 l 1,39,-1
 229.095703125 191 l 2,40,41
 158.6328125 176 158.6328125 176 148.474609375 132 c 0,42,43
 137.162109375 83 137.162109375 83 194.162109375 83 c 0,35,36
EndSplineSet
Substitution2: "'smcp' Lowercase to Small Capitals lookup 12 subtable" aacute.sc
Substitution2: "'aalt' Access All Alternates lookup 0 subtable" aacute.sc
EndChar

StartChar: acircumflex
Encoding: 226 226 164
Width: 574
GlyphClass: 2
Flags: W
LayerCount: 2
Fore
SplineSet
364.373046875 660 m 1,0,-1
 268.440429688 565 l 1,1,-1
 163.440429688 565 l 1,2,-1
 312.688476562 735 l 1,3,-1
 450.688476562 735 l 1,4,-1
 521.440429688 565 l 1,5,-1
 416.440429688 565 l 1,6,-1
 364.373046875 660 l 1,0,-1
484.162109375 83 m 0,7,8
 505.162109375 83 505.162109375 83 519.0859375 87 c 1,9,-1
 489.923828125 4 l 1,10,11
 458.69140625 -10 458.69140625 -10 421.69140625 -10 c 0,12,13
 325.69140625 -10 325.69140625 -10 324.006835938 65 c 1,14,15
 260.69140625 -10 260.69140625 -10 129.69140625 -10 c 0,16,17
 56.69140625 -10 56.69140625 -10 23.3095703125 23 c 128,-1,18
 -10.0712890625 56 -10.0712890625 56 4.2421875 118 c 0,19,20
 32.408203125 240 32.408203125 240 235.719726562 276 c 2,21,-1
 361.029296875 299 l 1,22,-1
 366.5703125 323 l 2,23,24
 375.8046875 363 375.8046875 363 358.73046875 386.5 c 128,-1,25
 341.65625 410 341.65625 410 301.65625 410 c 0,26,27
 206.65625 410 206.65625 410 167.032226562 325 c 1,28,-1
 68.65234375 371 l 1,29,30
 99.658203125 436 99.658203125 436 164.200195312 473 c 128,-1,31
 228.743164062 510 228.743164062 510 318.743164062 510 c 0,32,33
 425.743164062 510 425.743164062 510 475.0078125 463.5 c 128,-1,34
 524.272460938 417 524.272460938 417 503.262695312 326 c 2,35,-1
 455.934570312 121 l 2,36,37
 447.162109375 83 447.162109375 83 484.162109375 83 c 0,7,8
194.162109375 83 m 0,38,39
 238.162109375 83 238.162109375 83 279.625976562 104.5 c 128,-1,40
 321.08984375 126 321.08984375 126 329.631835938 163 c 2,41,-1
 341.63671875 215 l 1,42,-1
 229.095703125 191 l 2,43,44
 158.6328125 176 158.6328125 176 148.474609375 132 c 0,45,46
 137.162109375 83 137.162109375 83 194.162109375 83 c 0,38,39
EndSplineSet
Substitution2: "'smcp' Lowercase to Small Capitals lookup 12 subtable" acircumflex.sc
Substitution2: "'aalt' Access All Alternates lookup 0 subtable" acircumflex.sc
EndChar

StartChar: atilde
Encoding: 227 227 165
Width: 574
GlyphClass: 2
Flags: W
LayerCount: 2
Fore
SplineSet
290.215820312 629 m 0,0,1
 256.215820312 629 256.215820312 629 234.1328125 568 c 1,2,-1
 150.1328125 568 l 1,3,4
 191.763671875 718 191.763671875 718 310.763671875 718 c 0,5,6
 342.763671875 718 342.763671875 718 363.80078125 703 c 128,-1,7
 384.836914062 688 384.836914062 688 399.258789062 672.5 c 128,-1,8
 413.680664062 657 413.680664062 657 428.680664062 657 c 0,9,10
 462.680664062 657 462.680664062 657 484.763671875 718 c 1,11,-1
 568.763671875 718 l 1,12,13
 527.1328125 568 527.1328125 568 409.1328125 568 c 0,14,15
 376.1328125 568 376.1328125 568 355.095703125 583 c 128,-1,16
 334.059570312 598 334.059570312 598 320.137695312 613.5 c 128,-1,17
 306.215820312 629 306.215820312 629 290.215820312 629 c 0,0,1
484.162109375 83 m 0,18,19
 505.162109375 83 505.162109375 83 519.0859375 87 c 1,20,-1
 489.923828125 4 l 1,21,22
 458.69140625 -10 458.69140625 -10 421.69140625 -10 c 0,23,24
 325.69140625 -10 325.69140625 -10 324.006835938 65 c 1,25,26
 260.69140625 -10 260.69140625 -10 129.69140625 -10 c 0,27,28
 56.69140625 -10 56.69140625 -10 23.3095703125 23 c 128,-1,29
 -10.0712890625 56 -10.0712890625 56 4.2421875 118 c 0,30,31
 32.408203125 240 32.408203125 240 235.719726562 276 c 2,32,-1
 361.029296875 299 l 1,33,-1
 366.5703125 323 l 2,34,35
 375.8046875 363 375.8046875 363 358.73046875 386.5 c 128,-1,36
 341.65625 410 341.65625 410 301.65625 410 c 0,37,38
 206.65625 410 206.65625 410 167.032226562 325 c 1,39,-1
 68.65234375 371 l 1,40,41
 99.658203125 436 99.658203125 436 164.200195312 473 c 128,-1,42
 228.743164062 510 228.743164062 510 318.743164062 510 c 0,43,44
 425.743164062 510 425.743164062 510 475.0078125 463.5 c 128,-1,45
 524.272460938 417 524.272460938 417 503.262695312 326 c 2,46,-1
 455.934570312 121 l 2,47,48
 447.162109375 83 447.162109375 83 484.162109375 83 c 0,18,19
194.162109375 83 m 0,49,50
 238.162109375 83 238.162109375 83 279.625976562 104.5 c 128,-1,51
 321.08984375 126 321.08984375 126 329.631835938 163 c 2,52,-1
 341.63671875 215 l 1,53,-1
 229.095703125 191 l 2,54,55
 158.6328125 176 158.6328125 176 148.474609375 132 c 0,56,57
 137.162109375 83 137.162109375 83 194.162109375 83 c 0,49,50
EndSplineSet
Substitution2: "'smcp' Lowercase to Small Capitals lookup 12 subtable" atilde.sc
Substitution2: "'aalt' Access All Alternates lookup 0 subtable" atilde.sc
EndChar

